<?xml version="1.0" encoding="UTF-8"?>
<svg id="_圖層_1" data-name="圖層_1" xmlns="http://www.w3.org/2000/svg" viewBox="0 0 100 100">
  <defs>
    <style>
      .cls-1 {
        fill: #060001;
      }

      .cls-2 {
        fill: #fff;
      }
    </style>
  </defs>
  <rect class="cls-1" x="18.65" y="36.17" width="62.699" height="20.9"/>
  <polygon class="cls-2" points="25.618 48.981 28.466 48.981 28.466 47.856 31.887 47.856 31.887 46.479 28.466 46.479 28.466 46.017 31.887 46.017 31.887 44.47 25.618 44.47 25.618 48.981"/>
  <path class="cls-2" d="M35.775,45.708h.924c.504,0,.742.114.742.398,0,.335-.143.505-.792.505h-.875v-.903ZM32.924,48.981h2.851v-1.453h.015l1.335,1.453h3.372l-1.959-1.864c.885-.057,1.754-.423,1.754-1.32,0-.853-.752-1.327-2.03-1.327h-5.338v4.511Z"/>
  <polygon class="cls-2" points="41.356 48.981 47.722 48.981 47.722 47.799 44.207 47.799 44.207 47.376 47.722 47.376 47.722 46.327 44.207 46.327 44.207 45.897 47.722 45.897 47.722 44.47 41.356 44.47 41.356 48.981"/>
  <rect class="cls-2" x="48.781" y="44.47" width="2.851" height="4.511"/>
  <polygon class="cls-2" points="54.266 48.981 57.117 48.981 57.117 46.245 58.791 46.245 58.791 44.47 52.593 44.47 52.593 46.245 54.266 46.245 54.266 48.981"/>
  <path class="cls-2" d="M63.539,47.167h-1.224l.592-1.649h.022l.609,1.649ZM58.872,48.981h2.905l.214-.575h1.887l.182.575h2.944l-1.816-4.511h-4.517l-1.799,4.511Z"/>
  <path class="cls-2" d="M74.355,46.687h-2.608v1.245h-.41c-.718,0-1.224-.278-1.224-.979,0-.846,1.01-.922,1.824-.922.72,0,1.627.044,2.33.133v-1.586c-1.192-.139-1.902-.24-3.19-.24-2.069,0-3.814.556-3.814,2.407,0,1.681,1.462,2.369,3.689,2.369,1.445,0,2.369-.126,3.404-.398v-2.028Z"/>
  <path class="cls-2" d="M77.233,45.239c0,.572-.43,1.028-1.008,1.028s-1.007-.452-1.007-1.025.43-1.028,1.007-1.028,1.008.452,1.008,1.025"/>
  <path class="cls-1" d="M77.046,45.239c0-.489-.327-.846-.821-.846s-.821.36-.821.849.327.846.821.846.821-.36.821-.849"/>
  <path class="cls-2" d="M76.457,45.334l.199.425h-.204l-.179-.394h-.209v.394h-.187v-1.07h.393c.204,0,.381.117.381.335,0,.14-.061.252-.194.31"/>
  <path class="cls-1" d="M76.27,45.192c.111,0,.184-.05.184-.168,0-.109-.084-.162-.184-.162h-.209v.33h.209Z"/>
  <path class="cls-1" d="M27.097,62.658c-.149.121-.345.205-.588.205-.266,0-.537-.098-.682-.322l-.037.266h-.504v-3.371h.584v1.12c.112-.135.346-.238.635-.238.247,0,.444.074.593.196.289.238.434.607.434,1.083,0,.457-.145.822-.434,1.06M26.784,61.001c-.084-.107-.21-.191-.392-.191-.458,0-.551.43-.551.78,0,.238.042.509.21.663.079.075.191.121.341.121.182,0,.308-.084.392-.191.121-.159.154-.383.154-.593s-.033-.43-.154-.588"/>
  <path class="cls-1" d="M29.063,63.223c-.121.317-.322.607-.747.607-.192,0-.322-.028-.448-.06v-.486c.154.028.196.042.327.042.107,0,.219-.037.28-.182l.14-.341-.957-2.423h.64l.635,1.755.607-1.755h.593l-1.069,2.843Z"/>
  <polygon class="cls-1" points="32.099 60.044 32.099 60.931 33.602 60.931 33.602 61.477 32.099 61.477 32.099 62.808 31.497 62.808 31.497 59.497 33.785 59.497 33.785 60.044 32.099 60.044"/>
  <path class="cls-1" d="M35.541,62.868c-.855,0-1.298-.541-1.298-1.331v-2.04h.602v2.031c0,.472.215.794.696.794s.695-.322.695-.794v-2.031h.602v2.04c0,.789-.443,1.331-1.298,1.331"/>
  <path class="cls-1" d="M38.221,62.873c-.313,0-.542-.103-.705-.271-.196-.201-.29-.471-.29-.831h.584c0,.163.018.331.121.443.066.07.168.121.29.121.271,0,.401-.177.401-.448v-2.39h.602v2.344c0,.626-.369,1.032-1.004,1.032"/>
  <rect class="cls-1" x="40" y="59.497" width=".611" height="3.31"/>
  <polygon class="cls-1" points="43.507 62.808 42.073 60.534 42.073 62.808 41.48 62.808 41.48 59.497 42.12 59.497 43.535 61.738 43.535 59.497 44.128 59.497 44.128 62.808 43.507 62.808"/>
  <polygon class="cls-1" points="47.172 60.058 47.172 62.807 46.57 62.807 46.57 60.058 45.59 60.058 45.59 59.497 48.152 59.497 48.152 60.058 47.172 60.058"/>
  <path class="cls-1" d="M50.553,62.807l-.551-1.251h-.733v1.251h-.607v-3.31h1.396c.789,0,1.149.495,1.149,1.027,0,.444-.243.794-.607.929l.607,1.354h-.654ZM50.058,60.025h-.794v.99h.803c.341,0,.537-.177.537-.49,0-.266-.205-.5-.546-.5"/>
  <polygon class="cls-1" points="51.833 62.808 51.833 59.497 54.19 59.497 54.19 60.044 52.435 60.044 52.435 60.814 53.98 60.814 53.98 61.356 52.435 61.356 52.435 62.261 54.19 62.261 54.19 62.808 51.833 62.808"/>
  <polygon class="cls-1" points="54.859 62.808 54.859 59.497 57.216 59.497 57.216 60.044 55.461 60.044 55.461 60.814 57.006 60.814 57.006 61.356 55.461 61.356 55.461 62.261 57.216 62.261 57.216 62.808 54.859 62.808"/>
  <path class="cls-1" d="M61.078,62.808l-.07-.364c-.098.191-.416.42-.831.425-.383.005-.723-.093-.985-.369-.345-.36-.43-.803-.43-1.345s.07-.971.43-1.331c.252-.252.63-.388.985-.388.406,0,.756.15.98.378.163.168.285.378.304.668h-.616c-.009-.131-.075-.22-.145-.304-.117-.135-.299-.201-.528-.201-.192,0-.411.084-.542.224-.229.238-.257.649-.257.953s.033.728.262.967c.13.14.345.21.537.21.215,0,.383-.075.495-.192.177-.187.215-.392.215-.644h-.789v-.5h1.373v1.812h-.387Z"/>
  <path class="cls-1" d="M64.132,62.807l-.551-1.251h-.733v1.251h-.607v-3.31h1.396c.789,0,1.149.495,1.149,1.027,0,.444-.243.794-.607.929l.607,1.354h-.654ZM63.637,60.025h-.794v.99h.803c.341,0,.537-.177.537-.49,0-.266-.205-.5-.546-.5"/>
  <path class="cls-1" d="M67.545,62.495c-.252.252-.598.374-.953.374s-.7-.121-.952-.374c-.36-.36-.42-.798-.42-1.34s.061-.985.42-1.345c.252-.252.598-.373.952-.373s.7.121.953.373c.36.36.42.803.42,1.345s-.06.98-.42,1.34M67.116,60.202c-.131-.14-.332-.219-.523-.219s-.392.08-.523.219c-.229.238-.238.649-.238.953s.009.71.238.948c.131.14.332.219.523.219s.392-.079.523-.219c.229-.238.238-.644.238-.948s-.009-.714-.238-.953"/>
  <path class="cls-1" d="M69.847,62.868c-.855,0-1.298-.541-1.298-1.331v-2.04h.602v2.031c0,.472.215.794.696.794s.695-.322.695-.794v-2.031h.602v2.04c0,.789-.443,1.331-1.298,1.331"/>
  <path class="cls-1" d="M73.219,61.622h-.7v1.186h-.598v-3.31h1.298c.761,0,1.167.425,1.167,1.06s-.406,1.064-1.167,1.064M73.195,60.025h-.677v1.069h.677c.402,0,.584-.215.584-.532s-.182-.537-.584-.537"/>
</svg>