<?xml version="1.0" encoding="UTF-8"?>
<svg id="_圖層_1" data-name="圖層_1" xmlns="http://www.w3.org/2000/svg" viewBox="0 0 100 100">
  <defs>
    <style>
      .cls-1 {
        fill: #231815;
      }

      .cls-2 {
        fill: #fff;
      }

      .cls-3 {
        fill: #ffc700;
      }
    </style>
  </defs>
  <g>
    <path class="cls-3" d="M52.806,38.065c1.162-1.085,1.845-2.662,1.729-4.37-.089-1.318-.639-2.496-1.481-3.387.067-.458.09-.928.058-1.406-.243-3.611-3.369-6.34-6.981-6.097-3.61.244-6.339,3.369-6.096,6.98,0,.013.004.027.005.04-4.025,1.387-6.794,5.329-6.494,9.782.268,3.966,2.896,7.209,6.419,8.459-.202.635-.39,1.207-.56,1.689-1.53,4.337-4.198,6.536-2.859,6.536,0,0,2.592,1.59,5.051,0,0,0,.913-3.324,1.847-7.684.133-.004.262.003.396-.008,5.327-.36,9.355-4.967,8.995-10.294-.006-.082-.02-.159-.028-.239Z"/>
    <path class="cls-3" d="M64.413,36.945c-.112-1.193-1.014-2.207-2.251-2.405-1.465-.233-2.843.767-3.076,2.233-.005.035-.007.069-.011.104-.158.106-.311.219-.454.343-1.529.282-2.787,1.494-3.045,3.117-.064.404-.06.802,0,1.185-.539.626-.921,1.403-1.06,2.279-.287,1.806.518,3.531,1.924,4.511-.355.977-.756,2.004-1.203,3.007-1.026,2.3-2.864,3.715-2.258,3.715,0,0,1.428,1.153,3.96,0,0,0,.837-2.744,1.591-5.929,2.45.294,4.716-1.394,5.108-3.854.01-.069.013-.137.022-.207,1.377-.634,2.423-1.922,2.679-3.532.289-1.823-.515-3.565-1.925-4.567Z"/>
  </g>
  <rect class="cls-2" x="44.852" y="63.117" width="1.362" height="6.01"/>
  <rect class="cls-2" x="48.253" y="63.117" width="1.362" height="6.01"/>
  <g>
    <g>
      <path class="cls-1" d="M44.516,75.91c-.009.106-.03.205-.066.296-.033.085-.081.161-.14.223-.061.063-.133.112-.215.146-.195.084-.496.065-.678-.029-.106-.056-.194-.131-.263-.226-.071-.096-.123-.211-.156-.343-.035-.136-.052-.284-.052-.437,0-.141.017-.278.052-.407.034-.124.086-.237.156-.333.069-.097.155-.169.261-.225.105-.055.234-.082.385-.082.179,0,.327.041.454.131.121.084.198.211.235.386l.021.102h.641l-.021-.148c-.023-.171-.076-.325-.156-.459-.08-.133-.18-.244-.298-.332-.117-.087-.253-.155-.403-.2-.366-.109-.798-.082-1.116.067-.19.088-.351.209-.477.362-.126.151-.223.329-.287.53-.064.198-.096.413-.096.637s.03.436.088.632c.061.201.154.377.275.525.124.151.281.27.467.356.185.085.402.128.645.128.405,0,.731-.114.97-.341.236-.225.377-.54.418-.936l.015-.144h-.651l-.009.121Z"/>
      <path class="cls-1" d="M47.845,73.975l-1.234,3.169h.675l.325-.876h1.05l.318.876h.709l-1.238-3.169h-.605ZM48.446,75.683h-.617l.311-.856.306.856Z"/>
      <polygon class="cls-1" points="51.284 77.144 51.93 77.144 51.93 75.811 53.267 75.811 53.267 75.226 51.93 75.226 51.93 74.56 53.454 74.56 53.454 73.975 51.284 73.975 51.284 77.144"/>
      <polygon class="cls-1" points="55.9 76.559 55.9 75.811 57.411 75.811 57.411 75.226 55.9 75.226 55.9 74.56 57.522 74.56 57.522 73.975 55.254 73.975 55.254 77.144 57.534 77.144 57.534 76.559 55.9 76.559"/>
    </g>
    <g>
      <polygon class="cls-1" points="25.13 63.114 25.13 69.192 26.592 69.192 26.592 66.872 28.668 66.872 28.668 65.655 26.592 65.655 26.592 64.323 29.01 64.323 29.01 63.114 25.13 63.114"/>
      <path class="cls-1" d="M33.884,66.487c0,1.033-.388,1.472-1.05,1.472-.67,0-.992-.413-.992-1.472v-3.373h-1.454v3.219c0,2.051.82,2.973,2.446,2.973s2.455-.922,2.455-2.973v-3.219h-1.405v3.373Z"/>
      <path class="cls-1" d="M38.485,67.018c0,.722-.461.941-.773.941s-.566-.278-.726-.549l-1.014.802c.39.676.97,1.106,1.918,1.106.975,0,2.058-.676,2.058-2.186v-4.019h-1.462v3.904Z"/>
      <rect class="cls-1" x="41.597" y="63.114" width="1.462" height="6.078"/>
      <path class="cls-1" d="M48.209,63.114v3.623l-1.953-3.623h-1.487v6.078h1.388v-3.683l1.953,3.683h1.487v-6.078h-1.389Z"/>
      <polygon class="cls-1" points="53.212 64.323 54.854 64.323 54.854 69.192 56.317 69.192 56.317 64.323 57.967 64.323 57.967 63.114 53.212 63.114 53.212 64.323"/>
      <path class="cls-1" d="M63.911,65.025c0-1.469-1.079-1.911-2.377-1.911h-2.229v6.078h1.461v-2.14h.703l1.119,2.14h1.634l-1.356-2.409c.629-.295,1.045-.867,1.045-1.757ZM61.419,65.899h-.654v-1.633h.654c.695,0,1.063.188,1.063.759s-.368.874-1.063.874Z"/>
      <polygon class="cls-1" points="66.923 66.677 68.958 66.677 68.958 65.45 66.923 65.45 66.923 64.323 69.317 64.323 69.317 63.114 65.462 63.114 65.462 69.192 69.406 69.192 69.406 67.966 66.923 67.966 66.923 66.677"/>
      <polygon class="cls-1" points="72.386 67.966 72.386 66.677 74.42 66.677 74.42 65.45 72.386 65.45 72.386 64.323 74.779 64.323 74.779 63.114 70.923 63.114 70.923 69.192 74.87 69.192 74.87 67.966 72.386 67.966"/>
    </g>
  </g>
</svg>