<?xml version="1.0" encoding="UTF-8"?>
<svg id="_圖層_1" data-name="圖層_1" xmlns="http://www.w3.org/2000/svg" viewBox="0 0 100 100">
  <defs>
    <style>
      .cls-1 {
        fill: #266f4f;
      }

      .cls-2 {
        fill: #bf062f;
      }
    </style>
  </defs>
  <g>
    <path class="cls-2" d="M31.212,54.273c-.107-.159-.52-.136-.996-.136s-1.76-.544-2.269-.975c-.115-.098-.23-.25-.339-.421.653.01,1.226.025,1.414.046.485.054.276-.556.179-.852-.098-.296-.876-.06-1.519.003-.109.011-.28.02-.483.027-.162-.36-.27-.656-.27-.656h-.113c.449-.01,1.022-.013,1.431-.135.436-.131.478-.5.682-.819.101-.157.236-.457.212-.701-.01-.1-.047-.192-.125-.259-.301-.263-1.334-.178-1.705-.188-1.731-.044-2.433.104-2.714.123-.281.02-.275-.123-.561-.123s-.696.449-.696.449c-.017.056-.013.132-.009.208l-.008-.009s.005.023.007.031c.013.169.065.379.132.604.135.66.321,1.708.332,2.534.017,1.304-.33,2.087.122,2.331.452.245,1.32-.245,1.754-.457.434-.212.816-.326.504-1.043-.313-.717-.851-.554-1.094-.163-.243.391-.452.538-.556.163-.047-.168-.004-.634.053-1.121.162-.004.361-.008.534-.011.125-.002.576-.001,1.129.003.111.162.236.324.397.481.336.327.638.675.963,1.01.102.105.208.209.331.297.207.149.391.342.609.477.175.108.4.141.617.148.636.02,1.132.017,1.655-.322.455-.295.508-.385.401-.544ZM24.586,50.084s1.814-.129,2.453-.129c.77,0,.979.142.979.142l-.2.386s-.866-.026-1.587-.016c-.686.009-1.321.133-1.561.122,0,0-.279-.239-.084-.505ZM24.665,52.008c.039-.309.068-.565.058-.653l-.046-.049c.288.002.655.006,1.024.009,0,.017.022.296.16.681-.47.007-.913.011-1.196.013Z"/>
    <path class="cls-2" d="M75.574,53.936c-.504.033-1.005.113-1.509.14-.339.018-.674.023-1.009.031.036-.29.053-.696.062-1.096.121.006.241.003.362.014.481.047.987.26,1.499.07.492-.182.339-.617.366-.842.028-.225-.191-.146-.721-.024-.505.117-.948-.029-1.497-.06,0-.141,0-.266,0-.35,0-.273-.009-.556-.007-.838.274.027.541.081.819.088,1.006.025,1.127.031,1.262-.411.033-.109.089-.34.041-.45-.02-.047-.063-.074-.111-.094-.112-.046-.282-.061-.393-.006-.131.064-.304.097-.304.097-.377.079-.713.075-1.247.025.024-.103.053-.205.092-.304.072-.183.201-.371.09-.569-.132-.237-.435-.38-.435-.38,0,0-.276-.141-.615.018-.339.16-.464.19-.383.382.073.174.138.397.129.738-.57-.041-.994.004-1.236.048.013-.055.025-.109.038-.164.067-.296.013-.616-.236-.592,0,0-.345-.042-.464.237-.119.279-.043.796-.376,1.08-.333.284-.443.367-.626.456-.183.089-.3.435.014.647.241.162.548.161.81.051.302-.127.457-.347.547-.648.016-.053.025-.087.039-.135.021-.001.035.001.059-.002.348-.041.864-.088,1.446-.113.017.235.038.481.045.727.003.124,0,.281-.009.453-.112,0-.213,0-.296-.008,0,0-.412-.021-1.105.076-.17.024-.558.066-.679.274-.091.157-.054.396.054.528.174.213.531.156.821.136.276-.019.558-.121.835-.138.099-.006.198-.007.297-.012-.041.348-.095.687-.159.937-.023.09-.027.166-.017.232-.486.049-1.189.116-1.558.076-.465-.051-.797.035-.797.035-.181.047-.55.6-.424.816.011.018.029.028.046.037.468.223,1.591.003,2.077-.025,1.115-.063,1.402-.076,2.601-.015,1.2.061,1.749.235,1.894.257.145.022.255-.011.502-.207.247-.196.242-.448.387-.795.145-.348.235-.508-1.023-.425Z"/>
  </g>
  <g>
    <path class="cls-2" d="M31.978,33.215c-.047,0-.105.029-.269.192-.125.126-.24.243-.346.352-.089.093-.176.183-.257.271-.066-.076-.122-.144-.171-.203-.059-.07-.11-.135-.156-.196-.045-.06-.086-.118-.123-.174l-.115-.177c-.092-.149-.213-.218-.355-.202-.136.015-.272.097-.416.252-.142.154-.334.38-.572.672-.244.299-.544.688-.918,1.19-.117.163-.151.291-.103.39.044.09.136.165.273.223.059.026.119.051.187.079.061.026.129.057.203.092.075.037.158.079.25.126.079.041.17.088.273.142,0,0-.001.001-.002.002-.126.209-.205.331-.248.396-.054.081-.103.146-.146.193-.07.079-.108.176-.111.289-.003.12.053.215.162.274.061.034.114.047.161.047.063,0,.113-.024.15-.05.083-.06.15-.19.207-.395.034-.129.082-.268.144-.414.063-.148.133-.295.206-.437.073-.143.151-.278.23-.402.08-.126.153-.229.217-.308.117-.146.232-.281.343-.403.109-.121.221-.232.332-.331.114-.101.232-.194.351-.277.118-.082.247-.165.383-.246.098-.052.175-.099.234-.143.065-.047.113-.098.143-.153.031-.056.046-.119.044-.185,0-.062-.011-.137-.032-.23-.046-.184-.087-.253-.152-.257ZM29.742,33.879c.01-.011.019-.022.028-.031.019-.019.036-.039.048-.054.078-.078.15-.122.208-.129.038-.004.113.013.245.12.089.072.186.158.289.255.091.087.181.18.266.278-.055.057-.107.116-.157.174h0c-.046.055-.092.108-.138.16-.133-.113-.244-.209-.333-.289-.098-.087-.178-.162-.24-.224-.063-.063-.11-.115-.144-.159-.026-.034-.05-.067-.072-.101ZM29.787,35.586c-.076.102-.15.211-.225.332-.172-.112-.308-.202-.409-.27-.111-.074-.205-.136-.283-.187-.097-.064-.126-.1-.135-.117-.005-.01-.014-.041.018-.12.031-.069.075-.148.133-.242.085.05.16.094.224.133.075.046.148.092.218.141.071.048.145.101.224.158.067.049.145.107.234.173ZM30.273,34.945l-.131.164c-.04.05-.079.1-.115.15-.098-.074-.212-.165-.344-.271-.143-.115-.313-.257-.506-.423.035-.048.07-.093.104-.136l.111-.137c.145.092.29.19.432.293.14.102.291.223.451.36Z"/>
    <path class="cls-2" d="M27.257,35.684h-.001c-.09.046-.187.101-.298.168-.106.064-.212.13-.321.198-.081.05-.137.11-.168.179-.032.071-.035.162-.008.271.026.097.073.228.177.249.009.002.018.003.027.003.064,0,.131-.045.203-.138.058-.08.144-.184.255-.311.111-.127.223-.253.333-.375.122-.125.083-.204.05-.239-.053-.058-.137-.059-.25-.005Z"/>
    <path class="cls-2" d="M28.137,34.785c.015,0,.03-.002.043-.007.06-.02.12-.085.194-.21.089-.147.199-.312.336-.506.134-.188.314-.415.536-.676.06-.074.104-.141.131-.199.029-.063.036-.125.022-.187-.014-.058-.048-.116-.104-.178-.051-.057-.12-.122-.203-.196-.088-.076-.162-.144-.22-.203-.054-.054-.098-.105-.133-.15-.032-.042-.055-.081-.068-.114-.016-.041-.026-.073-.031-.103-.018-.099-.061-.169-.127-.208-.075-.044-.178-.044-.306,0-.065.022-.152.082-.266.184-.111.1-.234.222-.365.364-.142.153-.288.318-.436.491-.155.181-.313.372-.47.566-.093.115-.137.222-.131.32.007.104.09.195.254.279.07.039.155.084.254.138.1.054.202.109.307.167.105.057.206.116.304.174.098.058.182.11.251.153.096.067.17.099.229.099ZM27.989,33.953c.026-.081.035-.173.027-.275l-.002-.023c-.004-.042-.008-.082-.01-.12-.002-.027-.004-.053-.004-.077.074-.024.222-.054.516-.079.114-.01.191-.041.236-.095.032-.039.045-.088.039-.144-.007-.073-.057-.131-.147-.174-.086-.04-.2-.037-.349.008-.162.052-.283.086-.363.1-.022-.059-.05-.112-.086-.161-.035-.048-.08-.107-.135-.177.064-.068.151-.155.255-.255h.001c.054-.056.102-.084.146-.084.015.003.082.013.233.149l.541.498c.058.059.062.084.063.084,0,.002-.003.029-.067.109-.023.029-.05.063-.083.103l-.067.083c-.063.078-.128.161-.196.25-.068.088-.136.174-.205.259l-.168.21c-.081.11-.109.126-.111.127,0,0-.019.004-.075-.029-.024-.015-.048-.028-.081-.047l-.02-.011c.056-.087.094-.162.115-.229ZM27.532,33.962c-.053-.035-.099-.068-.139-.099-.053-.04-.102-.081-.146-.122-.106-.092-.128-.145-.132-.168-.005-.027.003-.08.067-.175h0c.059-.088.113-.166.161-.234.036-.05.074-.099.116-.147.206.207.23.517.073.945Z"/>
    <path class="cls-2" d="M26.752,34.782c.003-.03-.007-.058-.028-.082-.049-.053-.137-.058-.288-.018-.039.011-.087.027-.146.046-.058.02-.117.041-.177.064-.061.023-.12.046-.177.069-.059.023-.107.044-.143.06-.084.036-.146.086-.184.151-.04.068-.044.161-.011.285.036.127.091.205.166.239.02.009.039.013.059.013.069,0,.141-.053.215-.159.045-.065.187-.21.612-.529.065-.049.098-.094.102-.14Z"/>
    <path class="cls-2" d="M28.33,36.07c-.035-.017-.071-.017-.106-.001-.035.017-.058.049-.069.098-.033.161-.065.299-.097.423-.035.135-.062.242-.083.319-.019.066-.037.121-.054.163-.017.042-.051.109-.105.206-.035.07-.046.142-.033.214.015.075.075.148.185.223.108.075.198.111.276.111.009,0,.017,0,.026-.001.07-.007.153-.057.148-.252-.003-.091-.004-.181-.002-.271v-.023c.002-.084.004-.171.006-.262l.002-.088c.002-.076.004-.157.006-.244.003-.123.005-.262.005-.419,0-.045-.011-.085-.03-.12-.019-.036-.044-.062-.075-.078Z"/>
    <path class="cls-2" d="M34.089,29.286h-.001c-.048.04-.089.068-.119.084-.032.017-.063.031-.096.042-.05.021-.093.055-.127.103-.033.046-.062.114-.084.204-.024.104-.023.169,0,.21.017.029.051.061.123.061.009,0,.018,0,.027-.001.05-.007.099-.028.144-.063.043-.034.077-.076.102-.127.011-.023.027-.048.049-.074.016-.02.049-.056.117-.112.056-.048.129-.106.218-.176.089-.07.204-.157.346-.261.196-.147.355-.26.485-.344.127-.083.235-.141.322-.174.107-.043.179-.088.219-.136.042-.05.066-.115.072-.191.007-.087-.015-.148-.064-.181-.079-.053-.184.021-.218.044-.174.115-.388.264-.653.456-.259.188-.547.4-.863.637Z"/>
    <path class="cls-2" d="M37.273,29.477c-.019-.013-.043-.017-.066-.009-.033.011-.067.038-.109.091-.009.013-.026.029-.051.047l-.028.019c-.026.018-.059.041-.099.068-.018.013-.054.037-.107.071-.055.035-.12.075-.194.122-.072.045-.149.093-.243.151l-.193.121c-.028-.089-.041-.165-.038-.236-.004-.027-.017-.062-.039-.106-.016-.032-.039-.07-.07-.113.076-.049.121-.091.14-.132.022-.051.024-.102.005-.151-.013-.035-.03-.09-.053-.166-.021-.07-.035-.138-.044-.209-.014-.118-.056-.195-.126-.229-.065-.031-.162-.023-.296.025-.039.015-.105.048-.199.102-.091.052-.198.119-.318.2-.12.08-.25.17-.391.27-.146.104-.284.211-.412.316-.096.079-.151.145-.17.204-.02.062-.008.136.037.22.024.043.057.093.1.151.04.055.088.113.143.176.081.098.157.141.235.139.07-.004.151-.044.245-.121.003-.002.007-.005.011-.008.058.064.113.122.164.176.047.05.099.101.158.155l-.187.146c-.05.039-.096.075-.137.108-.052.042-.096.076-.13.103-.034.026-.055.042-.066.05l-.011.009c-.024.026-.047.044-.072.054-.03.013-.058.024-.086.031-.038.012-.076.039-.116.083-.037.043-.069.109-.097.203-.04.136-.039.224.005.277.033.038.079.058.138.058.02,0,.042-.002.065-.007.076-.013.14-.043.188-.087.047-.042.085-.095.113-.161.032-.078.132-.196.296-.351.168-.158.399-.351.687-.573.1-.075.188-.139.266-.193.076-.053.15-.098.219-.135.07-.037.141-.07.212-.098.07-.027.151-.053.239-.076.145-.036.244-.069.301-.102.059-.035.104-.08.135-.137.034-.071.059-.147.076-.228.016-.081.023-.142.019-.183-.004-.074-.018-.115-.048-.136ZM35.768,29.509s-.006.03-.073.076l-.142.099c-.072.05-.151.103-.236.159-.086.056-.166.111-.243.164l-.154.107c-.109.075-.148.077-.154.076,0,0-.033-.005-.11-.115-.063-.082-.066-.109-.067-.109t0,0s.008-.029.069-.084c.023-.021.072-.06.146-.117.075-.058.156-.118.244-.182.088-.064.172-.123.252-.178.08-.056.138-.095.169-.117.053-.033.099-.044.135-.034.037.01.07.043.101.101.064.112.064.148.064.154h0ZM35.476,30.079l.029-.02c.05-.035.101-.07.15-.105.004.006.007.011.011.017.009.014.012.02.013.018.002.044.022.104.098.146.015.009.056.048.123.215l-.133.092c-.039.032-.082.065-.132.1-.037.025-.073.052-.109.08l-.029-.041c-.017-.025-.018-.034-.019-.039-.005-.052-.037-.106-.098-.165l-.014-.01s-.028-.023-.096-.133c.073-.059.14-.109.205-.154Z"/>
    <path class="cls-2" d="M33.851,31.362c-.132-.154-.256-.308-.367-.457-.106-.141-.208-.282-.302-.418-.086-.124-.143-.213-.167-.263-.06-.146-.132-.219-.23-.217-.08.002-.176.047-.292.14-.114.09-.229.177-.343.259-.134.097-.199.134-.232.149-.097.049-.172.116-.222.202-.027.048-.036.095-.027.141.008.047.048.102.127.178.085.083.163.175.231.275.07.101.146.218.232.36.121.197.194.403.217.612.024.208,0,.423-.066.635-.029.071-.027.143.005.215.035.077.096.121.179.126.002,0,.003,0,.005,0,.05,0,.1-.017.154-.051.056-.035.096-.089.12-.157.092-.214.091-.495-.003-.836.003,0,.006,0,.009,0,.037-.003.073-.022.115-.059.037-.033.079-.091.127-.179.074-.135.136-.257.184-.363.033-.072.064-.149.094-.23.048.068.099.138.153.21.078.105.166.219.264.344.052.067.102.125.154.179.06.063.11.099.149.113.089.046.156.022.195-.006.056-.038.085-.092.082-.149.011-.126-.05-.25-.18-.365-.109-.103-.229-.23-.365-.387ZM32.985,30.92c-.1.018-.193.035-.279.049-.082.014-.15.02-.201.02-.085-.004-.147.003-.192.022-.017.008-.035.02-.051.041l-.084-.121c-.041-.059-.045-.081-.046-.081h0s.013-.026.077-.084c.044-.041.104-.088.177-.139.07-.048.143-.093.215-.133.076-.039.101-.038.1-.038.001,0,.025.01.076.085l.257.371c-.015,0-.032.003-.051.007ZM32.582,31.405c.15-.057.255-.104.319-.143.065-.039.12-.069.17-.092.045-.024.074-.048.092-.072l.054.079c-.067.117-.138.222-.209.313-.076.099-.173.212-.287.339-.023-.054-.052-.114-.087-.177-.036-.065-.077-.137-.123-.215.022-.008.045-.018.071-.031Z"/>
    <path class="cls-2" d="M33.066,28.741l.393.463c.081.099.156.147.228.147.006,0,.012,0,.018-.001.073-.008.149-.058.232-.154.011-.013.047-.05.166-.146.093-.076.198-.159.316-.249.118-.09.238-.179.363-.268.122-.087.226-.155.31-.203.124-.073.2-.149.233-.232.035-.087.018-.192-.051-.319-.092-.173-.164-.313-.217-.422-.065-.134-.087-.186-.093-.206-.016-.049-.035-.093-.057-.134-.024-.044-.065-.09-.126-.142-.064-.052-.139-.076-.227-.069-.085.006-.182.056-.297.155-.023.021-.056.049-.101.082-.034.025-.076.054-.127.087l-.061-.111c-.034-.07-.081-.119-.14-.147-.078-.037-.135-.023-.168-.006-.045.023-.074.063-.085.121-.009.052.008.117.049.194.014.034.04.082.08.149-.032.02-.066.044-.104.072-.042.031-.087.064-.138.1-.003-.004-.007-.009-.011-.013-.012-.014-.022-.025-.031-.039-.045-.056-.094-.098-.144-.123-.079-.038-.135-.019-.168.005-.026.018-.067.062-.05.151.01.053.034.106.07.157l.049.071c-.039.03-.076.059-.111.086-.047.036-.09.067-.13.095-.124.098-.196.187-.222.275-.027.095.015.201.124.311.044.048.12.135.227.262ZM34.092,28.169l.1-.069c.032.047.064.095.097.145.035.054.071.109.108.163-.032.025-.065.049-.097.072-.032.022-.063.044-.092.067l-.213-.307c.033-.025.065-.049.097-.072ZM34.483,27.902c.052-.032.103-.064.154-.098.048-.032.096-.062.144-.091.043.074.073.127.092.161.048.09.044.115.044.117,0,.001-.008.028-.1.099-.01.01-.031.029-.071.056-.024.016-.05.035-.078.057-.034-.055-.067-.108-.098-.159l-.031-.052c-.019-.031-.037-.061-.055-.091ZM34.644,27.463l-.301.208c-.031-.056-.062-.107-.092-.153-.029-.044-.055-.088-.078-.132.008-.005.017-.01.025-.015h0c.025-.015.05-.031.069-.044.07-.038.134-.06.19-.064.028-.002.066.002.099.055.013.028.031.058.054.092.011.016.023.033.034.052ZM33.142,28.204s.005-.035.09-.108h.001c.027-.025.056-.05.088-.075.016-.012.031-.025.046-.037.025.035.052.072.081.111.033.044.067.09.103.137-.04.032-.083.064-.126.096-.047.035-.096.072-.147.111-.013-.016-.025-.032-.035-.047l-.051-.074c-.046-.066-.052-.1-.051-.113ZM33.836,28.023l-.103-.148c-.03-.044-.059-.084-.087-.12.036-.029.074-.057.111-.085.037-.027.073-.054.11-.08.051.086.112.182.181.287l-.212.147ZM33.573,28.558c.047-.034.095-.071.145-.11.037.047.072.095.108.143.036.05.075.101.116.154l-.077.054c-.088.061-.14.075-.169.077-.04,0-.073-.023-.116-.073-.024-.027-.049-.057-.075-.091-.016-.021-.032-.041-.048-.06.037-.032.075-.063.116-.093Z"/>
    <path class="cls-2" d="M30.969,29.952h0c.083.101.185.231.31.397-.023.018-.044.034-.065.048l-.087.061c-.069.054-.113.103-.135.15-.025.054-.013.125.037.218.053.092.102.183.149.27.047.088.082.157.108.21.077.139.156.18.223.18.029,0,.056-.008.08-.019.062-.029.102-.069.118-.119.017-.053.006-.113-.033-.18-.028-.047-.058-.103-.091-.166-.033-.064-.067-.134-.104-.213-.044-.082-.041-.115-.037-.127.003-.01.021-.049.133-.141.07-.053.161-.123.275-.207.113-.084.229-.167.349-.25.12-.083.232-.159.335-.228.103-.068.178-.117.225-.144.111-.062.143-.066.147-.066,0-.001.022-.001.078.051.031.029.065.062.104.103.039.04.084.089.133.145.113.15.234.115.296.081.054-.03.085-.08.086-.143.001-.057-.021-.113-.065-.167-.03-.035-.072-.086-.126-.152-.055-.066-.111-.138-.172-.217-.073-.088-.132-.132-.186-.139-.05-.007-.114.012-.199.057-.028.014-.066.037-.111.068-.031.021-.066.044-.105.068-.041-.066-.076-.125-.105-.177l-.104-.186c-.032-.059-.063-.117-.092-.175-.029-.058-.061-.125-.098-.203-.081-.163-.158-.246-.243-.262-.079-.015-.18.016-.308.092-.05.028-.117.07-.201.126-.084.055-.171.114-.26.176l-.491.34c-.098.075-.153.148-.168.224-.017.082.019.172.11.274.102.114.198.228.291.341ZM31.921,29.352c.024-.016.052-.038.086-.064.03-.024.07-.05.123-.081.004-.001.008-.003.012-.005.032.051.066.105.104.163.04.062.083.128.126.197l-.152.106c-.06.041-.123.087-.187.136-.055-.085-.121-.179-.197-.281-.035-.044-.033-.061-.034-.061.003-.007.022-.036.118-.11ZM31.884,28.978c-.074.063-.13.108-.169.138-.036.028-.081.058-.136.09-.111.066-.17.137-.18.217-.009.068.02.135.084.201.056.058.106.118.15.181l.136.196c-.035.027-.072.052-.108.076-.039.025-.077.051-.115.08-.093-.121-.175-.231-.246-.329-.082-.114-.15-.219-.209-.32-.05-.081-.053-.123-.05-.14.006-.034.027-.066.063-.1h0c.189-.187.398-.334.622-.44.038-.019.072-.028.101-.028.007,0,.013,0,.019.002.017.003.054.021.111.103l.015.022c-.027.014-.056.031-.087.053Z"/>
    <path class="cls-2" d="M42.343,26.187c-.379.109-.753.217-1.12.326-.349.103-.721.217-1.136.347-.053-.158-.105-.317-.157-.475-.05-.158-.1-.312-.146-.463.167-.052.334-.101.499-.148.182-.052.359-.099.527-.141.07-.014.127-.028.17-.042.045-.015.079-.031.105-.049.032-.022.054-.049.064-.081.007-.022.012-.051.016-.095.004-.075-.038-.132-.113-.156-.062-.02-.166-.014-.328.018-.093.022-.233.062-.439.126-.18.056-.38.123-.612.205-.027-.089-.052-.173-.075-.25-.029-.093-.054-.176-.074-.253-.025-.086-.046-.159-.067-.219-.023-.067-.043-.116-.064-.154-.023-.042-.049-.078-.079-.108-.03-.029-.064-.057-.103-.083-.062-.044-.12-.066-.173-.063-.031.001-.107.016-.134.125-.017.062-.013.153.011.278.021.117.068.273.141.475.02.057.043.126.073.204.024.064.049.137.076.217-.165.064-.332.128-.502.192-.187.07-.371.141-.555.212-.131.056-.166.048-.168.049,0,0-.023-.017-.036-.121-.009-.074-.04-.156-.094-.244-.056-.093-.133-.155-.228-.185-.034-.011-.136-.044-.193.013-.055.055-.024.147-.014.177.02.06.036.139.047.233.011.1.02.215.025.343.005.155.046.29.121.403.051.074.125.105.217.091.086-.014.155-.06.206-.136.039-.058.101-.122.184-.189.085-.068.198-.134.337-.195.106-.045.23-.096.369-.15.131-.051.266-.099.4-.145l.149.444c.053.157.106.322.16.493-.199.072-.411.152-.635.238-.245.095-.508.202-.782.319-.2.086-.351.143-.448.169-.117.031-.174.037-.199.037-.108-.001-.199.032-.261.104-.06.069-.094.175-.103.325-.01.194.045.307.163.337h0c.108.027.259-.045.473-.224.069-.056.156-.117.264-.186.105-.066.235-.138.388-.214.159-.078.345-.163.554-.252.2-.085.43-.177.703-.279.041.136.081.269.118.402.044.151.082.292.117.422.099.383.19.635.28.773.087.133.17.173.238.173.033,0,.062-.009.087-.022.047-.023.082-.066.103-.128.019-.056.022-.133.009-.233-.011-.093-.036-.209-.077-.354-.041-.142-.098-.316-.172-.52-.038-.099-.079-.211-.124-.335-.038-.109-.079-.223-.12-.344.312-.107.632-.198.952-.269.333-.074.66-.112.972-.112.072,0,.142-.004.2-.012.059-.009.113-.029.159-.058.049-.031.088-.075.118-.131.028-.052.051-.124.072-.221.025-.126.015-.2-.03-.24-.046-.04-.136-.038-.31.009Z"/>
    <path class="cls-2" d="M44.044,26.683c.027.023.06.052.098.084.043.037.083.074.12.11h0c.038.036.072.069.103.098.03.029.053.052.069.069.049.051.09.067.121.067.028,0,.048-.012.062-.024.059-.051.031-.148.007-.208-.007-.029-.02-.066-.04-.111l-.057-.13c-.021-.049-.045-.097-.071-.145-.026-.048-.05-.09-.074-.127-.039-.058-.082-.096-.131-.114-.051-.018-.117-.009-.205.027-.103.048-.127.123-.129.177-.002.074.036.147.116.217l.012.01Z"/>
    <path class="cls-2" d="M48.297,25.851c-.088-.04-.198-.042-.329-.005h-.001c-.021.007-.053.012-.094.019-.046.006-.097.012-.153.017-.057.005-.116.008-.177.009-.061.001-.119,0-.176-.004-.161-.006-.269.035-.319.123-.046.084-.051.179-.014.282.009.028.024.088.046.213.019.105.039.215.058.33.022.12.073.198.152.233.034.015.07.023.107.023.044,0,.09-.011.137-.033.053-.022.125-.042.214-.059.088-.017.199-.024.329-.023.125,0,.213-.032.27-.096.054-.062.078-.168.075-.325-.01-.17-.01-.309.002-.424.019-.174-.058-.248-.126-.279ZM47.979,26.613l-.043-.036s-.028.029-.179.049c-.068.006-.122.01-.164.012-.039.001-.055-.007-.061-.012-.012-.008-.021-.025-.028-.05-.009-.029-.016-.076-.023-.149-.018-.137.005-.177.012-.186.008-.009.044-.04.198-.054.038-.005.069-.007.095-.007.058,0,.09.01.109.021.014.008.048.042.056.19.008.157-.014.186-.016.187l.043.036Z"/>
    <path class="cls-2" d="M45.918,27.053c-.043-.024-.114-.032-.234-.027-.051.005-.126.013-.226.024-.084.01-.18.023-.288.04-.01-.196-.024-.399-.041-.606-.018-.216-.036-.426-.054-.63.157-.013.312-.02.46-.021.135,0,.218-.034.256-.101.036-.066.028-.138-.021-.203-.033-.044-.081-.076-.142-.096-.06-.019-.133-.022-.226-.009-.082.012-.156.023-.223.031-.046.006-.092.011-.137.016-.007-.112-.015-.215-.023-.307l-.02-.225.131-.012c.059-.005.118-.009.177-.009.146-.003.236-.022.285-.06.036-.029.077-.085.067-.19-.004-.037-.021-.069-.05-.092-.058-.046-.163-.057-.328-.034-.168.025-.321.041-.455.049-.137.008-.246.009-.33.003-.089-.008-.152-.008-.195,0,.103-.143.201-.295.29-.459.086-.156.157-.302.213-.436.145.106.268.209.366.307.11.11.219.234.324.368.081.097.154.152.221.168.107.026.159-.029.182-.066.085-.151.033-.327-.158-.523-.085-.08-.199-.171-.348-.28-.131-.096-.287-.198-.475-.311.007-.032.008-.068.005-.11-.023-.156-.108-.174-.159-.178-.059,0-.136.033-.168.189-.014.081-.046.176-.095.283-.048.107-.114.221-.197.341-.081.118-.179.239-.293.36-.11.118-.238.231-.379.335-.07.05-.118.101-.147.157-.031.059-.045.115-.039.167.005.057.03.104.075.142.038.032.085.048.139.048.009,0,.018,0,.027-.001.085-.008.172-.045.267-.113.031-.022.063-.05.095-.082.005.033.02.06.034.077.058.071.169.085.337.043.036-.008.074-.015.117-.021.025-.004.05-.008.076-.012l.048.527-.062.006c-.039.004-.078.005-.125.004l-.198.018c-.056.005-.104.012-.144.021-.044.009-.085.023-.122.043-.038.02-.078.046-.117.078-.059.045-.093.091-.105.141-.012.051-.003.099.025.139.027.038.074.064.138.076.059.011.129.005.209-.018.099-.027.196-.051.293-.072.085-.017.165-.032.244-.043.021.24.041.463.058.668.016.194.034.387.054.572-.089.016-.18.032-.274.048-.113.02-.236.042-.369.069-.144.029-.238.077-.289.147-.051.07-.066.156-.046.254.026.125.095.167.148.18.014.003.029.005.046.005.065,0,.15-.027.256-.082.164-.083.368-.155.607-.213.24-.059.502-.097.778-.113.118-.006.199-.025.246-.058.052-.037.079-.093.079-.159.007-.104-.034-.151-.071-.171Z"/>
    <path class="cls-2" d="M49.213,26.473c-.03-.142-.059-.319-.086-.526-.013-.088-.02-.165-.021-.236-.002-.071.003-.135.014-.188.019-.077.023-.138.01-.187-.013-.047-.043-.096-.088-.149-.047-.06-.102-.094-.164-.1-.055-.006-.107-.001-.155.014-.04.012-.081.022-.122.029-.008-.129-.015-.249-.021-.362l-.04-.745c-.007-.129-.014-.274-.019-.437-.008-.197-.065-.326-.172-.384-.1-.054-.242-.074-.434-.061-.213.015-.401.029-.566.041-.156.012-.315.021-.488.028-.215.009-.345.047-.407.119-.063.072-.08.192-.054.368.043.266.08.537.112.804.028.239.056.502.084.805-.033,0-.066-.003-.102-.008-.169-.013-.235.066-.261.136-.032.086-.032.194,0,.329.016.074.029.156.04.252.011.094.02.183.028.265.008.087.012.173.01.254-.002.075-.013.147-.03.214-.017.069-.042.139-.077.214-.035.075-.081.156-.134.24-.105.163-.12.226-.12.263-.001.059.033.121.099.18.065.066.131.084.181.084.01,0,.02,0,.029-.002h0c.076-.01.145-.066.212-.171.096-.158.164-.357.2-.59.035-.23.04-.51.016-.833-.01-.107-.012-.195-.008-.262.004-.057.021-.103.051-.137.031-.035.08-.063.144-.083.07-.022.17-.044.297-.064.308-.047.545-.078.725-.094.178-.017.312-.022.399-.016.091.004.166.018.223.04.052.021.09.051.116.094.029.047.051.112.065.193.014.083.025.193.034.335.004.141.011.272.021.39.01.11.021.206.034.29.011.08.027.155.046.224.018.063.036.119.056.172.054.134.124.212.207.231.083.02.16-.004.224-.074.054-.071.079-.145.075-.221-.004-.068-.028-.164-.074-.293-.043-.119-.079-.247-.107-.381ZM47.169,24.621c.011.031.02.078.028.139.007.064.015.131.022.199.006.069.012.134.018.194l.007.076c-.045.005-.088.01-.13.015-.037.005-.072.01-.105.016-.012-.092-.023-.177-.032-.255-.011-.094-.021-.191-.03-.293l-.085-.932c-.004-.039,0-.073.009-.101h0c.008-.025.027-.045.055-.063.034-.021.089-.039.163-.055.163-.028.292-.047.385-.056.079-.007.164-.011.253-.011h.016c.084.001.151.008.199.021.041.011.072.028.093.051.022.026.039.065.048.113.012.055.022.125.031.219.009.049.016.102.021.161l.011.12c-.04.006-.083.012-.129.018-.066.008-.132.016-.199.022-.066.006-.126.01-.181.013-.057.003-.099.005-.123.008-.118,0-.212.036-.28.106-.071.072-.094.166-.066.276ZM47.581,24.628c.007-.005.037-.021.16-.038.078-.012.161-.022.253-.03.069-.006.132-.011.189-.013.011.09.021.184.031.282.009.099.021.206.035.321-.063,0-.145.004-.243.012-.119.009-.245.019-.379.031,0-.064-.005-.134-.011-.211-.009-.105-.021-.2-.033-.284-.009-.055,0-.069,0-.07Z"/>
    <path class="cls-2" d="M45.742,26.058c-.097-.046-.169-.019-.213.012-.06.042-.1.135-.123.284-.006.034-.016.094-.029.182l-.04.277c-.028.151.023.194.071.203.007.001.013.002.019.002.078,0,.132-.091.153-.128.01-.022.048-.088.096-.172.052-.09.108-.179.163-.261.055-.072.078-.145.068-.218-.01-.079-.067-.14-.167-.181Z"/>
    <path class="cls-2" d="M55.545,24.882c-.161-.135-.394-.268-.694-.396-.102-.042-.188-.081-.258-.115-.069-.034-.127-.065-.172-.092-.04-.024-.072-.048-.094-.073-.015-.016-.028-.035-.038-.057.054-.089.08-.178.076-.265-.004-.104-.04-.176-.106-.215-.07-.039-.127-.029-.162-.013-.03.014-.078.048-.179.192-.065.092-.121.164-.171.219-.049.054-.114.108-.194.159-.081.052-.189.112-.323.178-.131.065-.311.149-.539.254.009-.019.014-.037.015-.05.005-.045-.008-.126-.149-.165-.052-.015-.122-.028-.215-.039-.078-.009-.176-.017-.292-.021.023-.22.051-.431.085-.626.036-.211.078-.372.123-.477.037-.081.035-.171-.005-.269-.04-.098-.116-.166-.228-.205-.083-.025-.152-.021-.204.014-.054.036-.085.101-.094.194-.006.06-.013.142-.02.244-.008.102-.017.262-.029.481-.005.096-.013.201-.024.313l-.031.313c-.115.001-.249,0-.402-.002-.065,0-.107-.012-.116-.034-.01-.025-.018-.075.002-.173.016-.075.031-.169.046-.288.013-.11.018-.204.016-.282-.008-.095-.045-.172-.109-.228-.063-.056-.154-.085-.272-.086-.065,0-.118.029-.153.081-.036.053-.038.123-.006.213.085.277.104.506.057.681-.017.069-.024.147-.019.232.005.088.029.172.074.249.07.119.179.153.298.092.063-.032.148-.058.253-.077.09-.016.19-.025.298-.028l-.033.338c-.012.123-.026.252-.043.386-.169.004-.328.008-.477.01-.162.003-.275.003-.339.002-.147-.004-.26.02-.341.074-.081.055-.139.144-.171.267-.024.096-.045.23.043.29.066.044.147.032.242-.036l.003-.002c.017-.014.057-.037.153-.068.084-.026.177-.053.281-.08.108-.028.214-.051.325-.072.086-.016.164-.029.236-.038-.028.199-.055.408-.082.626l-.013.099c-.027.213-.055.433-.085.659-.017.121-.022.212-.015.272.008.061.037.13.084.203.023.04.054.065.091.073.01.002.019.003.029.003.03,0,.061-.01.092-.031.073-.046.119-.15.14-.316.038-.29.074-.574.107-.853.033-.262.062-.517.091-.764.076-.003.14-.005.192-.006.065,0,.117-.003.158-.006.043-.003.077-.008.102-.013.027-.005.053-.012.079-.023.122-.059.118-.132.105-.17-.031-.088-.152-.1-.192-.104-.024-.002-.081-.005-.17-.009-.071-.003-.149-.005-.233-.006l.067-.689c.135.006.245.014.327.024.073.009.129.011.172.008-.033.024-.064.048-.087.073-.063.067-.093.128-.092.186,0,.039.015.108.114.14.062.02.145.015.25-.016.055-.014.123-.04.202-.076.076-.035.159-.077.249-.124.089-.047.179-.097.271-.149.09-.051.178-.104.267-.16.103-.029.201-.046.293-.053.083-.006.162-.002.233.01.035.056.028.076.027.078-.005.012-.029.05-.136.138-.078.064-.175.137-.287.218-.118.084-.253.172-.401.263-.15.092-.313.189-.488.291-.175.102-.356.2-.539.292-.141.071-.231.132-.273.186-.044.057-.067.121-.068.188-.002.056.015.155.156.19.091.023.198.005.33-.056.075-.036.195-.109.356-.218.16-.108.337-.234.543-.386.21-.155.425-.319.639-.488.213-.168.419-.335.612-.497.089.053.165.099.227.14.05.033.097.069.141.106-.1.117-.228.248-.383.391-.175.16-.371.322-.584.481-.211.157-.439.311-.676.455-.237.144-.472.265-.699.361-.139.058-.229.126-.273.208-.061.113-.033.186-.001.223.04.057.095.092.159.101.058.009.143-.008.267-.053.125-.046.268-.119.425-.216.156-.097.336-.221.547-.38.213-.16.447-.347.696-.557.242-.203.515-.438.814-.7l.056.068c.071.092.106.197.107.323,0,.126-.038.243-.118.356-.13.181-.294.353-.487.51-.194.158-.411.308-.646.446-.131.078-.199.156-.21.236-.014.102.028.161.067.192.047.039.105.058.173.058.026,0,.054-.003.083-.009.095-.018.197-.065.303-.139.192-.132.394-.308.616-.539.217-.226.412-.46.579-.696.12-.172.183-.32.19-.452.008-.132-.036-.273-.133-.417-.092-.138-.22-.276-.381-.411Z"/>
    <path class="cls-2" d="M62.597,25.644c-.045-.026-.107-.053-.189-.081-.077-.026-.178-.059-.304-.097-.174-.05-.324-.094-.45-.133-.129-.039-.239-.076-.337-.112-.099-.036-.189-.072-.269-.107-.08-.035-.161-.074-.245-.118-.101-.045-.187-.07-.261-.077-.077-.007-.174.009-.287.049-.06.021-.106.051-.139.09-.036.045-.049.092-.039.139.009.047.041.089.099.128.041.028.097.05.171.068-.049.28-.111.528-.184.738-.077.225-.179.462-.301.705-.11.215-.202.384-.283.516-.083.135-.164.25-.241.343-.075.091-.156.164-.239.219-.086.056-.185.106-.292.147-.048.018-.088.037-.123.058.002-.01.004-.019.005-.03.016-.077.026-.165.029-.261v-.047c.003-.076.005-.145.006-.211-.007-.081-.03-.151-.068-.208-.042-.064-.106-.105-.198-.123-.115-.005-.163.042-.185.084-.027.051-.033.13-.017.249.015.088.034.178.057.277.022.091.049.178.08.256.014.043.056.166.15.175-.011.04-.013.088.008.149.015.059.059.136.178.169.09.026.179.015.264-.031.259-.137.508-.375.739-.708.211-.302.413-.678.604-1.12.014.019.031.038.051.058.017.023.045.071.082.143.041.079.083.17.126.269l.155.359c.051.118.102.242.154.372-.171.095-.363.176-.573.241-.229.07-.479.115-.746.134-.093.01-.16.026-.205.05-.053.029-.086.088-.098.181-.006.108.045.195.148.252.097.053.208.064.329.034.259-.064.503-.144.726-.238.2-.084.385-.177.551-.278.047.135.093.275.137.417.048.155.09.313.126.469.039.194.118.329.234.403.077.049.186.073.33.073.069,0,.146-.006.231-.017.083-.01.134-.04.151-.09.027-.079-.045-.164-.099-.217l-.088-.108c-.041-.051-.085-.107-.131-.169-.047-.062-.091-.125-.135-.189-.041-.061-.075-.118-.103-.173-.04-.067-.076-.134-.111-.201-.036-.069-.077-.148-.123-.236-.015-.03-.032-.063-.052-.101-.013-.025-.027-.052-.042-.081.243-.186.438-.391.58-.609.073-.112.116-.164.139-.188.025-.026.06-.042.11-.051.062-.015.158-.071.114-.279-.014-.056-.051-.108-.11-.154-.058-.045-.118-.073-.183-.083-.049-.004-.127-.02-.232-.049-.109-.03-.224-.065-.344-.104-.123-.04-.237-.08-.338-.12-.125-.049-.181-.077-.209-.094-.064-.032-.136-.06-.215-.082-.049-.014-.097-.023-.143-.027.046-.125.09-.249.13-.371.047-.145.092-.288.132-.428.049.011.104.025.165.043.082.023.181.055.295.094.116.04.253.089.41.145l.547.199c.184.075.305.099.38.076.08-.024.131-.08.145-.165,0-.039-.009-.075-.027-.108-.019-.033-.054-.064-.106-.094ZM60.814,26.791c.103.031.212.063.327.095h0c.162.046.307.078.43.096.056.009.124.029.134.074.006.026.004.091-.069.223-.054.09-.123.179-.206.266-.067.071-.143.139-.226.2-.061-.151-.126-.309-.196-.475-.074-.177-.139-.336-.195-.48Z"/>
    <path class="cls-2" d="M58.8,27.247c.041.027.092.042.155.046.067.004.132-.02.191-.07.041-.033.081-.087.125-.167.04-.075.086-.177.136-.306.022-.066.048-.145.078-.239.03-.093.058-.188.087-.286.028-.095.056-.187.084-.277.029-.09.054-.165.074-.225.04-.102.077-.186.112-.25.032-.062.076-.124.127-.182.09-.092.116-.203.076-.323-.041-.119-.16-.21-.363-.28-.194-.067-.379-.141-.55-.222-.172-.082-.336-.169-.486-.259-.111-.067-.211-.078-.296-.032-.08.043-.146.144-.203.31l-.037.117c-.019.064-.042.138-.069.222l-.08.255c-.027.086-.05.157-.07.213-.032.092-.069.202-.111.331-.041.128-.083.254-.126.378-.043.125-.081.24-.115.344-.033.103-.058.179-.074.227-.062.18-.054.299.026.366.069.059.162.079.271.063-.113.119-.235.222-.365.306-.167.108-.378.194-.628.255-.082.018-.15.064-.204.135-.055.073-.077.147-.063.223.017.075.064.132.138.171.039.019.081.029.126.029.039,0,.08-.007.123-.022.254-.083.501-.222.734-.414.225-.185.417-.41.572-.669.105.018.211.047.315.087.116.044.214.092.292.142ZM58.443,26.684c-.105-.032-.206-.059-.301-.082-.144-.038-.178-.076-.186-.089-.017-.031-.017-.074.001-.128l.09-.259c.193.05.366.101.517.153.147.051.297.106.446.165l-.052.151c-.059.152-.096.183-.106.188-.009.005-.046.019-.151-.018-.067-.023-.153-.05-.258-.081ZM58.42,25.064l.021-.062c.014-.04.03-.08.051-.126.021-.063.045-.111.071-.142.02-.025.046-.039.078-.044.038-.005.088.002.151.022.069.021.16.054.272.097.113.044.205.083.272.115.061.03.105.06.131.09.022.024.031.049.029.077-.002.037-.015.089-.037.155-.007.021-.018.048-.032.081-.008.02-.016.041-.024.062-.144-.046-.295-.094-.454-.147-.163-.054-.339-.114-.529-.179ZM58.173,25.76l.116-.338c.183.05.36.101.53.153.164.05.317.101.456.152-.021.053-.041.109-.061.166-.021.06-.043.119-.066.176-.153-.041-.304-.084-.448-.129-.145-.045-.318-.105-.527-.181Z"/>
    <path class="cls-2" d="M67.734,30.999c.069,0,.13-.022.183-.065.037-.029.084-.063.139-.102.055-.039.106-.072.152-.099.056-.03.125-.095.134-.231.008-.108-.057-.222-.199-.348-.077-.066-.19-.155-.346-.275-.152-.115-.322-.244-.511-.386-.185-.138-.386-.284-.598-.434-.208-.147-.407-.285-.594-.414-.188-.129-.356-.243-.506-.34-.15-.097-.265-.165-.34-.2-.133-.063-.232-.094-.304-.09-.087.004-.152.071-.195.2l-.079.226c-.025.072-.056.158-.093.259-.03.094-.026.162.013.209.02.022.065.061.224.133.102.05.229.119.376.206.147.087.305.186.485.304.172.113.349.23.529.352.183.123.351.242.501.353.146.108.281.213.401.312.111.092.188.164.227.212.075.097.169.163.281.198.042.013.082.02.119.02ZM67.679,30.617c-.009.001-.055-.006-.173-.104-.059-.047-.135-.105-.229-.174-.082-.06-.172-.127-.27-.201.032-.049.071-.103.117-.162.046-.06.092-.116.137-.167.075.057.141.108.2.152l.031.023c.053.039.088.065.104.076.086.072.148.131.191.18.04.045.065.086.075.121.009.029.008.054-.002.076-.015.031-.038.066-.069.102-.063.072-.098.08-.111.08ZM65.949,28.892c-.039.061-.079.12-.119.177-.034.048-.067.094-.098.139l-.014.02c-.115-.081-.22-.152-.315-.214-.107-.07-.188-.121-.24-.152-.131-.08-.16-.133-.165-.157-.009-.045.003-.094.037-.148.041-.064.079-.103.114-.117.004-.002.011-.003.022-.003.025,0,.069.009.145.049.053.027.141.08.256.156.108.071.234.155.377.25ZM66.921,29.567c-.035.046-.075.1-.119.162l-.123.175c-.203-.147-.414-.296-.63-.444.035-.049.074-.102.117-.161.046-.061.088-.117.128-.168.109.073.218.147.326.223l.301.212Z"/>
    <path class="cls-2" d="M65.315,27.524c.114.052.232.112.352.176.121.065.25.139.383.219.135.081.279.172.435.273.142.093.297.196.468.31l-.103.146c-.142-.1-.279-.195-.411-.286-.146-.099-.273-.188-.384-.266-.115-.076-.21-.127-.282-.154-.075-.028-.153-.037-.228-.028-.091.008-.115.056-.121.085-.008.04.006.081.041.121.027.032.063.063.112.094.046.029.098.055.154.077.108.043.257.122.442.237.191.117.389.249.589.39.206.145.406.295.594.444.19.151.343.287.455.405.109.113.197.187.267.228.078.045.151.057.215.038.059-.015.097-.043.113-.082.014-.036.008-.076-.019-.118-.04-.063-.134-.152-.287-.272-.074-.057-.198-.151-.374-.28-.163-.12-.344-.251-.542-.391l.058-.082c.015-.022.034-.044.054-.067.743.515,1.221.91,1.421,1.176.09.125.175.204.259.24.037.016.077.024.118.024.057,0,.118-.016.181-.046.062-.028.122-.061.119-.117-.002-.031-.02-.061-.122-.15-.136-.113-.28-.23-.431-.351-.153-.122-.311-.242-.468-.355-.16-.115-.32-.23-.482-.344-.144-.102-.285-.198-.421-.29.035-.056.058-.118.068-.184.015-.095-.014-.178-.08-.239-.048-.05-.11-.065-.173-.042-.056.021-.106.073-.151.154-.015.021-.028.041-.039.062,0,.001-.001.002-.002.003-.071-.05-.158-.109-.258-.178-.125-.085-.25-.173-.379-.263-.129-.091-.25-.177-.364-.261-.113-.083-.199-.147-.257-.194-.152-.119-.272-.196-.367-.236-.097-.041-.204-.059-.314-.053h-.002c-.093,0-.151.019-.183.059-.015.019-.03.052-.018.099.014.053.067.132.363.267Z"/>
    <path class="cls-2" d="M66.84,30.546l-1.82-1.282c-.101-.071-.196-.106-.285-.102-.096.004-.185.073-.264.205-.036.059-.08.126-.129.201l-.156.233c-.055.081-.108.159-.16.234l-.137.193c-.08.114-.103.223-.067.324.048.134.144.161.204.159.007.002.038.012.135.066.026.015.055.031.085.048-.056-.01-.116-.023-.179-.039-.081-.02-.161-.043-.241-.069-.08-.025-.154-.051-.221-.075-.096-.034-.163-.042-.212-.027-.053.016-.1.069-.148.165-.04.078-.033.155.019.222.049.063.143.103.289.123h.003c.065.006.144.011.237.017.088.006.183.008.292.008.098,0,.199-.006.309-.015.097-.009.189-.024.273-.043.098.064.199.132.303.202.107.072.215.15.319.229.089.067.172.131.251.191l.039.03c.071.054.134.105.188.152-.042.089-.061.193-.058.308.003.129.032.267.083.409.041.124.094.208.163.256.052.036.105.054.16.054.023,0,.045-.003.068-.009.117-.026.165-.095.184-.148.03-.079-.006-.179-.109-.305-.111-.138-.189-.25-.23-.331-.004-.008-.007-.015-.011-.022.11.079.205.122.289.13.122.013.227-.032.312-.133.036-.043.082-.099.136-.169.055-.07.112-.143.172-.22.06-.077.119-.154.176-.231.057-.077.106-.144.146-.201.108-.152.071-.278.021-.356-.064-.1-.204-.225-.428-.383ZM66.798,31.088s-.007.009-.009.014c-.305-.235-.623-.471-.946-.702-.332-.237-.693-.482-1.073-.73.006-.006.014-.012.023-.021.047-.05.076-.062.089-.064.006,0,.041-.003.146.05.067.03.173.092.306.179.135.087.283.187.453.306.163.115.323.231.481.347.158.117.293.218.402.3.105.086.141.143.152.175.014.041.005.091-.024.145ZM66.659,31.328c-.017.029-.034.057-.051.084-.015.023-.03.046-.045.068-.317-.243-.65-.487-.99-.725-.348-.242-.713-.492-1.086-.745.017-.024.035-.046.052-.068.016-.02.031-.04.045-.059.383.243.752.487,1.097.726.34.234.668.476.977.719ZM65.945,31.338c.168.124.324.242.47.354l-.031.045c-.03.038-.076.084-.124.087-.03.002-.088-.013-.202-.093l-.458-.323c-.177-.124-.349-.244-.517-.36-.168-.116-.318-.22-.451-.313l-.26-.183c-.102-.079-.118-.115-.121-.125-.003-.01-.005-.041.04-.113.009-.019.019-.038.031-.055l.012-.017c.151.092.315.196.486.309.181.119.366.245.564.385.189.133.376.268.561.403Z"/>
    <path class="cls-2" d="M69.65,33.994c.06.071.119.144.18.22l.337.425c.121.153.231.201.321.201.047,0,.088-.013.123-.03.029-.017.078-.047.145-.092.066-.044.137-.092.211-.146l.213-.151c.067-.047.119-.082.154-.104.079-.049.127-.101.147-.159.021-.061.004-.138-.054-.238l-.012-.017c-.03-.045-.071-.105-.122-.18-.059-.085-.125-.176-.2-.275-.075-.097-.152-.198-.23-.301-.066-.086-.132-.169-.197-.246.019-.02.039-.04.06-.059.035-.031.071-.064.104-.097.074-.072.118-.094.142-.1.015-.004.051-.003.119.045.07.051.139.101.207.148.068.048.138.095.211.141l.228.148c.08.052.172.109.274.171.143.085.247.109.319.072.067-.034.118-.112.155-.236.035-.105.027-.2-.023-.282-.052-.085-.143-.129-.274-.132-.052,0-.121-.014-.204-.042-.086-.029-.181-.065-.29-.112-.107-.045-.219-.098-.332-.158-.116-.061-.228-.122-.334-.183-.113-.07-.217-.093-.308-.067-.09.025-.166.095-.221.202-.161.215-.329.405-.498.566-.168.16-.335.3-.497.416-.119.089-.233.155-.339.197-.105.042-.22.066-.34.071-.121.004-.252-.008-.389-.038-.14-.03-.298-.078-.484-.146-.257-.094-.331-.074-.369-.043-.085.067-.048.198-.035.242.024.082.058.145.102.191.045.048.118.088.223.122.331.112.645.15.933.112.269-.035.51-.106.717-.211.037.046.079.097.126.154ZM69.842,33.645l.021-.017c.073-.058.159-.131.26-.22.086-.076.176-.159.269-.247.05.056.101.115.153.176.066.077.128.151.185.223.058.072.109.139.154.199.045.06.078.107.1.142.035.055.033.101-.005.15-.049.064-.153.153-.31.266-.06.043-.114.069-.161.078-.022.004-.052.003-.091-.046-.017-.021-.044-.053-.079-.096l-.024-.029c-.048-.056-.1-.119-.155-.19-.057-.071-.117-.145-.181-.222-.05-.059-.095-.115-.138-.168Z"/>
    <path class="cls-2" d="M74.089,34.829c-.037-.052-.102-.081-.2-.076-.016,0-.075-.006-.243-.081-.131-.058-.276-.13-.429-.214-.156-.086-.309-.177-.454-.273-.144-.094-.257-.181-.335-.258-.094-.092-.182-.122-.26-.089-.066.027-.138.092-.221.196-.157.195-.347.388-.562.573-.215.185-.438.349-.663.487-.224.137-.445.245-.655.319-.205.072-.383.097-.529.074-.113-.017-.212-.017-.291,0-.101.02-.157.083-.154.175.005.091.036.172.094.241.063.073.167.102.31.084.312-.038.63-.13.943-.275.306-.14.645-.35,1.008-.625.041.02.079.041.117.064.042.026.086.06.132.104.046.043.097.097.153.161.048.054.105.122.17.203-.161.133-.32.263-.479.392-.173.14-.334.27-.485.39-.15.119-.285.225-.405.317-.118.091-.208.158-.268.2-.123.086-.212.159-.27.224-.061.067-.103.137-.125.207-.028.084-.031.138-.011.176.012.022.031.037.055.043.017.005.038.007.061.007.034,0,.074-.005.121-.015.064-.011.131-.037.199-.075.067-.037.126-.083.176-.134.034-.034.134-.117.218-.186.118-.097.261-.212.43-.346l.545-.433c.178-.141.352-.277.522-.407.093.125.16.223.2.293.045.079.081.156.106.231.031.088.086.17.165.244.082.079.199.119.347.119.002,0,.003,0,.005,0,.069,0,.251-.002.267-.12.007-.065-.036-.148-.14-.27-.249-.3-.451-.539-.606-.719-.154-.179-.281-.327-.382-.442-.101-.116-.187-.214-.259-.293-.061-.067-.126-.141-.195-.222.062-.05.124-.102.186-.156.077-.068.156-.139.234-.213.09-.087.119-.086.119-.085.006,0,.039.005.128.08l.173.146c.062.052.124.101.184.146.059.044.112.086.16.124.049.04.092.07.124.087.036.023.076.052.12.086.045.035.089.07.132.106.041.035.081.071.116.108.035.038.063.069.082.093.161.204.29.19.37.142.104-.062.168-.2.188-.412.008-.103-.005-.176-.038-.223Z"/>
  </g>
  <g>
    <path class="cls-1" d="M49.74,36.532c-8.909,0-16.156,7.015-16.156,15.636s7.248,15.636,16.156,15.636,16.155-7.015,16.155-15.636-7.247-15.636-16.155-15.636ZM49.74,66.341c-8.098,0-14.685-6.358-14.685-14.173s6.587-14.173,14.685-14.173,14.684,6.358,14.684,14.173-6.587,14.173-14.684,14.173Z"/>
    <path class="cls-1" d="M58.598,54.603c-1.216.07-2.428.202-3.642.306-.443.038-.887.075-1.334.113-.006-.879.002-.904.721-1.116.228-.067.5-.017.708-.114.26-.122.484-.33.707-.521.24-.205.487-.411.683-.655.414-.517.638-1.15,1.148-1.629.696-.653.253-1.656-.603-1.873-.075-.019-.146-.066-.213-.108-.467-.292-.941-.388-1.485-.182-.488.185-1.005.295-1.524.441-.112-.919.096-1.26.842-1.487.326-.099.483-.312.479-.653-.008-.564-.085-.701-.622-.874-.197-.063-.262-.131-.293-.342-.093-.635-.416-1.105-1.06-1.315-.157-.051-.296-.158-.501-.272.399-.134.73-.241,1.058-.356.773-.271,1.541-.49,2.372-.211.373.125.468.193.291.559-.196.407-.313.885-.787,1.104-.088.041-.155.127-.232.192.008.038.017.077.025.115.64-.034,1.281-.059,1.92-.107.238-.018.487-.17.703-.125.461.095.816-.098,1.172-.31.1-.059.203-.192.218-.302.072-.531-.307-1.187-.8-1.418-.482-.225-.989-.407-1.445-.676-.378-.224-.734-.194-1.116-.101-.126.031-.249.078-.377.101-1.318.229-2.641.43-3.952.69-.6.119-1.171.382-1.769.523-.498.118-.665.338-.598.85.05.38.065.774.023,1.153-.051.452-.21.89-.268,1.342-.073.565-.022,1.118.391,1.574.444-.152.675-.428.721-.88.043-.425.13-.845.192-1.267.015-.104.023-.213.01-.316-.083-.675-.171-1.35-.647-1.92.504.231.985.292,1.521.179.792-.167.83-.138,1.046.657.151.558.093,1.11-.241,1.633-.279.437-.725.387-1.116.519-.132.045-.244.148-.365.225.109.109.2.269.332.317.262.096.545.138.821.188.567.104.613.19.64.761.021.442-.165.673-.562.796-.293.09-.586.184-.867.305-.226.097-.431.24-.65.353-.076.039-.172.079-.25.067-.326-.052-.647-.146-.974-.179-.151-.016-.312.072-.468.113.071.134.117.292.216.399.664.717,1.13,1.519,1.201,2.52.024.346.089.692.166,1.031.111.494.58.702,1.036.488.277-.13.559-.249.837-.372.253.543.168.798-.344.976-.492.172-.991.331-1.496.457-1.08.27-2.076.87-3.247.792-.331-.022-.295.256-.203.464.228.516.922.748,1.44.502.084-.04.173-.073.264-.097.582-.154,1.169-.293,1.748-.46.533-.154,1.055-.344,1.586-.505.128-.038.272-.022.508-.037-.082,2.143-.165,2.859-.245,5.003-.001.033-.004.07-.029.093-.021.019-.052.021-.081.022-.285.011-.5.015-.392.353.057.18.191.365.314.501.031.034.062.067.095.102.26.274.447.608.699.889.225.25.44.204.51-.121.144-.661.267-1.329.349-1.999.052-.422.02-.856.012-1.285-.026-1.484-.059-1.54-.088-3.024-.016-.812.111-1.023.876-1.049,1.353-.046,2.711-.106,4.055.167.494.1.995.168,1.494.238.296.042.328-.162.32-.385-.029-.858-.735-1.58-1.582-1.531ZM54.164,51.441c-.108-.188-.194-.388-.29-.583-.059.058-.119.117-.178.175-.002-.012-.005-.025-.005-.037.007-1.058.019-.838.903-1.068.55-.143.777.085.652.626-.132.572-.267,1.144-.406,1.714-.123.504-.551.781-1.191.689.093-.189.129-.42.259-.499.367-.225.487-.614.257-1.016ZM51.831,51.863c-.096.047-.214.057-.296.119-.169.128-.32.279-.478.42.183.101.356.228.551.294.198.068.416.076.617.109.055.669-.42,1.086-1.241,1.071-.079-.945-.159-1.895-.234-2.794.443-.145.844-.274,1.243-.409.208-.07.326-.041.353.213.046.435-.124.786-.514.978Z"/>
    <path class="cls-1" d="M44.024,52.594c.329-.777.937-1.276,1.577-1.738.436-.315.956-.511,1.415-.798.139-.087.294-.313.276-.454-.034-.263-.001-.631-.408-.693-.458-.07-.918-.131-1.365-.195,0-.271-.009-.602.002-.933.016-.465.204-.826.665-.997.13-.048.263-.082.393-.133.128-.05.256-.105.394-.122.429-.051.866-.193,1.301-.159.491.038.659-.341.793-.616.118-.243.103-.711-.061-.898-.352-.401-.818-.714-1.274-1.004-.299-.19-.583-.016-.659.335-.028.13-.051.269-.04.4.086,1.007-.704,1.457-1.271,2.056-.014-.177.029-.33.047-.487.078-.713.211-1.427.206-2.14-.006-.743-.094-.777-.802-.973-.246-.068-.489-.175-.739-.193-.437-.032-.877-.009-1.433-.009.244.412.434.708.599,1.018.186.35.399.698.514,1.073.326,1.058.202,2.153.168,3.233-.013.425-.06.966-.319,1.242-.463.494-1.081.852-1.664,1.221-.599.379-1.231.705-1.85,1.053-.602.339-1.186.723-1.906.765-.175.01-.351.018-.625.031.39.301.712.506.98.767.434.422.948.436,1.461.294.347-.097.656-.331.985-.497.392-.197.789-.385,1.282-.625-1.127,2.422-2.451,4.546-4.633,6.023.445.006.821-.044,1.11-.345.08-.084.203-.131.313-.181,1.539-.704,2.626-1.903,3.515-3.289.411-.64.756-1.332,1.053-2.034Z"/>
    <path class="cls-1" d="M47.099,53.886c-.77.594-1.501,1.157-2.231,1.72-.031-.034-.062-.068-.092-.102.2-.401.397-.804.602-1.202.302-.585.197-1.416-.249-1.769-.09-.071-.269-.129-.35-.086-.084.044-.127.217-.137.338-.015.171.053.352.022.518-.21,1.115-.589,2.143-1.536,2.866-.548.418-.654.996-.491,1.61.06.225.281.466.493.574.233.119.478-.007.58-.302.021-.062.126-.093.19-.142.785-.596,1.662-1.081,2.179-1.983.186-.325.519-.563.726-.879.21-.319.532-.638.295-1.16Z"/>
    <path class="cls-1" d="M42.477,49.788c.258.227.549.199.719,0,.268-.315.579-.642.355-1.162-.254-.591-.197-1.184.213-1.717.048-.062.05-.161.073-.243-.286.119-.498.301-.711.48-.359.301-.454.291-.735-.093-.195-.267-.383-.54-.574-.81-.034.012-.069.024-.103.035-.017.074-.05.148-.047.221.032.641.029,1.287.119,1.92.073.515.272,1,.691,1.368Z"/>
  </g>
  <g>
    <polygon class="cls-2" points="27.657 75.847 27.646 75.847 26.711 73.461 25.357 73.461 25.357 77.117 26.251 77.117 26.251 74.313 26.263 74.313 27.29 77.117 27.973 77.117 29.04 74.313 29.052 74.313 29.052 77.117 29.946 77.117 29.946 73.461 28.598 73.461 27.657 75.847"/>
    <rect class="cls-2" x="31.048" y="73.461" width=".895" height="3.655"/>
    <polygon class="cls-2" points="35.999 76.001 35.987 76.001 34.261 73.461 33.044 73.461 33.044 77.117 33.939 77.117 33.939 74.515 33.951 74.515 35.724 77.117 36.894 77.117 36.894 73.461 35.999 73.461 35.999 76.001"/>
    <path class="cls-2" d="M42.134,75.191c-.14-.076-.29-.134-.45-.175-.161-.041-.311-.083-.451-.124-.139-.041-.255-.091-.347-.15-.091-.059-.138-.143-.138-.253,0-.069.019-.128.057-.176.039-.048.088-.087.15-.116.061-.029.126-.051.195-.065.068-.014.136-.021.201-.021.111,0,.228.02.352.06.124.04.223.101.296.183l.614-.604c-.172-.137-.366-.236-.579-.294-.215-.059-.436-.088-.666-.088-.199,0-.392.025-.579.075-.188.05-.353.125-.496.225-.144.1-.258.224-.345.372-.086.148-.129.32-.129.516,0,.203.047.367.141.491.094.124.211.224.352.299.142.076.295.136.46.181.164.045.317.09.459.134.141.045.259.099.353.163.094.064.14.15.14.261,0,.065-.018.122-.054.17-.037.049-.084.088-.144.119-.06.031-.127.054-.201.07-.074.015-.148.023-.22.023-.15,0-.294-.03-.433-.09-.14-.06-.255-.145-.347-.256l-.637.63c.195.162.405.279.631.351.226.072.47.109.734.109.21,0,.411-.024.6-.072.189-.048.356-.122.499-.222.144-.1.257-.225.341-.377.084-.152.127-.329.127-.532,0-.214-.046-.384-.138-.511-.092-.127-.208-.228-.347-.305Z"/>
    <polygon class="cls-2" points="46.204 74.824 44.466 74.824 44.466 73.461 43.571 73.461 43.571 77.117 44.466 77.117 44.466 75.537 46.204 75.537 46.204 77.117 47.099 77.117 47.099 73.461 46.204 73.461 46.204 74.824"/>
    <polygon class="cls-2" points="49.141 75.63 50.902 75.63 50.902 74.886 49.141 74.886 49.141 74.205 51.005 74.205 51.005 73.461 48.246 73.461 48.246 77.117 51.109 77.117 51.109 76.373 49.141 76.373 49.141 75.63"/>
    <polygon class="cls-2" points="55.067 76.001 55.056 76.001 53.329 73.461 52.113 73.461 52.113 77.117 53.007 77.117 53.007 74.515 53.019 74.515 54.792 77.117 55.962 77.117 55.962 73.461 55.067 73.461 55.067 76.001"/>
    <path class="cls-2" d="M59.163,75.692h.729v.594c-.084.041-.198.082-.339.121-.142.04-.31.06-.505.06-.191,0-.364-.029-.519-.088-.155-.059-.288-.14-.399-.245-.112-.105-.196-.229-.256-.372-.059-.143-.089-.3-.089-.473,0-.169.03-.325.089-.47.06-.144.144-.269.256-.374.111-.105.243-.187.399-.245.155-.058.328-.088.519-.088.23,0,.421.03.574.088.153.059.291.144.413.258l.632-.62c-.207-.172-.447-.293-.721-.364-.274-.071-.573-.106-.898-.106-.318,0-.61.045-.878.134-.268.09-.499.218-.694.384-.195.167-.346.369-.456.607-.109.237-.163.503-.163.795s.054.558.163.795c.11.237.261.44.456.607.195.167.427.295.694.385.268.09.56.134.878.134.298,0,.591-.027.878-.083.287-.055.563-.144.826-.268v-1.91h-1.589v.743Z"/>
    <polygon class="cls-2" points="66.443 74.824 64.705 74.824 64.705 73.461 63.81 73.461 63.81 77.117 64.705 77.117 64.705 75.537 66.443 75.537 66.443 77.117 67.338 77.117 67.338 73.461 66.443 73.461 66.443 74.824"/>
    <path class="cls-2" d="M70.981,75.676c0,.114-.02.219-.06.315-.041.096-.097.18-.17.25-.073.071-.159.125-.258.165-.1.04-.209.06-.327.06-.119,0-.229-.02-.33-.06-.101-.04-.188-.095-.261-.165-.073-.071-.129-.154-.169-.25-.041-.096-.061-.201-.061-.315v-2.215h-.895v2.246c0,.217.036.416.109.599.073.182.181.341.324.475.144.134.322.239.536.315.214.076.463.114.746.114.279,0,.525-.038.74-.114.214-.076.393-.181.536-.315.144-.134.251-.292.324-.475.072-.182.109-.382.109-.599v-2.246h-.895v2.215Z"/>
    <rect class="cls-2" x="72.977" y="73.461" width=".895" height="3.655"/>
  </g>
</svg>