<?xml version="1.0" encoding="UTF-8"?>
<svg id="_圖層_1" data-name="圖層_1" xmlns="http://www.w3.org/2000/svg" viewBox="0 0 100 100">
  <defs>
    <style>
      .cls-1 {
        fill: #231815;
      }
    </style>
  </defs>
  <g>
    <path class="cls-1" d="M9.271,53.854v-7.804h3.368v1.443h-1.86v1.62h1.7v1.438h-1.7v3.304h-1.507Z"/>
    <path class="cls-1" d="M20.821,46.05v4.902c0,.599-.018,1.024-.053,1.275-.036.251-.094.459-.176.623-.189.374-.462.651-.821.831-.358.18-.819.27-1.382.27s-1.025-.09-1.387-.27c-.362-.18-.635-.457-.821-.831-.085-.167-.146-.378-.182-.631-.036-.253-.053-.675-.053-1.267v-4.902h1.556v5.025c0,.638.065,1.049.195,1.232.13.183.361.275.692.275.339,0,.571-.094.698-.281.126-.187.19-.596.19-1.227v-5.025h1.545Z"/>
    <path class="cls-1" d="M23.872,53.779v-1.417c.121.064.231.112.329.142.098.03.186.045.265.045.26,0,.438-.095.535-.286.096-.19.144-.681.144-1.473v-4.741h1.577v5.442c0,.531-.029.918-.086,1.162-.057.244-.153.455-.289.633-.175.221-.39.388-.647.503-.257.114-.549.171-.877.171-.185,0-.358-.015-.518-.045-.16-.031-.305-.076-.433-.136Z"/>
    <path class="cls-1" d="M30.418,53.854v-7.804h1.588v7.804h-1.588Z"/>
    <path class="cls-1" d="M35.762,53.854v-7.804h1.577l1.577,4.201c.046.136.111.343.195.623.084.28.179.609.286.986-.082-.552-.142-1.059-.182-1.521-.039-.462-.059-.892-.059-1.291v-2.999h1.443v7.804h-1.443l-1.71-4.367c-.029-.064-.103-.33-.224-.797-.057-.214-.102-.381-.134-.502.036.303.062.644.08,1.024.018.379.027.833.027,1.36v3.282h-1.433Z"/>
    <path class="cls-1" d="M45.014,53.854v-6.361h-1.192v-1.443h3.95v1.443h-1.192v6.361h-1.566Z"/>
    <path class="cls-1" d="M50.994,53.854v-7.804h1.62c.891,0,1.537.174,1.938.524.401.349.601.907.601,1.673,0,.556-.103,1.002-.307,1.339-.205.337-.514.573-.927.708l1.497,3.56h-1.641l-1.272-3.229v3.229h-1.507ZM52.501,49.433c.018,0,.047.002.088.005.041.004.07.005.088.005.338,0,.593-.095.764-.283.171-.189.257-.467.257-.834,0-.374-.078-.647-.235-.818-.157-.171-.408-.257-.754-.257-.053,0-.094.001-.123.003-.029.002-.055.005-.08.008l-.005,2.17Z"/>
    <path class="cls-1" d="M58.471,53.854v-7.804h3.282v1.443h-1.775v1.577h1.609v1.433h-1.609v1.828h1.775v1.523h-3.282Z"/>
    <path class="cls-1" d="M65.258,53.854v-7.804h3.282v1.443h-1.775v1.577h1.609v1.433h-1.609v1.828h1.775v1.523h-3.282Z"/>
  </g>
  <g>
    <path class="cls-1" d="M73.972,47.494v-1.511h3.551v1.227l-1.186,1.852c.465.106.824.373,1.078.801.254.428.382.922.382,1.483,0,.834-.206,1.487-.618,1.96-.412.473-.939.71-1.58.71s-1.291-.311-1.95-.932l.531-1.409c.547.53,1.037.796,1.468.796.26,0,.474-.087.643-.261.169-.174.253-.426.253-.756s-.097-.591-.29-.784c-.194-.193-.462-.29-.805-.29-.182,0-.44.072-.771.216v-1.307l1.112-1.796h-1.817Z"/>
    <path class="cls-1" d="M83.943,45.983v1.534h-2.29v1.33c.171-.068.368-.102.589-.102.559,0,1.04.231,1.443.693.404.462.606,1.085.606,1.869s-.209,1.432-.626,1.943c-.418.511-.933.767-1.547.767-.785,0-1.441-.398-1.966-1.193l.68-1.296c.05.068.116.152.199.25.083.099.235.229.456.392.221.163.442.244.664.244s.418-.091.589-.273c.171-.182.257-.451.257-.807s-.093-.631-.278-.824c-.185-.193-.424-.29-.718-.29s-.633.144-1.02.432l-.539-.796v-3.875h3.501Z"/>
    <path class="cls-1" d="M90.381,45.983v1.534h-2.29v1.33c.171-.068.368-.102.589-.102.559,0,1.04.231,1.443.693.404.462.606,1.085.606,1.869s-.209,1.432-.626,1.943c-.418.511-.933.767-1.547.767-.785,0-1.441-.398-1.966-1.193l.68-1.296c.05.068.116.152.199.25.083.099.235.229.456.392.221.163.442.244.664.244s.418-.091.589-.273c.171-.182.257-.451.257-.807s-.093-.631-.278-.824c-.185-.193-.424-.29-.718-.29s-.633.144-1.02.432l-.539-.796v-3.875h3.501Z"/>
  </g>
</svg>