<?xml version="1.0" encoding="UTF-8"?>
<svg id="_圖層_1" data-name="圖層_1" xmlns="http://www.w3.org/2000/svg" viewBox="0 0 100 100">
  <defs>
    <style>
      .cls-1 {
        fill: #af1e25;
      }

      .cls-2 {
        fill: #231815;
      }

      .cls-3 {
        fill: #fff;
      }
    </style>
  </defs>
  <rect class="cls-3" x="12.978" y="40.937" width="73.793" height="4.621"/>
  <g>
    <polygon class="cls-1" points="41.978 43.674 42.743 43.674 42.922 44.346 42.922 42.158 41.113 42.158 41.113 44.354 42.165 44.354 41.978 43.674"/>
    <rect class="cls-1" x="68.915" y="42.163" width="1.688" height="1.017"/>
    <rect class="cls-1" x="19.184" y="42.163" width="1.688" height="1.017"/>
    <path class="cls-1" d="M11.732,40.02v6.434h76.537v-6.434H11.732ZM17.515,42.172h-1.222v2.933h-.793v-2.933h-1.222v-.802h3.237v.802ZM21.651,45.115h-.779v-1.161h-1.688v1.161h-.783v-3.74h3.25v3.74ZM26.039,45.105h-3.222v-.755h2.443v-.77h-2.443v-2.21h3.204v.76h-2.434v.704h2.453v2.271ZM30.255,42.172h-1.222v2.933h-.793v-2.933h-1.222v-.802h3.237v.802ZM33.319,43.669v1.441h-.788v-1.427l-1.39-2.313h.881l.9,1.539.9-1.539h.877l-1.38,2.299ZM35.526,41.288h.827v1.134l-.127,1.764h-.569l-.131-1.764v-1.134ZM36.357,45.197h-.823v-.731h.823v.731ZM43.701,45.105h-.576l.112.41h-.76l-.112-.41h-2.031v-3.735h3.367v3.735ZM47.969,44.498l-.613.617h-1.893l-.637-.617v-3.128h.779v2.595l.383.353h.865l.338-.353v-2.595h.779v3.128ZM50.058,45.105h-.788v-3.735h.788v3.735ZM54.353,42.167h-2.285v2.145h2.285v.797h-3.082v-3.735h3.082v.793ZM57.721,45.11l-1.516-1.539v1.539h-.779v-3.74h.779v1.371l1.399-1.371h1.007l-1.823,1.8,1.94,1.94h-1.007ZM59.6,41.288h.827v1.134l-.127,1.764h-.569l-.131-1.764v-1.134ZM60.431,45.197h-.823v-.731h.823v.731ZM65.903,45.11h-.886l-1.25-3.735h.802l.89,2.868.896-2.868h.797l-1.249,3.735ZM71.382,45.115h-.779v-1.161h-1.688v1.161h-.783v-3.74h3.25v3.74ZM75.491,45.11h-2.896v-3.74h.797v2.938h2.099v.802ZM79.677,44.498l-.613.617h-1.893l-.638-.617v-3.128h.779v2.595l.383.353h.865l.338-.353v-2.595h.779v3.128ZM83.778,42.153h-2.169v.695h2.169v.746h-2.169v.723h2.169v.788h-2.952v-3.735h2.952v.784ZM84.89,41.288h.827v1.134l-.127,1.764h-.569l-.131-1.764v-1.134ZM85.722,45.197h-.823v-.731h.823v.731Z"/>
  </g>
  <g>
    <path class="cls-2" d="M43.144,51.63h10.233v-2.748h-10.233v2.748ZM43.144,54.982h7.527v.681l-1.693,1.656h-5.834v2.603h7.288l2.945-3.043v-4.538h-10.233v2.64Z"/>
    <polygon class="cls-2" points="66.572 54.967 69.653 54.967 69.616 51.68 74.347 51.68 74.407 56.986 66.595 56.986 66.627 59.853 77.352 59.853 77.228 48.813 66.502 48.813 66.572 54.967"/>
    <g>
      <path class="cls-2" d="M36.098,48.524v-1.26h-2.656v1.26h-5.343v11.456h2.315v-1.103h1.721l2.687-3.904,2.687,3.904h1.88v1.103h2.301v-11.456h-5.593ZM30.414,50.959h1.81l-1.81,2.63v-2.63ZM33.442,53.473l-3.028,4.399v-3.278h1.721l1.307-1.898v.778ZM39.39,58.103l-3.23-4.692h-.062v-.869l1.412,2.051h1.88v3.509ZM39.39,53.82l-1.969-2.861h1.969v2.861Z"/>
      <g>
        <rect class="cls-2" x="12.225" y="48.898" width="1.856" height="4.223"/>
        <path class="cls-2" d="M26.935,53.843v-2.056h-.525v-1.163h-1.884v1.163h-.462v-1.501h2.522v-2.07h-2.522v-.951h-1.951v.951h-2.509v2.07h2.509v1.501h-.435v-1.163h-1.91v1.163h-.538v2.056h.538v.786h-.538v2.056h1.481l-1.528,3.294h2.237l1.447-3.294h.121v3.294h3.948v-1.874h-1.984v-1.419h1.984v-2.056h-.525v-.786h.525ZM24.527,54.63h-2.847v-.786h2.847v.786Z"/>
        <rect class="cls-2" x="17.005" y="48.898" width="1.856" height="4.223"/>
        <polygon class="cls-2" points="16.542 47.264 14.579 47.264 14.579 53.828 12.406 59.98 14.384 59.98 15.557 56.652 16.73 59.98 18.708 59.98 16.536 53.828 16.542 47.264"/>
      </g>
    </g>
    <polygon class="cls-2" points="65.807 48.69 54.073 53.726 54.073 56.822 58.969 54.479 58.969 59.98 61.493 59.98 61.493 53.658 65.807 51.917 65.807 48.69"/>
    <path class="cls-2" d="M87.158,59.859h-6.351c-.07,0-.137-.023-.193-.065l-2.004-1.517c-.08-.061-.127-.156-.127-.257l.058-10.074c.001-.176.144-.318.32-.318h1.6c.077,0,.152.028.21.079l1.145.997c.071.062.111.152.11.246l-.036,2.341h5.268c.135,0,.256.085.301.213l.297.839c.024.068.024.143,0,.212l-.297.854c-.013.037-.032.071-.057.1.024.028.043.061.056.098l.297.831c.025.069.025.144,0,.214l-.297.846c-.013.037-.032.07-.057.099.023.028.042.059.055.094l.297.802c.025.069.027.144.003.214l-.297.875c-.013.038-.033.073-.058.102.022.026.04.057.053.09l.297.773c.027.07.029.147.004.217l-.297.877c-.044.13-.166.217-.303.217ZM80.915,59.22h6.014l.187-.551-.177-.46h-2.321c-.176,0-.32-.143-.32-.319v-.41c0-.085.033-.166.093-.226.06-.06.141-.094.226-.094h2.311s.187-.551.187-.551l-.181-.487h-2.318c-.176,0-.32-.143-.32-.319v-.41c0-.085.033-.166.093-.226.06-.06.141-.094.226-.094h2.314s.185-.525.185-.525l-.183-.513h-2.315c-.177,0-.32-.143-.32-.32v-.41c0-.085.034-.166.094-.226.06-.06.141-.094.226-.094h2.313s.186-.534.186-.534l-.185-.521h-5.366c-.086,0-.168-.034-.228-.095-.06-.061-.093-.144-.092-.229l.039-2.517-.942-.821h-1.163l-.055,9.596,1.791,1.355Z"/>
  </g>
</svg>