<?xml version="1.0" encoding="UTF-8"?>
<svg id="_圖層_1" data-name="圖層_1" xmlns="http://www.w3.org/2000/svg" viewBox="0 0 100 100">
  <rect x="18.974" y="48.665" width="62.052" height=".284"/>
  <g>
    <path d="M28.888,46.244c.341-.169.364-.523.364-.865v-5.6h-.023l-2.788,6.465h-.808l-2.755-6.477-.024.012v5.6c0,.342.024.696.365.865h-1.958c.342-.169.364-.523.364-.865v-6.624c0-.342-.022-.682-.364-.854h2.436l2.584,5.862,2.573-5.862h2.446c-.34.171-.363.512-.363.854v6.624c0,.342.023.696.363.865h-2.412Z"/>
    <path d="M34.424,46.244c.352-.169.363-.511.363-.865v-6.624c0-.352-.011-.682-.363-.854h5.783v1.651c-.137-.354-.319-.409-.684-.409h-3.05v2.184h2.663c.274,0,.546-.056.639-.34v1.912l-.205-.251c-.137-.044-.285-.08-.434-.08h-2.663v2.437h3.209c.365,0,.547-.058.684-.41v1.651h-5.942Z"/>
    <path d="M48.841,46.244l-1.959-3.336h-1.309v2.47c0,.342.023.706.364.865h-2.413c.341-.159.364-.523.364-.865v-6.624c0-.342-.023-.695-.364-.854h3.996c1.57,0,2.81.695,2.81,2.401,0,1.047-.715,2.049-1.775,2.232.309.523,1.72,3.347,2.392,3.71h-2.105ZM47.145,39.142h-1.572v2.526h1.572c.809,0,1.433-.398,1.433-1.262s-.624-1.264-1.433-1.264Z"/>
    <path d="M62.218,46.244c.354-.169.366-.511.366-.865v-6.624c0-.352-.012-.682-.366-.854h5.785v1.651c-.139-.354-.32-.409-.684-.409h-3.05v2.184h2.663c.274,0,.546-.056.637-.34v1.912l-.204-.251c-.137-.044-.284-.08-.433-.08h-2.663v2.437h3.209c.364,0,.547-.058.683-.41v1.651h-5.943Z"/>
    <path d="M76.634,46.244l-1.958-3.336h-1.308v2.47c0,.342.021.706.362.865h-2.412c.341-.159.364-.523.364-.865v-6.624c0-.342-.023-.695-.364-.854h3.996c1.571,0,2.812.695,2.812,2.401,0,1.047-.717,2.049-1.777,2.232.309.523,1.721,3.347,2.391,3.71h-2.105ZM74.937,39.142h-1.569v2.526h1.569c.809,0,1.435-.398,1.435-1.262s-.626-1.264-1.435-1.264Z"/>
    <path d="M59.235,45.647c-.34,0-.99.597-2.253.597-2.538,0-3.996-1.924-3.996-4.338,0-2.105,1.445-4.326,3.734-4.326.762,0,1.423.361,2.072.361.181,0,.307-.135.374-.296v2.463c-.272-.797-1.081-1.288-1.9-1.288-1.673,0-2.527,1.596-2.527,3.086,0,1.502.854,3.096,2.527,3.096.945,0,1.866-.694,2.219-1.558v2.465c-.033-.079-.147-.262-.25-.262Z"/>
  </g>
  <g>
    <g>
      <path d="M37.451,65.301h-1.117v-.574h2.858v.574h-1.117v2.949h-.624v-2.949Z"/>
      <path d="M42,64.702h.573l1.55,3.548h-.654l-.357-.85h-1.666l-.362.85h-.634l1.55-3.548ZM42.886,66.851l-.609-1.409-.604,1.409h1.213Z"/>
      <path d="M45.77,64.727h.619v3.522h-.619v-3.522Z"/>
      <path d="M48.065,64.727h.669l.84,2.612.866-2.622h.523l.866,2.622.84-2.612h.649l-1.223,3.548h-.539l-.866-2.531-.865,2.531h-.534l-1.228-3.548Z"/>
      <path d="M55.604,64.702h.574l1.55,3.548h-.654l-.357-.85h-1.666l-.362.85h-.634l1.55-3.548ZM56.49,66.851l-.609-1.409-.604,1.409h1.213Z"/>
      <path d="M59.338,64.727h.574l1.887,2.436v-2.436h.609v3.522h-.518l-1.942-2.506v2.506h-.609v-3.522Z"/>
    </g>
    <g>
      <path d="M76.005,60.338c.366-.177.378-.531.378-.898v-2.99h-3.475v2.99c0,.367.012.721.377.898h-2.506c.367-.177.378-.531.378-.898v-6.88c0-.365-.011-.71-.378-.885h2.506c-.354.176-.377.52-.377.885v2.601h3.475v-2.601c0-.365-.012-.71-.378-.885h2.506c-.355.176-.378.52-.378.885v6.88c0,.367.011.721.378.898h-2.506Z"/>
      <path d="M36.508,60.338l-1.958-3.336h-1.308v2.47c0,.342.021.706.362.865h-2.412c.341-.159.364-.523.364-.865v-6.624c0-.342-.023-.695-.364-.854h3.996c1.571,0,2.812.695,2.812,2.401,0,1.047-.717,2.049-1.777,2.232.309.523,1.721,3.347,2.391,3.71h-2.105ZM34.812,53.236h-1.569v2.526h1.569c.809,0,1.435-.398,1.435-1.262s-.626-1.264-1.435-1.264Z"/>
      <path d="M67.703,59.741c-.34,0-.99.597-2.253.597-2.538,0-3.996-1.924-3.996-4.338,0-2.105,1.445-4.326,3.734-4.326.762,0,1.423.361,2.072.361.181,0,.307-.135.374-.296v2.463c-.272-.797-1.081-1.288-1.9-1.288-1.673,0-2.527,1.596-2.527,3.086,0,1.502.854,3.096,2.527,3.096.945,0,1.866-.694,2.219-1.558v2.465c-.033-.079-.147-.262-.25-.262Z"/>
      <path d="M25.282,60.338h-3.792c.342-.159.365-.535.365-.865v-6.628c0-.33-.023-.694-.365-.854h3.485c1.435,0,2.961.376,2.961,2.084,0,1.002-.717,1.742-1.697,1.845v.023c1.241,0,2.221.82,2.221,2.107,0,1.765-1.697,2.289-3.177,2.289ZM25.054,53.232h-1.515v2.186h1.515c.683,0,1.196-.364,1.196-1.093s-.512-1.094-1.196-1.094ZM25.1,56.591h-1.56v2.505h1.56c.854,0,1.606-.285,1.606-1.253s-.752-1.253-1.606-1.253Z"/>
      <path d="M58.858,52.897v7.441h-1.368l-4.546-6.208h-.022v5.348c0,.351.011.69.361.86h-1.944c.35-.17.361-.509.361-.86v-6.581c0-.351-.023-.678-.361-.848h2.08l4.196,5.768h.022v-4.919c0-.351-.022-.678-.361-.848h1.944c-.351.17-.362.498-.362.848Z"/>
      <path d="M46.577,51.991c.336.155.358.514.358.837v4.068c0,1.442-.268,2.224-1.843,2.224h-.393c-1.575,0-1.843-.783-1.843-2.224v-4.068c0-.323.022-.682.358-.837h-2.325c.336.155.358.514.358.837v4.594c0,2.146,1.599,2.9,3.618,2.915h0c.01.001.02,0,.031,0,.01,0,.02,0,.031,0h0c2.019-.017,3.216-.771,3.216-2.916v-4.594c0-.323.022-.682.358-.837h-1.923Z"/>
    </g>
  </g>
</svg>