<?xml version="1.0" encoding="UTF-8"?>
<svg id="_圖層_1" data-name="圖層_1" xmlns="http://www.w3.org/2000/svg" viewBox="0 0 100 100">
  <defs>
    <style>
      .cls-1 {
        fill: #231815;
      }

      .cls-2 {
        fill: #fff;
      }

      .cls-3 {
        fill: #221714;
      }
    </style>
  </defs>
  <g>
    <path class="cls-2" d="M63.526,42.326c.05-.304.277-.529.592-.584.054-.013.114-.021.179-.019h.398c0-.048.002-.095.003-.144-.135,0-.27-.003-.405-.007-.386-.012-.693-.235-.767-.548-.088-.372.046-.673.395-.888.041-.025.082-.049.189-.114-.393-.179-.733-.354-.735-.82-.003-.475.332-.655.736-.848-.331-.199-.61-.381-.902-.541-1.222-.668-2.183-1.622-3.015-2.721-1.578-2.082-3.646-3.422-6.162-4.101-1.21-.327-2.393-.303-3.579.107-.637.22-1.287.408-1.937.589-.682.19-1.363.065-2.046-.036-1.708-.251-3.117.387-4.225,1.619-.393.437-.553,1.106-.747,1.694-.402,1.215-.759,2.452-1.659,3.411-.408.435-.901.791-1.356,1.181-.091.078-.189.148-.343.268.281,0,.477-.022.668.005.321.046.505.261.568.569.066.324-.023.619-.315.781-.348.193-.714.374-1.095.481-.217.061-.479-.034-.647-.052-.139.324-.324.636-.402.973-.073.315-.097.67-.03.983.162.757.412,1.494.585,2.249.204.889.353,1.79.548,2.682.06.277.171.549.298.804.163.327.423.491.823.452.586-.057.831.243.934.815.088.492.264.968.416,1.449.244.731.5,1.473.798,2.188.002.004.004.008.006.012.334.719.727,1.406,1.155,2.073.172.255.345.505.518.747.125.175.25.358.377.544.104.153.21.306.317.458.171.232.343.463.517.694,0,0,.002.002.002.003.016.021.033.038.049.059.131.159.267.312.41.454.015.015.03.03.045.045.053.051.107.099.161.147.067.058.135.114.204.168.034.026.067.053.101.078.025.019.052.036.078.055.422.291.888.541,1.346.761.159.073.321.145.485.215,0,.004,0,.007,0,.011.075.034.153.07.227.102.008.003.014.008.021.012v-.592c0-.193.078-.376.225-.53.103-.098.218-.162.348-.197l.18-.025c.131-.006.239.017.338.067.073.02.164.076.24.154.072.063.131.151.165.253.04.066.065.173.06.286v.6c0,.193-.078.376-.225.53-.103.098-.218.162-.348.197l-.18.025c-.013,0-.025,0-.038,0-.115,0-.211-.023-.3-.068-.023-.006-.05-.022-.075-.035-.008.07-.024.14-.056.211-.009.02-.022.037-.032.057.256.104.548.212.871.316-.003-.069-.006-.139-.014-.208,0-.159.036-.288.107-.406l.106-.134c.114-.111.229-.175.359-.21l.18-.025c.131-.005.239.017.338.067.073.02.164.076.24.154.068.059.125.142.16.236.048.094.071.195.066.302.023.181.028.396.014.608h0c.071.014.141.027.214.039l.003-.175c-.005-.125.026-.255.092-.375l.101-.138c.03-.032.062-.052.093-.078-.03-.022-.06-.043-.087-.071-.068-.059-.125-.142-.16-.237-.048-.094-.071-.195-.066-.302v-.309c0-.137.037-.266.108-.383l.015-.019c-.066.059-.143.108-.234.136-.063.035-.16.057-.264.057-.008,0-.017,0-.026,0-.224-.009-.417-.089-.546-.223-.153-.159-.232-.35-.225-.538h0c.011-.276.041-.573.094-.936.03-.125.082-.219.157-.297.038-.062.118-.132.215-.182.083-.051.187-.083.298-.088.076-.019.187-.015.297.018.211.065.375.189.463.349l.066.148c.045.152.047.282.015.409-.025.197-.041.396-.049.594-.006.15-.052.29-.131.407.101-.088.203-.147.318-.178l.18-.025c.131-.005.239.018.338.067.073.02.164.076.24.154.068.059.125.142.16.237.048.094.071.195.066.302v.31c0,.136-.037.265-.108.382l-.106.134c-.024.023-.049.037-.073.056.022.016.044.029.065.049.07.057.13.137.169.23.052.092.078.192.079.299-.001.13-.004.252-.006.374.056.002.114.004.175.005l.006-.335c-.005-.127.026-.257.092-.377l.101-.138c.034-.035.069-.059.103-.086-.044-.027-.088-.061-.128-.102-.072-.063-.131-.151-.165-.253-.04-.066-.065-.173-.06-.285v-.23c0-.137.037-.266.108-.383l.106-.134c.115-.111.229-.175.359-.21l.18-.025c.131-.006.239.018.338.067.073.02.164.076.24.154.072.063.131.152.165.253.04.066.065.173.06.286v.23c0,.136-.037.265-.108.382l-.106.134c-.027.027-.056.043-.083.064.036.023.073.048.107.08.071.057.13.137.169.23.052.091.078.192.079.299-.001.119-.004.23-.006.341.085-.008.172-.016.26-.026-.01-.045-.016-.091-.017-.137-.014-.212-.009-.427.015-.638-.005-.083.02-.189.073-.287.021-.07.08-.158.162-.231.065-.068.156-.124.26-.156.069-.038.178-.061.29-.057l.15.019c-.04-.087-.061-.179-.057-.276v-.6c0-.193.078-.376.225-.53.103-.098.218-.162.348-.197l.18-.025c.13-.006.239.017.338.067.073.02.164.076.24.154.068.059.125.142.16.236.048.094.071.195.066.302v.6c0,.024-.005.048-.007.072.849-.17,1.515-.467,2.026-.909.612-.53,1.173-1.091,1.669-1.669.957-1.115,1.686-2.332,2.23-3.721.292-.745.439-1.556.581-2.339l.051-.28c.191-1.037.333-1.886.448-2.672.232-1.598.383-3.29.46-5.174.02-.492.45-.74.838-.725.043.002.086.008.128.016.002-.072.004-.147.006-.22-.007,0-.013,0-.02,0,0,.004,0,.009,0,.013-.162-.009-.326-.005-.486-.03-.324-.051-.55-.272-.618-.567-.003-.011-.004-.022-.006-.033-.006-.033-.012-.067-.014-.102,0-.01-.004-.02-.004-.031,0-.015.003-.029.004-.044,0-.018-.002-.034,0-.052.002-.019.007-.037.01-.056,0-.003,0-.005.001-.008ZM39.305,43.917c-.246.088-.503.145-.757.209-.084.021-.173.017-.201.019-.478,0-.802-.254-.864-.632-.062-.379.162-.726.567-.854.262-.082.527-.153.794-.217.416-.1.829.13.956.52.129.399-.072.805-.495.956ZM51.265,51.423c.129-.134.322-.214.545-.223.014,0,.027.003.041.003-.038-.06-.068-.126-.089-.194-.077-.253-.013-.514.176-.716.407-.434.641-.984.658-1.547.015-.484-.147-.94-.318-1.422-.051-.144-.103-.289-.149-.434-.447-1.394-.639-2.856-.824-4.271l-.016-.118c-.023-.173.036-.35.166-.496.157-.177.404-.283.613-.283.407.004.718.296.775.727.183,1.395.449,3.047,1.026,4.73.533,1.554.242,3.035-.82,4.17-.147.157-.334.24-.529.24-.009,0-.017-.003-.026-.003.013.024.027.046.037.072.048.094.071.195.066.302l.052.61c.021.25-.132.45-.225.546-.129.135-.323.214-.545.223-.009,0-.017,0-.026,0-.105,0-.204-.023-.295-.069-.073-.02-.164-.076-.24-.154-.068-.059-.124-.142-.16-.237-.048-.094-.071-.195-.066-.302l-.052-.61c-.021-.25.132-.45.224-.546ZM54.245,51.146c.16.089.283.241.351.436l.247.714c.063.182.037.391-.073.589-.088.16-.252.284-.462.348-.065.019-.129.029-.194.029-.046,0-.092-.005-.138-.015-.078,0-.182-.032-.277-.09-.16-.089-.284-.242-.351-.436l-.247-.714c-.063-.181-.037-.39.072-.589.088-.16.252-.284.462-.349.111-.033.222-.038.332-.014.077,0,.182.032.277.09ZM50.052,50.99c.184.04.37.175.474.345.055.083.089.18.097.283.021.104.015.208-.019.311l-.277.791c-.038.125-.105.235-.201.327l-.137.103c-.122.075-.259.113-.406.113-.066,0-.133-.008-.202-.022-.184-.04-.37-.175-.474-.345-.055-.083-.089-.179-.097-.282-.021-.104-.015-.208.019-.311l.278-.796c.034-.118.102-.229.199-.322l.137-.103c.176-.109.386-.138.607-.09ZM43.305,40.683c-.464.266-.916.157-1.137-.246-.24-.435-.127-.822.355-1.101,1.204-.696,2.52-.911,3.876-.742.937.117,1.859.373,2.781.592.362.086.567.348.578.597.004.734-.434,1.031-1.064.869-.617-.158-1.229-.355-1.855-.456-1.219-.197-2.419-.154-3.534.486ZM47.073,42.416c0,.375-.261.754-.759.754s-.759-.379-.759-.753c0-.194.068-.377.191-.514.098-.109.276-.239.568-.239.498,0,.759.379.759.753ZM46.334,52.347l-.251.749c-.062.185-.18.332-.351.437-.111.068-.245.103-.388.103-.066,0-.135-.007-.205-.023-.109-.025-.205-.073-.286-.144-.065-.037-.139-.114-.192-.208-.052-.077-.085-.173-.093-.276-.021-.104-.015-.208.019-.311l.251-.749c.062-.185.18-.332.351-.437.163-.1.373-.129.594-.081.109.025.205.073.286.144.066.037.139.114.192.208.052.077.085.173.093.276.021.104.015.208-.019.311ZM46.306,47.912c-.273,0-.479-.205-.479-.476s.206-.476.479-.476.479.205.479.476-.206.476-.479.476ZM47.395,53.291c-.128,0-.262-.033-.391-.098-.099-.051-.178-.121-.238-.209-.054-.052-.106-.146-.132-.252-.03-.089-.036-.193-.015-.297.008-.103.042-.2.101-.289l.395-.753c.085-.161.25-.286.464-.352.184-.057.395-.033.595.068.099.051.178.121.238.209.054.052.106.146.132.252.03.089.036.193.015.297-.008.103-.042.2-.101.289l-.395.753c-.085.161-.249.286-.464.352-.065.02-.134.03-.204.03ZM50.975,58.302l-.183-.024c-.129-.031-.225-.084-.306-.161-.065-.04-.137-.122-.189-.222-.053-.086-.086-.194-.091-.308-.019-.074-.016-.179.012-.284.01-.113.012-.228.005-.342,0-.155.035-.29.104-.413l.105-.144c.112-.119.228-.189.36-.228l.182-.028c.13-.006.235.017.331.066.098.036.184.095.255.175.07.067.128.161.161.268.039.072.063.183.059.299.012.202-.003.433-.051.732l-.004.021c-.036.135-.103.253-.197.352l-.137.112c-.143.089-.276.126-.417.127ZM52.621,59.274l-.003.169c.004.134-.027.262-.093.38l-.1.138c-.11.116-.222.184-.351.224l-.179.032c-.024.002-.047.003-.07.003-.101,0-.188-.019-.271-.057-.074-.017-.167-.069-.246-.144-.074-.06-.137-.146-.176-.246-.042-.065-.072-.17-.072-.283l.009-.53c-.005-.127.026-.257.092-.377l.1-.138c.109-.115.222-.184.35-.224l.179-.032c.13-.011.239.008.341.054.074.017.167.069.246.144.074.06.137.146.176.246.042.065.072.17.072.283-.001.125-.004.242-.006.359ZM52.976,58.275l-.203.028c-.141,0-.273-.038-.395-.111l-.139-.11c-.114-.117-.18-.236-.216-.37l-.004-.021c-.047-.299-.063-.53-.051-.751-.004-.098.019-.209.071-.311.021-.077.079-.17.159-.248.062-.07.147-.128.244-.165.097-.05.201-.073.312-.068l.174.023c.16.045.275.115.372.215l.107.142c.083.145.118.28.118.423-.007.125-.005.243.005.359.027.086.031.199.007.311,0,.081-.034.189-.093.287-.045.088-.117.17-.208.231-.055.057-.152.11-.261.137ZM54.455,60.396c-.129.135-.323.214-.545.223-.009,0-.017,0-.026,0-.105,0-.204-.023-.295-.069-.073-.02-.164-.076-.24-.154-.135-.129-.218-.317-.226-.523-.008-.201-.025-.404-.05-.603-.031-.108-.031-.242.006-.374l.068-.159c.096-.176.26-.3.47-.365.111-.033.222-.038.332-.014.078,0,.182.032.277.09.085.043.164.113.224.201.054.053.106.146.132.252.057.38.087.678.098.955.008.188-.072.379-.225.538ZM55.763,54.609c-.677.334-1.405.371-2.047.402-.676.034-1.361.054-2.038.059-.148.001-.299.003-.452.003-1.082,0-2.249-.063-3.234-.646-.239-.141-.374-.371-.371-.63.003-.28.164-.551.411-.69.232-.131.505-.124.748.02.779.46,1.743.449,2.677.439l.218-.002c.58-.005,1.169-.02,1.753-.046.087-.004.176-.006.266-.009.457-.013.93-.027,1.308-.214.452-.224.906.014,1.083.373.183.37.05.757-.322.941ZM57.051,52.745c-.022.092-.074.185-.149.264-.039.062-.118.132-.215.182-.13.066-.265.099-.393.099-.07,0-.139-.01-.204-.03-.214-.066-.379-.191-.464-.352l-.405-.771c-.049-.071-.082-.168-.09-.271-.021-.103-.015-.208.019-.31.022-.092.074-.186.149-.264.039-.062.118-.132.215-.182.201-.102.413-.126.597-.069.214.066.379.191.464.352l.405.771c.049.072.082.168.09.271.021.103.015.208-.019.31ZM56.376,42.364c0-.194.068-.377.191-.514.098-.109.276-.239.568-.239s.47.13.568.239c.123.137.191.319.191.514,0,.375-.261.754-.759.754s-.759-.379-.759-.753ZM59.121,52.987c-.008.103-.042.2-.101.289-.045.081-.118.157-.21.214-.054.051-.15.099-.257.124-.071.015-.14.023-.207.023-.144,0-.277-.035-.388-.103-.17-.105-.288-.252-.35-.437l-.251-.747c-.034-.104-.04-.209-.019-.312.008-.103.042-.2.101-.289.046-.082.119-.158.21-.214.055-.051.15-.1.258-.124.222-.048.432-.02.595.08.171.105.289.252.351.437l.251.747c.034.104.04.209.019.312ZM59.324,50.396c-.273,0-.479-.205-.479-.476s.206-.476.479-.476.479.205.479.476-.206.476-.479.476ZM61.602,39.76c-.052.351-.251.61-.611.676-.16.029-.366.017-.502-.063-1.564-.916-3.189-.746-4.833-.302-.265.071-.525.162-.791.227-.454.111-.815-.092-.939-.514-.116-.395.091-.85.505-.962.794-.214,1.598-.4,2.405-.561.389-.078.795-.075,1.075-.098,1.246.037,2.329.242,3.306.844.279.172.434.423.385.754Z"/>
    <g>
      <g>
        <path class="cls-3" d="M67.294,32.576c-.078-.218-.191-.452-.356-.605-1.038-.962-1.715-2.155-2.178-3.463-.561-1.584-1.489-2.875-2.817-3.895-1.055-.81-2.258-1.326-3.478-1.82-1.842-.745-3.726-1.227-5.738-1.057-1.286.109-2.537.401-3.505,1.263-.596.531-.984.43-1.619.134-1.874-.874-3.808-1.195-5.858-.502-1.554.526-2.842,1.33-3.721,2.739-.278.445-.548.904-.888,1.3-1.397,1.624-2.531,3.413-3.461,5.339-.735,1.52-1.028,3.109-.747,4.778.198,1.177.742,2.224,1.363,3.23.328.532.678,1.051.999,1.587.07.117.128.304.084.419-.29.762-.123,1.506.044,2.253.33,1.476.662,2.951.993,4.426.261,1.167.745,2.152,2.001,2.545.108.034.198.213.245.343.35.963.664,1.94,1.032,2.896.734,1.906,1.991,3.493,3.181,5.118.921,1.259,2.236,1.976,3.631,2.571.353.151.742.128.942-.18.084-.079.152-.174.197-.278.031-.071.047-.142.055-.211.026.013.052.029.075.035.089.045.186.068.3.068.012,0,.025,0,.038,0l.18-.025c.13-.035.245-.099.348-.197.147-.154.225-.337.225-.53v-.6c.004-.112-.021-.219-.061-.286-.035-.101-.094-.19-.165-.253-.076-.078-.166-.134-.24-.154-.099-.05-.207-.073-.338-.067l-.18.025c-.13.035-.245.099-.348.197-.147.153-.225.337-.225.53v.593c-.007-.004-.013-.008-.021-.012-.073-.032-.151-.068-.227-.102,0-.004,0-.007,0-.011-.164-.07-.326-.142-.485-.215-.457-.22-.924-.47-1.346-.761-.026-.019-.053-.036-.078-.055-.034-.025-.067-.052-.101-.078-.07-.054-.138-.11-.204-.168-.054-.048-.109-.096-.161-.147-.015-.015-.03-.03-.045-.045-.142-.142-.278-.295-.41-.454-.016-.02-.033-.038-.049-.059,0,0-.001-.002-.002-.003-.173-.231-.346-.462-.517-.694-.107-.152-.212-.305-.317-.458-.128-.187-.253-.37-.377-.544-.173-.242-.346-.492-.518-.747-.428-.667-.821-1.353-1.155-2.073-.002-.004-.004-.008-.006-.012-.298-.715-.554-1.458-.798-2.188-.152-.481-.328-.957-.416-1.449-.103-.572-.348-.871-.934-.815-.4.039-.66-.125-.823-.452-.127-.255-.238-.527-.298-.804-.195-.891-.344-1.793-.548-2.682-.173-.755-.423-1.492-.585-2.249-.067-.313-.043-.668.03-.983.078-.337.263-.649.402-.972.168.017.43.113.647.052.38-.107.747-.288,1.095-.481.291-.162.381-.457.315-.781-.063-.308-.247-.524-.568-.569-.19-.027-.387-.005-.668-.005.155-.12.252-.19.343-.268.456-.39.948-.746,1.356-1.181.9-.96,1.257-2.196,1.659-3.411.194-.587.355-1.257.747-1.694,1.108-1.232,2.517-1.87,4.225-1.619.683.1,1.364.225,2.046.036.65-.181,1.299-.369,1.937-.589,1.186-.41,2.369-.434,3.579-.107,2.516.679,4.584,2.019,6.162,4.101.833,1.098,1.793,2.053,3.016,2.721.292.16.571.342.902.541-.404.193-.738.373-.736.848.002.467.343.642.735.82-.107.064-.148.089-.189.114-.349.215-.483.516-.395.888.074.312.38.536.767.548.25.007.503.016.751-.005.326-.028.564-.196.665-.52.1-.321.007-.591-.237-.813-.068-.061-.14-.117-.25-.209.561-.142.68-.533.672-1.01,1.002-.172,1.144-.302,1.41-1.274.069-.253.127-.509.185-.765.34-1.484.323-2.955-.196-4.399Z"/>
        <path class="cls-3" d="M38.844,42.441c-.266.064-.532.135-.794.217-.404.128-.629.475-.567.854.062.378.385.633.864.632.028-.002.117.001.201-.019.254-.063.511-.121.757-.209.423-.151.624-.556.495-.956-.126-.391-.539-.62-.956-.52Z"/>
        <path class="cls-3" d="M65.114,41.741c-.053-.011-.107-.018-.162-.018h-.656c-.065-.002-.125.006-.179.019-.315.055-.541.28-.592.584,0,.003,0,.005-.001.008-.003.019-.008.036-.009.056-.001.018,0,.035,0,.052,0,.015-.004.029-.004.044,0,.011.003.02.004.031.002.035.008.069.014.102.002.011.003.022.006.033.068.295.293.516.618.567.159.025.323.021.486.03,0-.004,0-.009,0-.013.125,0,.251.009.375-.002.443-.04.751-.375.736-.792-.014-.378-.255-.639-.636-.7Z"/>
        <path class="cls-3" d="M57.894,42.363c0-.194-.068-.377-.191-.514-.098-.109-.276-.239-.568-.239s-.47.13-.568.239c-.123.137-.191.32-.191.514,0,.374.261.753.759.753s.759-.379.759-.754Z"/>
        <path class="cls-3" d="M45.746,41.903c-.123.137-.191.32-.191.514,0,.374.261.753.759.753s.759-.379.759-.754-.261-.753-.759-.753c-.292,0-.47.13-.568.239Z"/>
        <path class="cls-3" d="M47.992,54.427c.985.582,2.152.646,3.234.646.152,0,.303-.001.452-.003.677-.006,1.363-.025,2.038-.059.642-.032,1.37-.068,2.047-.403.372-.184.505-.571.322-.941-.177-.359-.631-.597-1.083-.373-.378.187-.851.201-1.308.214-.09.003-.179.005-.266.009-.583.026-1.173.041-1.753.046l-.218.002c-.934.011-1.898.021-2.677-.439-.243-.144-.516-.151-.748-.02-.247.139-.408.41-.411.69-.003.259.133.489.371.63Z"/>
        <path class="cls-3" d="M44.661,53.263c.053.094.126.17.192.208.081.071.176.119.286.144.07.015.138.023.205.023.144,0,.277-.035.388-.103.171-.105.289-.252.351-.437l.251-.749c.034-.103.04-.207.019-.311-.008-.103-.041-.199-.093-.276-.053-.094-.126-.17-.192-.208-.081-.071-.176-.119-.286-.144-.22-.048-.431-.019-.594.081-.171.105-.289.252-.351.437l-.251.749c-.034.103-.04.207-.019.311.008.103.041.199.093.276Z"/>
        <path class="cls-3" d="M57.607,53.096c.062.185.18.332.35.437.111.068.244.103.388.103.067,0,.136-.008.207-.023.108-.025.203-.073.257-.124.092-.057.165-.133.21-.214.059-.089.093-.186.101-.289.021-.103.015-.208-.019-.312l-.251-.747c-.062-.185-.18-.332-.351-.437-.163-.1-.373-.129-.595-.08-.108.024-.203.073-.258.124-.091.057-.164.133-.21.214-.059.089-.093.185-.101.289-.021.103-.015.208.019.312l.251.747Z"/>
        <path class="cls-3" d="M46.766,52.983c.06.088.139.158.238.209.129.065.263.098.391.098.07,0,.139-.01.204-.03.214-.066.379-.191.464-.352l.395-.753c.059-.089.093-.186.101-.289.021-.104.015-.207-.015-.297-.026-.106-.078-.2-.132-.252-.06-.088-.139-.158-.238-.209-.2-.101-.411-.125-.595-.068-.214.066-.379.191-.464.352l-.395.753c-.059.089-.093.186-.101.289-.021.104-.015.207.015.297.026.106.078.199.132.252Z"/>
        <path class="cls-3" d="M56.574,51.393c-.085-.161-.249-.286-.464-.352-.184-.057-.395-.033-.597.069-.097.05-.176.12-.215.182-.075.079-.127.172-.149.264-.034.103-.04.207-.019.31.008.103.041.199.09.271l.405.77c.085.161.249.286.464.352.065.02.134.03.204.03.129,0,.263-.033.393-.099.097-.05.176-.12.215-.182.075-.079.127-.172.149-.264.034-.103.04-.207.019-.31-.008-.103-.041-.199-.09-.271l-.405-.771Z"/>
        <path class="cls-3" d="M49.307,51.183c-.097.093-.165.205-.199.322l-.278.796c-.034.103-.04.207-.019.311.008.103.042.2.097.282.104.17.29.305.474.345.068.015.136.022.202.022.146,0,.284-.037.406-.113l.137-.103c.095-.092.163-.202.201-.327l.277-.791c.034-.103.04-.207.019-.311-.008-.103-.041-.2-.097-.283-.104-.17-.29-.305-.474-.345-.221-.048-.431-.019-.607.09l-.137.103Z"/>
        <path class="cls-3" d="M51.265,51.423c-.093.097-.246.296-.225.546l.052.61c-.004.107.018.208.066.302.035.095.092.177.16.237.075.078.166.134.24.154.092.046.191.069.295.069.009,0,.017,0,.026,0,.222-.01.416-.089.545-.223.093-.097.245-.296.225-.546l-.052-.61c.004-.107-.018-.208-.066-.302-.01-.026-.024-.048-.037-.072.009,0,.017.003.026.003.196,0,.383-.083.529-.24,1.062-1.135,1.354-2.616.82-4.17-.577-1.683-.843-3.335-1.026-4.73-.057-.431-.368-.723-.775-.727-.209,0-.456.106-.613.283-.13.146-.188.323-.166.496l.016.118c.186,1.414.378,2.877.824,4.271.046.145.098.289.149.434.172.482.334.938.318,1.422-.018.563-.252,1.113-.658,1.547-.189.202-.253.463-.176.716.021.069.051.134.089.194-.014,0-.027-.004-.041-.003-.222.01-.416.089-.545.223Z"/>
        <path class="cls-3" d="M54.245,51.146c-.095-.058-.2-.09-.277-.09-.11-.024-.221-.019-.332.014-.209.065-.373.189-.462.349-.109.198-.135.407-.072.589l.247.714c.067.195.191.347.351.436.095.058.2.09.277.09.046.01.092.015.138.015.065,0,.129-.01.194-.029.209-.065.373-.189.462-.348.11-.198.135-.407.073-.589l-.247-.714c-.068-.195-.191-.347-.351-.436Z"/>
        <path class="cls-3" d="M51.561,56.391c-.071-.08-.157-.139-.255-.175-.097-.05-.201-.073-.331-.066l-.182.028c-.131.038-.247.109-.36.228l-.105.144c-.069.123-.104.258-.104.413.006.114.005.229-.005.342-.028.105-.031.209-.012.284.005.114.038.222.091.308.052.1.124.182.189.222.081.077.177.13.306.161l.183.024c.141,0,.273-.038.417-.127l.137-.112c.095-.099.161-.218.197-.352l.004-.021c.047-.299.063-.53.051-.732.004-.117-.02-.228-.059-.299-.033-.107-.091-.2-.161-.268Z"/>
        <path class="cls-3" d="M53.407,56.527l-.107-.142c-.096-.1-.212-.17-.372-.215l-.174-.023c-.111-.005-.215.019-.312.068-.098.036-.183.095-.244.165-.081.078-.138.172-.159.248-.051.102-.075.213-.071.311-.012.22.003.452.051.751l.004.021c.036.134.102.253.216.37l.139.11c.121.073.254.111.395.111l.203-.027c.109-.027.206-.08.261-.137.09-.061.163-.143.208-.231.06-.098.093-.205.093-.287.024-.112.02-.225-.007-.311-.01-.116-.012-.235-.005-.359,0-.143-.036-.278-.118-.423Z"/>
        <path class="cls-3" d="M53.91,60.62c.222-.009.416-.089.545-.223.153-.159.233-.35.225-.538-.011-.277-.041-.575-.098-.955-.026-.106-.078-.199-.132-.252-.06-.088-.139-.158-.224-.201-.095-.058-.2-.09-.277-.09-.11-.024-.221-.019-.332.014-.209.065-.373.189-.469.365l-.068.159c-.037.132-.037.266-.006.374.025.2.042.402.05.603.008.206.091.393.226.523.076.078.167.134.24.154.092.046.19.069.295.069.009,0,.017,0,.026,0Z"/>
        <path class="cls-3" d="M53.294,61.768c-.034-.032-.07-.057-.107-.08.028-.021.056-.037.083-.064l.106-.134c.071-.117.108-.246.108-.382v-.23c.004-.112-.021-.219-.061-.286-.035-.101-.094-.19-.165-.253-.076-.078-.167-.134-.24-.154-.099-.05-.207-.073-.338-.067l-.18.025c-.13.035-.244.099-.359.21l-.106.134c-.071.117-.108.246-.108.383v.23c-.004.113.021.219.061.285.035.101.094.19.165.253.04.041.084.075.128.102-.035.027-.07.051-.103.086l-.101.138c-.066.12-.097.25-.092.377l-.009.53c0,.107.027.207.079.299.039.093.099.173.169.23.079.075.172.127.246.144.083.037.17.057.271.057.023,0,.046,0,.07-.003l.179-.032c.129-.04.241-.109.35-.223l.101-.138c.066-.118.097-.246.093-.38l.003-.154c.003-.122.005-.244.006-.374,0-.107-.027-.207-.079-.299-.039-.093-.099-.173-.169-.23Z"/>
        <path class="cls-3" d="M51.563,61.769c-.02-.019-.043-.032-.065-.049.024-.019.049-.033.073-.056l.106-.134c.071-.117.108-.246.108-.382v-.31c.004-.107-.018-.208-.067-.302-.035-.095-.092-.177-.16-.237-.075-.078-.166-.134-.24-.154-.099-.05-.207-.072-.338-.067l-.18.025c-.115.031-.217.09-.318.178.078-.117.125-.257.131-.407.008-.198.024-.398.049-.594.032-.127.03-.257-.015-.409l-.066-.148c-.089-.16-.252-.284-.463-.349-.109-.033-.22-.037-.297-.018-.111.005-.215.037-.298.088-.097.05-.177.12-.215.182-.075.079-.127.172-.157.297-.053.363-.083.66-.094.936h0c-.007.188.072.379.225.538.129.135.323.214.546.223.009,0,.017,0,.026,0,.104,0,.2-.022.264-.057.09-.028.168-.077.233-.136l-.015.019c-.071.117-.108.246-.108.383v.309c-.004.107.018.208.067.302.035.095.092.177.16.237.027.028.057.049.087.071-.031.025-.063.046-.093.078l-.101.138c-.067.12-.097.25-.092.375l-.01.533c0,.107.027.207.079.299.039.093.099.173.169.23.079.075.172.127.246.144.083.037.17.057.271.057.022,0,.046,0,.07-.003l.179-.032c.129-.04.241-.109.35-.224l.1-.138c.066-.118.097-.246.093-.38l.003-.154c.003-.122.005-.244.006-.374,0-.107-.027-.207-.079-.299-.039-.093-.099-.173-.169-.23Z"/>
        <path class="cls-3" d="M52.425,59.961l.1-.138c.065-.118.097-.246.093-.38l.003-.169c.002-.117.005-.234.006-.359,0-.113-.03-.218-.072-.283-.039-.1-.102-.186-.176-.246-.079-.075-.172-.127-.246-.144-.101-.046-.21-.065-.341-.054l-.179.032c-.129.04-.241.109-.35.224l-.1.138c-.066.12-.097.25-.092.377l-.009.531c0,.113.03.218.072.283.039.1.102.186.176.246.079.075.172.127.246.144.082.037.17.057.271.057.022,0,.046-.001.07-.003l.179-.032c.128-.04.241-.108.351-.224Z"/>
        <path class="cls-3" d="M49.957,61.565c-.035-.095-.092-.177-.16-.236-.076-.078-.167-.134-.24-.154-.099-.05-.207-.073-.338-.067l-.18.025c-.13.035-.245.099-.359.21l-.106.134c-.071.118-.108.246-.107.406.021.189.026.382.013.578-.004.107.018.208.066.302.035.095.092.177.16.236.076.078.167.134.24.154.089.045.186.068.3.068.012,0,.025,0,.038,0l.18-.025c.13-.035.245-.099.359-.21l.106-.134c.07-.115.106-.242.108-.376.014-.212.009-.427-.014-.608.004-.107-.018-.208-.066-.302Z"/>
        <path class="cls-3" d="M64.524,43.439c-.388-.015-.818.232-.838.725-.077,1.883-.228,3.576-.46,5.174-.114.786-.257,1.635-.448,2.672l-.051.28c-.142.784-.289,1.594-.581,2.339-.544,1.389-1.273,2.606-2.23,3.721-.496.578-1.058,1.14-1.669,1.669-.511.443-1.177.739-2.026.909.002-.024.007-.048.007-.072v-.6c.004-.107-.018-.208-.067-.302-.035-.095-.092-.177-.16-.236-.076-.078-.167-.134-.24-.154-.099-.05-.208-.073-.338-.067l-.18.025c-.13.035-.245.099-.348.197-.147.153-.225.337-.225.53v.6c-.004.097.017.189.057.276l-.15-.019c-.112-.004-.221.019-.29.057-.103.032-.194.088-.26.156-.082.073-.142.162-.162.231-.053.098-.079.204-.073.287-.024.212-.029.426-.015.638.002.134.038.26.123.398l.108.131c.096.092.211.156.367.196l.172.021c.009,0,.017,0,.026,0,.104,0,.2-.022.264-.057.103-.032.194-.088.26-.156.082-.073.142-.162.162-.231.053-.098.079-.204.074-.323-.013-.19-.009-.383.014-.595,0-.09-.024-.177-.059-.265.046.01.094.016.147.016.012,0,.025,0,.038,0l.1-.014c-.002.056,0,.112.011.166.066.348.369.661.785.661.053,0,.107-.005.163-.016,1.941-.368,3.237-1.579,4.348-2.833.558-.629,1.066-1.275,1.51-1.92.331-.48.563-1.017.786-1.536.078-.18.155-.359.236-.535.701-1.522.944-3.241,1.179-4.903.038-.271.076-.54.116-.805.273-1.828.452-3.743.533-5.693.019-.466-.347-.726-.719-.741Z"/>
        <path class="cls-3" d="M46.785,47.436c0-.271-.206-.476-.479-.476s-.479.205-.479.476.206.476.479.476.479-.205.479-.476Z"/>
        <path class="cls-3" d="M59.803,49.919c0-.271-.206-.476-.479-.476s-.479.205-.479.476.206.476.479.476.479-.205.479-.476Z"/>
      </g>
      <g>
        <path class="cls-3" d="M57.911,38.163c1.246.037,2.329.242,3.306.843.279.172.434.423.385.754-.052.351-.251.61-.611.676-.16.029-.366.017-.502-.063-1.564-.916-3.189-.745-4.833-.302-.265.071-.525.162-.791.227-.454.111-.815-.092-.939-.514-.116-.395.09-.85.505-.962.794-.214,1.598-.4,2.405-.561.39-.078.795-.075,1.076-.098"/>
        <path class="cls-3" d="M49.757,39.783c.004.734-.434,1.031-1.064.869-.617-.158-1.229-.355-1.855-.456-1.219-.197-2.419-.154-3.534.486-.464.266-.916.157-1.137-.245-.24-.435-.127-.823.355-1.101,1.204-.696,2.52-.911,3.876-.742.937.117,1.859.373,2.781.592.362.086.567.348.578.597"/>
      </g>
    </g>
  </g>
  <g>
    <g>
      <path class="cls-1" d="M27.185,73.317h1.74v3.677c0,.436-.125.762-.374.979-.25.217-.656.325-1.218.325-.306,0-.599-.026-.881-.077v-.984c.119.054.223.081.311.081.141,0,.246-.035.316-.104.07-.069.105-.173.105-.311v-3.586Z"/>
      <path class="cls-1" d="M31.164,73.317h1.705l1.937,4.904h-1.867l-.261-.974h-1.41l-.269.974h-1.756l1.921-4.904ZM31.982,74.656l-.472,1.712h.932l-.46-1.712Z"/>
      <path class="cls-1" d="M34.343,73.317h1.935l.627,1.554.617-1.554h1.962l-1.735,2.658v2.246h-1.719v-2.246l-1.687-2.658Z"/>
    </g>
    <g>
      <path class="cls-1" d="M44.53,76.755c.566.351,1.1.527,1.603.527.257,0,.476-.055.659-.165.183-.11.274-.244.274-.401,0-.127-.065-.239-.195-.337-.134-.098-.383-.209-.748-.332-.516-.17-.91-.359-1.181-.567-.275-.208-.412-.473-.412-.794,0-.407.214-.751.643-1.031.429-.28.997-.42,1.703-.42.485,0,.989.087,1.513.26v1.171c-.464-.298-.909-.446-1.334-.446-.211,0-.394.042-.548.127-.155.084-.232.186-.232.306,0,.117.063.218.19.302.123.084.351.176.685.274.552.164.97.352,1.255.563.285.213.427.5.427.861,0,.455-.245.842-.736,1.163-.49.321-1.089.482-1.795.482-.548,0-1.139-.11-1.772-.33v-1.213Z"/>
      <path class="cls-1" d="M49.72,73.317h4.192v.988h-2.478v.903h2.31v.956h-2.31v1.055h2.478v1.002h-4.192v-4.904Z"/>
      <path class="cls-1" d="M54.836,73.317h1.719v3.902h2.362v1.002h-4.081v-4.904Z"/>
      <path class="cls-1" d="M59.388,73.317h4.192v.988h-2.478v.903h2.31v.956h-2.31v1.055h2.478v1.002h-4.192v-4.904Z"/>
      <path class="cls-1" d="M68.2,78.098c-.425.134-.83.2-1.213.2-.826,0-1.484-.24-1.972-.721-.489-.48-.733-1.078-.733-1.793,0-.441.105-.858.314-1.251.209-.394.533-.708.973-.944.439-.236.942-.353,1.508-.353.348,0,.722.06,1.123.179v1.121c-.278-.183-.577-.274-.896-.274-.397,0-.711.134-.941.401-.23.267-.345.654-.345,1.16,0,.434.115.781.345,1.042.23.261.535.392.915.392.278,0,.585-.088.923-.264v1.104Z"/>
      <path class="cls-1" d="M68.903,73.317h4.645v.995h-1.492v3.909h-1.714v-3.909h-1.439v-.995Z"/>
    </g>
  </g>
</svg>