<?xml version="1.0" encoding="UTF-8"?>
<svg id="_圖層_1" data-name="圖層_1" xmlns="http://www.w3.org/2000/svg" viewBox="0 0 100 100">
  <defs>
    <style>
      .cls-1 {
        fill: #e27368;
      }

      .cls-2 {
        fill: #fff;
      }

      .cls-3 {
        fill: #221714;
      }

      .cls-4 {
        fill: #ffab4e;
      }
    </style>
  </defs>
  <path class="cls-2" d="M52.871,46.206c-.312-.918-.903-1.08-1.578-1.19-.176-2.22-.727-4.366-1.55-6.453-.822-2.087-1.167-4.843-2.587-6.599-2.23-2.756-10.202-1.787-13.91-.565-.586.193-.912.613-1.027,1.083-.208.848-.424,1.693-.795,2.484-.975,2.08-1.248,4.443-1.845,6.689-.87,3.272-1.506,6.193-.446,9.501.153.479.333,1.005.869,1.09,3.811.608,7.691,1.054,11.47,1.835.998.206,1.6.44,2.164,1.345.362.581.022,1.406.587,1.844.911.706,2.277.114,3.123-.569,1.026-.829,2.007-2.016,2.691-3.145.812-1.339.903-2.898,1.81-4.157.667-.926,1.442-1.969,1.027-3.194Z"/>
  <g>
    <polygon class="cls-4" points="53.303 27.015 53.305 27.014 53.303 27.015 53.303 27.015"/>
    <path class="cls-1" d="M64.622,43.78c-2.98-1.392-3.874-3.691-4.925-6.668-.944-2.674-2.906-6.359-5.555-8.59.356-.16.702-.337.986-.62,1.08-1.074,1.339-3.385.117-4.155-1.06-.667-2.951-.611-3.872.164-.206.174-1.402,3.633-.747,2.455-2.176-.876-4.802-1.717-7.103-1.504-.314.029-.574.138-.789.29.106-.301.176-.614.189-.94.056-1.415-.818-2.786-2.221-3.121-1.213-.29-2.559.224-3.16,1.333-.615,1.135.601,2.065.86,3.4-.796.196-2.539,2.288-3.334,2.484-1.95.479-1.038,2.255.916,1.774.67-.165,1.34-.329,2.009-.494.217.434.655.745,1.335.717,2.478-.103,4.828.26,7.06,1.099.01.137,2.018,3.2,2.072,3.352,1.165,3.24.882,1.908,2.047,5.147.415,1.154.218,4.099,1.142,4.969.311.292.795.438.98.846.27.599.006,1.861-.325,2.388-1.438,2.286-2.53,4.255-.64,6.611,1.462,1.823,4.031,2.504,6.277,2.551,2.33.049,4.721-.651,6.629-1.995,2.217-1.562,3.172-3.393,3.179-6.109.006-2.463-.844-4.316-3.126-5.383Z"/>
  </g>
  <path class="cls-1" d="M42.042,54.212c-2.412-.973-5.35-1.251-7.88-1.834-2.129-.491-3.627-.857-5.196.939-1.745,1.999-3.277,4.211-4.665,6.482-.403.659-.278,1.298.091,1.751-.029.139-.047.286-.038.45.113,2.18,1.912,2.761,3.667,3.426,2.391.906,4.82,1.742,7.356,2.083,2.722.367,3.695-1.027,5.287-3.087,1.28-1.656,3.456-3.602,3.624-5.839.129-1.72-.614-3.714-2.246-4.372Z"/>
  <g>
    <path class="cls-3" d="M28.688,78.119v.075c.11-.145.23-.251.36-.319.13-.068.28-.102.45-.102.165,0,.312.036.442.107.13.072.227.173.291.304.041.077.068.159.08.247s.018.202.018.339v1.163c0,.125-.029.22-.086.284s-.132.096-.223.096c-.093,0-.168-.033-.227-.098-.058-.066-.087-.16-.087-.282v-1.041c0-.206-.029-.364-.086-.473-.057-.109-.171-.163-.342-.163-.112,0-.213.033-.304.099-.092.066-.159.157-.202.274-.03.093-.046.267-.046.522v.783c0,.127-.029.222-.088.285-.059.063-.135.095-.228.095-.09,0-.164-.033-.222-.098s-.087-.16-.087-.282v-1.806c0-.119.026-.208.078-.267.052-.059.123-.088.213-.088.055,0,.104.013.149.039.044.026.08.065.107.117.027.052.04.115.04.19Z"/>
    <path class="cls-3" d="M32.205,77.483c-.087,0-.161-.027-.223-.08-.062-.053-.093-.129-.093-.227,0-.088.032-.161.095-.219.063-.057.137-.086.221-.086.081,0,.152.026.215.078.062.052.094.128.094.227,0,.096-.03.171-.091.226s-.134.081-.218.081ZM32.514,78.128v1.806c0,.125-.03.22-.089.284s-.135.096-.227.096-.166-.033-.223-.098-.086-.16-.086-.282v-1.788c0-.123.029-.216.086-.279.057-.062.132-.094.223-.094s.167.031.227.094c.059.063.089.15.089.261Z"/>
    <path class="cls-3" d="M35.654,80.028l-.552-.907-.339.32v.497c0,.12-.032.213-.095.278-.063.065-.136.097-.219.097-.096,0-.171-.032-.227-.096-.055-.064-.082-.159-.082-.284v-2.665c0-.139.027-.244.08-.317.054-.072.13-.109.229-.109.096,0,.173.033.229.098.056.066.085.163.085.291v1.515l.703-.737c.087-.091.154-.154.199-.188s.101-.05.167-.05c.078,0,.143.025.194.074s.078.112.078.187c0,.091-.085.214-.254.366l-.332.304.641,1.007c.047.075.081.132.102.171s.031.076.031.111c0,.099-.027.178-.081.235s-.126.086-.214.086c-.076,0-.135-.021-.176-.062-.042-.041-.097-.116-.167-.224Z"/>
    <path class="cls-3" d="M39.883,79.044c0,.186-.029.358-.087.515-.058.157-.142.292-.252.405-.11.113-.241.2-.394.26-.152.06-.324.09-.515.09-.189,0-.36-.03-.511-.091-.151-.061-.282-.149-.392-.262-.111-.114-.195-.248-.252-.403-.057-.155-.086-.326-.086-.514,0-.189.029-.362.087-.52.058-.157.141-.291.25-.403.108-.111.239-.197.394-.258.154-.06.324-.09.511-.09.189,0,.361.03.515.091.154.061.286.148.396.261.11.113.194.247.251.403.057.156.086.328.086.515ZM39.256,79.044c0-.255-.056-.453-.168-.595-.112-.142-.263-.213-.452-.213-.122,0-.23.032-.323.095-.093.063-.165.157-.215.28-.05.123-.075.268-.075.432,0,.163.025.306.074.428.05.122.12.216.213.28.093.065.201.098.327.098.189,0,.34-.071.452-.214.112-.143.168-.34.168-.592Z"/>
    <path class="cls-3" d="M43.999,77.201v.955c.117-.122.237-.215.359-.28.122-.065.273-.097.453-.097.208,0,.39.049.546.148.157.098.278.241.364.428.086.187.13.408.13.665,0,.189-.024.363-.072.521-.048.158-.118.295-.21.411s-.203.206-.333.269c-.131.063-.274.095-.432.095-.096,0-.186-.011-.271-.034-.085-.023-.157-.053-.216-.09s-.11-.076-.152-.116c-.042-.04-.097-.099-.166-.178v.062c0,.117-.028.207-.085.267-.057.06-.128.09-.215.09-.088,0-.159-.03-.212-.09s-.079-.149-.079-.267v-2.729c0-.127.026-.222.077-.287.051-.065.123-.097.214-.097.096,0,.17.031.222.093.052.062.078.15.078.264ZM44.029,79.058c0,.249.057.44.171.573.114.133.263.2.447.2.157,0,.293-.069.406-.205.114-.136.171-.332.171-.587,0-.165-.024-.307-.071-.426-.048-.119-.115-.211-.202-.276s-.189-.097-.304-.097c-.119,0-.225.032-.318.097s-.167.159-.22.282c-.053.123-.08.269-.08.438Z"/>
    <path class="cls-3" d="M48.87,79.962c-.151.117-.297.206-.438.264-.141.059-.299.088-.475.088-.16,0-.301-.032-.422-.095-.122-.063-.215-.149-.28-.258-.066-.108-.098-.226-.098-.352,0-.171.054-.317.162-.437.108-.121.257-.202.447-.243.04-.009.138-.03.295-.062.157-.032.292-.062.404-.088.112-.027.234-.059.365-.097-.008-.165-.041-.286-.099-.363-.059-.077-.181-.116-.365-.116-.159,0-.278.022-.358.067-.08.044-.149.111-.206.199-.058.089-.098.147-.122.175s-.074.042-.152.042c-.07,0-.131-.022-.182-.067s-.077-.103-.077-.173c0-.11.039-.216.117-.32.078-.104.199-.189.364-.256.165-.067.37-.101.616-.101.275,0,.491.032.648.097.157.065.268.168.333.308.065.141.097.327.097.559,0,.147,0,.271-.001.373,0,.103-.002.216-.003.341,0,.118.019.24.058.368.039.127.058.209.058.246,0,.064-.03.123-.09.175s-.128.079-.205.079c-.064,0-.127-.03-.19-.09-.063-.06-.129-.148-.199-.262ZM48.829,79.058c-.091.034-.225.069-.399.107-.175.037-.296.065-.363.082-.067.018-.131.052-.192.103s-.091.122-.091.214c0,.094.036.175.107.242.072.066.165.099.282.099.123,0,.238-.027.342-.081s.181-.124.23-.21c.056-.094.085-.25.085-.467v-.089Z"/>
    <path class="cls-3" d="M52.57,80.028l-.552-.907-.339.32v.497c0,.12-.032.213-.095.278s-.136.097-.219.097c-.096,0-.171-.032-.227-.096-.055-.064-.082-.159-.082-.284v-2.665c0-.139.027-.244.08-.317.054-.072.13-.109.229-.109.096,0,.173.033.229.098.056.066.085.163.085.291v1.515l.703-.737c.087-.091.154-.154.199-.188s.101-.05.167-.05c.078,0,.143.025.194.074s.078.112.078.187c0,.091-.085.214-.254.366l-.332.304.641,1.007c.047.075.081.132.102.171s.031.076.031.111c0,.099-.027.178-.081.235s-.126.086-.214.086c-.076,0-.135-.021-.176-.062-.042-.041-.097-.116-.167-.224Z"/>
    <path class="cls-3" d="M56.205,79.198h-1.222c.002.142.03.267.086.375.056.108.13.19.222.245.092.055.194.082.306.082.075,0,.143-.009.205-.026.062-.018.122-.045.18-.082.058-.038.111-.078.16-.12.049-.043.112-.101.19-.174.032-.028.078-.042.137-.042.064,0,.116.018.156.053s.059.085.059.149c0,.056-.022.122-.066.198-.044.075-.111.148-.2.217-.089.07-.201.127-.336.173-.135.046-.29.069-.466.069-.402,0-.714-.114-.936-.343-.223-.229-.334-.54-.334-.932,0-.184.027-.356.082-.514.055-.158.135-.293.24-.406.105-.113.235-.199.389-.26.154-.06.325-.09.513-.09.244,0,.453.051.628.155.175.103.306.236.392.399.087.163.13.33.13.499,0,.157-.045.259-.135.306-.09.047-.217.07-.38.07ZM54.982,78.842h1.133c-.015-.213-.073-.373-.173-.479-.1-.106-.232-.159-.395-.159-.156,0-.284.054-.384.162-.1.107-.16.267-.182.477Z"/>
    <path class="cls-3" d="M58.804,79.413v.522c0,.127-.03.222-.089.285s-.135.095-.227.095c-.09,0-.164-.032-.222-.096s-.087-.159-.087-.284v-1.74c0-.28.101-.421.304-.421.104,0,.179.033.224.098.046.066.071.163.075.291.075-.128.151-.225.23-.291.078-.066.183-.098.315-.098s.259.033.382.098c.123.066.186.153.186.261,0,.077-.027.139-.079.189s-.109.074-.17.074c-.023,0-.078-.014-.166-.042s-.165-.042-.232-.042c-.091,0-.166.024-.224.072-.058.048-.103.119-.135.214-.032.094-.054.207-.066.338-.012.13-.018.29-.018.477Z"/>
    <path class="cls-3" d="M61.752,80.392l.057-.139-.769-1.936c-.048-.112-.071-.192-.071-.243,0-.053.014-.103.042-.149.027-.046.065-.083.113-.11s.098-.041.15-.041c.09,0,.158.029.204.086.046.058.086.139.121.246l.529,1.538.501-1.431c.04-.116.075-.207.107-.272.032-.066.066-.11.102-.133s.087-.034.152-.034c.047,0,.093.013.136.038s.077.059.101.102c.024.043.035.088.035.135-.006.029-.016.07-.03.123-.014.054-.031.108-.051.163l-.815,2.133c-.07.187-.139.335-.206.442-.067.107-.156.189-.267.246-.111.057-.259.086-.447.086-.183,0-.32-.02-.412-.059-.092-.04-.138-.112-.138-.218,0-.072.022-.127.065-.166.043-.039.108-.058.194-.058.034,0,.066.005.098.014.04.009.074.014.103.014.072,0,.128-.011.169-.032.041-.022.078-.059.111-.111.033-.053.07-.13.113-.232Z"/>
  </g>
  <g>
    <path class="cls-3" d="M55.091,40.483c.234.318.635.477,1.001.262.314-.183.498-.681.263-1.001-.287-.391-.33-.844-.376-1.316-.058-.591-.147-1.177-.316-1.748-.342-1.152-.93-2.199-1.705-3.113-.256-.301-.771-.263-1.035,0-.299.299-.256.732,0,1.035.675.795,1.152,1.747,1.408,2.756.261,1.027.104,2.232.76,3.124Z"/>
    <path class="cls-3" d="M33.789,41.887c-.941,0-.943,1.463,0,1.463s.943-1.463,0-1.463Z"/>
    <path class="cls-3" d="M43.272,45.075c.941,0,.943-1.463,0-1.463s-.943,1.463,0,1.463Z"/>
    <path class="cls-3" d="M34.038,37.315c-.928-.194-1.928-.163-2.733.391-.315.216-.487.652-.263,1.001.202.313.664.494,1.001.262.075-.052.151-.1.232-.144.03-.016.062-.031.093-.046.011-.004.025-.009.044-.017.066-.02.13-.041.196-.058.046-.011.091-.02.138-.028.012-.001.027-.003.047-.005.18-.009.358-.01.538.005.038.003.075.007.112.011.01.002.02.003.036.006.079.015.159.029.237.047.169.038.335.086.498.144.053.019.105.039.158.06.008.006.158.075.176.084.144.073.284.154.419.242.067.044.133.091.197.139.015.015.134.112.148.125.288.252.755.304,1.035,0,.253-.276.308-.766,0-1.035-.659-.576-1.448-1.005-2.309-1.185Z"/>
    <path class="cls-3" d="M40.509,40.528c.211.361.646.439,1.001.262,1.019-.506,2.258-.339,3.258.134.275.13.541.278.798.441.057.036.114.073.17.11-.001,0,.08.058.127.089.036.033.101.091.12.11.14.138.271.286.398.436.021.025.041.049.062.074.03.057.066.113.116.166.061.066.131.119.205.171.384.272.969-.008,1.075-.437.13-.527-.382-.987-.712-1.335-.447-.471-1.035-.813-1.618-1.089-1.505-.713-3.209-.891-4.735-.134-.354.176-.452.677-.262,1.001ZM47.636,41.358c.013.01.01.009,0,0h0Z"/>
    <path class="cls-3" d="M36.818,43.997c-.012.064-.024.128-.038.191-.028.127-.062.253-.101.378-.085.271-.127.373-.284.643-.143.246-.194.318-.396.518-.045.045-.092.087-.139.13-.022.02-.034.032-.043.041-.01.006-.025.015-.051.031-.107.07-.219.131-.326.201-1.279.835-.577,2.637.348,3.456.296.262.743.291,1.035,0,.267-.267.297-.772,0-1.035-.208-.184-.306-.295-.433-.524-.062-.111-.085-.158-.111-.242-.02-.067-.041-.132-.057-.199-.008-.033-.02-.126-.02-.099-.002-.028-.004-.065-.006-.089.002.02.014-.01.007-.021.024-.014.06-.035.072-.043.24-.143.468-.304.675-.493.824-.753,1.204-1.839,1.344-2.917.051-.393-.373-.732-.732-.732-.438,0-.68.338-.732.732.014-.109-.011.055-.014.074ZM36.201,47.373s0,0,0,0c.003-.002.003-.002.006-.004-.005.003-.003.002-.006.004Z"/>
    <path class="cls-3" d="M50.555,25.676c-.028-.662.195-1.426.572-1.965.871-1.248,2.482-1.675,3.881-1.113,1.441.579,2.334,2.059,2.318,3.597-.008.756-.251,1.546-.795,2.09-.232.232-.513.39-.808.524-.101.046-.204.089-.306.136.803.744,1.606,1.492,2.359,2.285.514.541.969,1.162,1.383,1.78.613.915.925,1.862,1.174,2.928.233.998.542,1.952.98,2.883.469.995,1.074,2.079,1.938,2.789.771.634,1.817.87,2.654,1.406.876.562,1.617,1.451,2.127,2.351,1.089,1.924,1.05,4.135.668,6.249-.167.927-1.577.532-1.411-.389.393-2.174.286-4.428-1.257-6.148-.701-.781-1.519-1.151-2.451-1.597-1.003-.48-1.732-1.118-2.398-2.01-.708-.949-1.219-2.02-1.648-3.12-.343-.88-.536-1.765-.772-2.676-.677-2.608-3.041-4.447-4.932-6.207-.173-.161-.28-.484-.188-.712.175-.436.423-.736.832-.972.314-.181.709-.262.986-.501.6-.518.454-1.611.149-2.239-.639-1.318-2.735-1.808-3.427-.249-.301.676-.044,1.46-.62,2.042-.312.315-.795.371-1.216.442-.501.085-.903-.297-1.325-.519-.363-.191-.737-.356-1.123-.495-.748-.267-1.532-.461-2.322-.544-1.416-.148-2.861-.034-4.188.505-.37.15-.803-.165-.9-.511-.115-.412.147-.752.511-.9.328-.133.666-.24,1.008-.331-.013-.177-.006-.357.029-.548.059-.33.225-.662.22-.999-.01-.683-.736-1.224-1.312-1.446-1.147-.443-2.725.106-2.856,1.473-.064.673.261,1.107.709,1.555.495.496.838,1.148.548,1.847-.253.607-.851.89-1.424,1.124-.423.172-.855.435-1.252.733-.515.387-1.067.844-1.513,1.367,1.078-.215,2.162-.147,3.263-.197.796-.036,1.592-.102,2.385-.182.396-.04.732.367.732.732,0,.424-.338.692-.732.732-.692.07-1.386.127-2.08.166-1.035.058-2.086-.057-3.108.143-1.215.238-2.26.821-2.901,1.908-.612,1.037-.876,2.302-1.017,3.486-.047.394-.297.732-.732.732-.362,0-.778-.339-.732-.732.169-1.425.459-2.897,1.178-4.157.438-.767,1.041-1.385,1.759-1.841-.034-.172-.01-.359.07-.534.576-1.267,1.863-2.333,2.988-3.099.488-.332,1.026-.5,1.536-.781.272-.15.263-.128.093-.315-.245-.27-.518-.495-.726-.8-.906-1.333-.548-3.179.674-4.178,1.271-1.04,3.106-1.049,4.451-.132.642.437,1.215,1.08,1.393,1.854.095.415.071.819-.028,1.23-.037.152-.146.393-.172.599,2.357-.234,4.852.386,6.833,1.575.07-.015.139-.03.209-.044.008-.002.038-.008.061-.019v-.058Z"/>
    <path class="cls-3" d="M64.439,50.801c-2.797-.254-5.395-2.237-6.381-4.866-.139-.37-.494-.622-.9-.511-.355.098-.65.528-.511.9,1.231,3.286,4.297,5.623,7.791,5.94.394.036.732-.362.732-.732,0-.426-.336-.696-.732-.732Z"/>
    <path class="cls-3" d="M43.028,29.79c.707-.79,1.415-1.579,2.122-2.369.1-.112.201-.224.301-.336.255-.285.302-.757,0-1.035-.279-.256-.762-.304-1.035,0-.707.79-1.415,1.579-2.122,2.369-.1.112-.201.224-.301.336-.255.285-.302.757,0,1.035.279.256.762.304,1.035,0Z"/>
    <path class="cls-3" d="M62.81,55.263c-2.033,1.512-5.07,2.142-7.412.945-1.071-.547-1.983-1.374-2.761-2.282-.582-.68-1.17-1.485-1.409-2.366.307-.202.582-.459.81-.743.538-.672.995-1.415,1.387-2.18.407-.794.839-1.678.673-2.594-.147-.807-.818-1.141-1.565-1.187-.089-.005-.182-.006-.277-.003-.018-.342-.087-.683-.164-1.018-.1-.432-.202-.863-.303-1.294-.132-.562-.263-1.125-.395-1.687.795.367,1.476-.84.676-1.291-.944-.533-1.802-1.166-2.329-2.137-.679-1.249-.54-2.665-.984-3.977-.391-1.159-1.176-2.597-2.315-3.171-.708-.357-1.52-.541-2.301-.655-.394-.058-.782.098-.9.511-.098.344.12.843.511.9.676.099,1.436.225,2.04.554.44.24.852.85,1.128,1.326.37.639.589,1.326.68,2.058.161,1.291.407,2.569,1.165,3.66.247.354.528.672.836.96.003.015.002.028.006.043.239,1.025.48,2.05.72,3.074.108.463.217.925.325,1.388.073.31.169.628.153.95-.023.496-.376.915-.662,1.296-.237.317-.051.818.262,1.001.374.219.763.055,1.001-.262.14-.187.274-.379.397-.578.031-.029.059-.063.087-.1.038-.014.091-.035.104-.038.055-.015.112-.025.168-.037.008-.002.01-.003.016-.004.008,0,.014,0,.027,0,.06-.001.121-.007.181-.007.06,0,.119.005.178.006.009,0,.012,0,.019,0,.004.001.005.002.01.004.024.008.054.018.085.027.003.032.006.066,0,.01.033.313-.099.654-.235.962-.329.744-.743,1.458-1.203,2.129-.198.29-.382.549-.657.785-.241.207-.477.292-.777.272-.395-.026-.732.355-.732.732,0,.418.336.705.732.732.007,0,.013,0,.019,0,.015.058.03.116.047.173-.012.046-.021.093-.026.141.021-.183-.018.085-.025.119-.014.064-.03.127-.048.19-.018.064-.039.128-.06.191-.006.017-.058.146-.068.174-.126.281-.281.549-.453.804-.357.529-.863,1.062-1.404,1.529-.507.438-1.093.839-1.734,1.169-.331.17-.437.219-.775.331-.149.05-.301.093-.455.127-.063.014-.126.024-.189.038-.016.002-.025.004-.035.006-.01.001-.02.002-.03.003-.102-.367-.205-.735-.29-1.107,0,0,0-.001,0-.002-.048-.354-.171-.707-.346-1.078-.23-.487-.568-.949-1.02-1.251-.544-.365-1.258-.396-1.885-.513-.527-.098-1.053-.203-1.576-.314-.035-.263-.21-.513-.444-.644-.293-.165-.702-.197-1.029-.218-.318-.021-.635.014-.948.07-.141.025-.28.059-.42.087-.153.031-.147.039-.308.043-.043.001-.089,0-.133-.003-.01-.004-.044-.013-.063-.016-.02-.012-.06-.032-.086-.046-.018-.012-.05-.035-.067-.05-.17-.155-.311-.337-.473-.499-.447-.448-1.095-.762-1.731-.556-.22.071-.391.233-.477.433-.421-.136-.838-.295-1.291-.409-.746-.189-1.409.01-2.024.386-.204-.406-.257-.98-.289-1.409-.072-.989-.019-1.987.064-2.974.167-1.976.41-3.999,1.065-5.88.31-.891-1.103-1.274-1.411-.389-.733,2.108-.983,4.412-1.146,6.627-.076,1.03-.116,2.076.012,3.103.08.639.215,1.276.548,1.819-.753.691-1.391,1.483-1.954,2.349-.972,1.492-1.873,3.031-2.772,4.568-.296.507-.776,1.113-.848,1.73-.009.037-.018.074-.022.114-.087.971-.115,2.103.306,3.004.282.602.768.781,1.35,1.028.736.313,1.471.63,2.211.931,1.247.507,2.521.978,3.834,1.283.97.226,1.952.401,2.934.57.941.162,1.884.313,2.829.443.526.072,1.185.265,1.679-.017.847-.483,1.579-1.332,2.243-2.026,1.067-1.114,2.1-2.304,2.919-3.615.414-.662.765-1.358,1.13-2.047.255-.481.395-.901.353-1.454-.017-.224-.05-.444-.089-.663,1.465-.245,2.806-1.093,3.912-2.049.775-.669,1.499-1.48,1.971-2.405.23.327.476.64.722.934.892,1.067,2.002,2.063,3.261,2.673,2.776,1.346,6.338.81,8.774-1.002.319-.238.473-.63.262-1.001-.179-.315-.685-.498-1.001-.262ZM27.6,56.069c.356-.569.708-1.153,1.117-1.687.012-.012.105-.126.127-.151.084-.097.17-.191.257-.285.257-.278.525-.547.807-.801.527-.475,1.131-1.003,1.783-.815,1.08.313,2.019.755,3.18.699.043-.002.082-.01.121-.018.219.19.461.349.751.426.274.073.549.071.822.039,1.065.331,2.151.579,3.246.792.565.11,1.131.213,1.696.318.43.08.681.146.936.52.188.276.312.59.391.913.015.063.024.158.032.213,0,.001,0,.002,0,.003-.019.06-.034.124.006.028h0c-.269.662-.644,1.292-.988,1.917-.652,1.185-1.319,2.328-2.157,3.392-.495.628-1.008,1.244-1.545,1.838-.21.233-.424.464-.648.684-.087.086-.178.167-.266.25-.016.015-.034.03-.052.045-.109-.013-.221-.014-.33-.026-.445-.048-.888-.128-1.327-.212-1.099-.21-2.17-.517-3.252-.799-2.005-.522-4.097-.955-6.01-1.771-.016-.008-.103-.048-.117-.054-.111-.052-.221-.104-.332-.157-.305-.144-.609-.287-.914-.431-.026-.012-.088-.051-.148-.082.139-.193.262-.521.352-.676.804-1.38,1.616-2.757,2.463-4.112ZM37.218,64.389c.034-.026.025-.017.003,0,0,0-.002,0-.003,0ZM24.897,63.43c.007.01.01.015,0,0h0ZM36.335,66.682c-.469-.07-.938-.144-1.406-.221-1.888-.311-3.77-.641-5.584-1.261-.772-.264-1.53-.563-2.283-.875-.377-.156-.752-.317-1.127-.476-.32-.136-.775-.243-1.057-.45-.007-.011-.01-.016-.02-.034-.05-.085-.075-.172-.102-.269-.06-.221-.089-.443-.105-.67.101.043.2.086.293.13,1.773.836,3.659,1.347,5.552,1.839,2.152.56,4.339,1.289,6.569,1.448.012.077.024.153.035.23.031.242.059.485.082.728-.003,0-.007,0-.009,0-.209-.026-.531-.073-.837-.118ZM42.72,61.003c-1.055,1.899-2.529,3.64-4.151,5.116-.036-.291-.078-.581-.125-.871.023-.021.045-.042.068-.064.569-.549,1.085-1.156,1.59-1.763,1.019-1.225,1.912-2.481,2.693-3.868.212-.377.426-.755.633-1.136.02.095.044.189.061.285.031.175.053.35.056.528.001.072,0,.146-.007.218-.007-.015-.042.092-.017.051-.239.51-.527,1.011-.8,1.503Z"/>
  </g>
</svg>