<?xml version="1.0" encoding="UTF-8"?>
<svg id="_圖層_1" data-name="圖層_1" xmlns="http://www.w3.org/2000/svg" viewBox="0 0 100 100">
  <defs>
    <style>
      .cls-1 {
        fill: none;
      }

      .cls-2 {
        fill: #221714;
      }

      .cls-3 {
        fill: #d44518;
      }
    </style>
  </defs>
  <path class="cls-2" d="M58.919,35.713h.644v-.564c0,.312-.332.564-.644.564"/>
  <path class="cls-2" d="M60.76,42.867h-3.949c-.311,0-.563-.253-.564-.564v-.611c.002-.311.254-.562.565-.563h2.803v-.576h-7.888v.576h2.804c.302,0,.548.237.564.535v.655c-.01.304-.258.548-.564.548h0s-3.948,0-3.948,0v.576h3.947c.312,0,.565.253.565.565h0v1.707h1.152v-1.719c.006-.306.257-.553.565-.553h3.948v-.576Z"/>
  <path class="cls-2" d="M60.19,46.833v-.015c-.007-.302-.252-.545-.554-.551h-7.926c-.31,0-.562.25-.565.56v7.283s9.045,0,9.045,0v-7.277ZM59.038,52.974c0,.312-.253.565-.565.565v.005h-5.632c-.31,0-.562-.25-.565-.56v-2.039c.003-.31.255-.56.565-.56h5.632c.312,0,.565.253.565.565v2.023ZM59.038,49.255c0,.312-.253.565-.565.565h-5.632c-.31,0-.562-.25-.565-.56v-1.868c.003-.31.255-.56.565-.56h5.632c.312,0,.565.253.565.565v1.857Z"/>
  <path class="cls-2" d="M52.125,45.548l1.281-1.608h-1.131l-1.697,1.775h1.203c.134-.014.254-.075.343-.166"/>
  <path class="cls-2" d="M59.23,45.548l-1.281-1.608h1.131l1.697,1.775h-1.203c-.134-.014-.254-.075-.343-.166"/>
  <path class="cls-2" d="M33.06,46.815c-.016-.298-.262-.535-.564-.535h0s-7.916-.001-7.916-.001c-.312,0-.565.253-.565.565v7.266h9.051l-.005-7.295ZM31.929,52.973c0,.312-.253.565-.565.565h-5.654c-.312,0-.565-.253-.565-.565v-5.564c0-.312.253-.565.565-.565h5.651c.312,0,.566.253.566.565h.002v5.564Z"/>
  <path class="cls-2" d="M30.657,42.231l1.312,2.129c.029.068.047.143.047.222,0,.312-.253.565-.565.565h-5.828c-.312,0-.565-.253-.565-.565,0-.126.042-.243.111-.337h-.002l2.259-3.71h-1.149l-2.827,4.612h-.004v.565h10.176v-.565l-1.797-2.916h-1.167Z"/>
  <rect class="cls-2" x="25.74" y="23.932" width="5.628" height=".565"/>
  <path class="cls-2" d="M33.084,22.713h-3.415c-.306-.007-.552-.257-.552-.565h-1.125c0,.308-.246.558-.552.565h-3.504c-.281.033-.499.272-.499.561v2.38h1.131l.004-1.81c0-.312.253-.566.565-.566h0s6.803,0,6.803,0h0c.312,0,.565.254.565.566v1.81h1.131v-2.377c0-.307-.245-.557-.55-.565"/>
  <path class="cls-2" d="M31.374,25.063h-5.673c-.312,0-.565.254-.565.566h0v1.696h1.126v-.003h4.544v.003h1.126v-1.735c-.02-.292-.261-.523-.557-.527M30.805,26.216c-.012.302-.26.543-.564.543h0s-3.415,0-3.415,0h0c-.312,0-.566-.254-.566-.566v-.002c0-.312.253-.566.566-.566h3.414c.312,0,.564.252.565.564v.026Z"/>
  <path class="cls-2" d="M32.525,27.891h-7.944v.002c-.31,0-.561.249-.565.558v7.262h9.045l.004-7.258c0-.304-.24-.551-.54-.564M27.977,34.591c-.003.31-.255.56-.565.56h0s-1.7,0-1.7,0c-.312,0-.566-.253-.566-.565h0v-1.95h0c0-.309.248-.559.555-.565h1.716c.306.003.554.249.559.555v1.966ZM27.977,30.951c-.003.291-.225.529-.509.557h-1.806c-.289-.025-.515-.267-.515-.563h0v-1.923c0-.312.253-.565.565-.565h0s1.701,0,1.701,0h0c.309,0,.559.248.565.556v1.939ZM31.935,34.593c-.004.309-.255.558-.565.558h0s-1.704,0-1.704,0c-.308-.004-.557-.255-.557-.565h0v-1.951h0c0-.309.248-.559.555-.565h1.706c.309,0,.559.248.565.555v1.968ZM31.935,30.955c-.005.289-.226.524-.509.552h-1.801c-.289-.025-.515-.267-.515-.563h0v-1.923h0c0-.312.253-.565.565-.565h0s1.696,0,1.696,0h0c.309,0,.559.248.565.556v1.944Z"/>
  <path class="cls-2" d="M39.635,22.138l-.003.002v-.003h-1.357s0,0,0,0c-.258.862-1.264,1.515-1.264,1.515v.954c.769-.443,1.247-.95,1.531-1.339h.826c.284.389.762.896,1.531,1.339v-.954s-1.005-.654-1.264-1.515"/>
  <path class="cls-2" d="M37.011,25.614h.813c.312,0,.566.253.566.565v1.118c0,.312-.253.565-.566.565h-.813v.565h.192v.002c.136,0,.249.096.276.224l.257,5.601h0c0,.126-.083.231-.197.268l-.529.081v1.074l3.888-1.123v-.543l-.374.057c-.146-.011-.261-.132-.261-.28h0l.18-5.078c0-.156.127-.282.282-.282h.173v-.565h-.813c-.312,0-.565-.253-.565-.565v-1.121c.001-.311.253-.563.565-.563h.813v-.565h-3.887v.565ZM39.504,33.753c-.007.258-.186.472-.427.533-.006,0-.016,0-.016,0-.312,0-.565-.253-.565-.566h0l.091-5.012c0-.156.127-.282.282-.282h.173c.156,0,.283.127.283.283h0l.179,5.042Z"/>
  <path class="cls-2" d="M46.622,27.881h-1.73v-.566h1.901v-4.059c-.007-.306-.257-.552-.565-.552h0s-.811,0-.811,0c-.29-.025-.517-.267-.517-.563v-.002h-1.143s0,0,0,0h0v.009c-.005.308-.256.556-.565.556h0s-.762,0-.762,0h0c-.312,0-.565.254-.565.566h0l-.003,4.046h1.899v.566h-1.734c-.312,0-.565.253-.565.565v6.714h.565c.312,0,.565-.253.565-.565h0v-5.583c0-.31.249-.561.558-.565h.056c.304.005.55.251.555.555v6.712h1.131v-6.709c.004-.308.254-.557.563-.558h.036c.304,0,.551.24.564.54v5.608c0,.312.253.565.565.565h.565v-6.731c-.01-.304-.258-.548-.564-.548M43.551,26.743c-.307-.006-.554-.257-.554-.565h0v-.321c0-.312.253-.565.565-.565h1.536v-.565h-1.536c-.312,0-.565-.253-.565-.565v-.327c0-.312.253-.565.565-.565h0s1.536,0,1.536,0h0c.312,0,.566.254.566.566v2.343c0,.311-.252.563-.562.565h-1.55Z"/>
  <path class="cls-2" d="M45.491,42.973c-2.768.56-6.784.392-6.784.392v.92s4.431-.102,6.784-.747v-.565Z"/>
  <path class="cls-2" d="M47.187,46.287h-1.156c-.3-.014-.539-.261-.539-.564h0v-.672h-1.131v.678c-.004.306-.251.554-.557.558h-.578c-.305-.007-.55-.256-.551-.562v-.674h-1.131v.672c0,.303-.239.55-.538.564h-.628c-.3-.014-.539-.261-.539-.564v-.672h-1.131v.672h0c0,.303-.239.55-.539.564h-1.157v.565h3.97c.295,0,.538.227.563.517v6.741h1.131v-6.691h.001c0-.312.253-.565.565-.565h0s3.947-.001,3.947-.001v-.565Z"/>
  <path class="cls-2" d="M38.25,53.469l1.598-6.009h-1.152l-1.686,6.378h.731c.234-.009.432-.16.508-.37"/>
  <path class="cls-2" d="M45.936,53.4c.057.249.278.435.543.438h.713l-1.685-6.379h-1.152l1.579,5.94h.001Z"/>
  <path class="cls-2" d="M46.051,41.237c-.309-.004-.558-.255-.558-.565v-.14h-1.131v.182c-.021.29-.261.52-.556.524l-3.403-.004c-.312,0-.566-.253-.566-.565v-.143h-1.131l-.003.153c0,.287-.214.523-.49.56h-1.184v.576h1.108v.003c.312,0,.565.253.565.565h.003v.145h1.131v-.151c0-.29.219-.529.501-.561h3.47c.305.006.55.253.554.558v.155h1.131v-.148c0-.308.247-.558.554-.565h1.141v-.576h-1.136Z"/>
  <path class="cls-2" d="M53.186,24.49h.339v-.565h-.375c-.295-.019-.529-.264-.529-.563v-1.216h-1.131v1.216c0,.3-.234.545-.529.563h-.375v.565h.339c.312,0,.565.253.565.565v1.106c-.141.712-.411,1.683-.904,2.379v1.236s.558-.383.904-1.39v7.315h1.131v-7.315c.346,1.007.904,1.39.904,1.39v-1.236c-.493-.696-.763-1.667-.904-2.379v-1.106c0-.312.253-.565.565-.565"/>
  <path class="cls-2" d="M56.95,23.416h.589v-.565h-.88c-.14-.017-.25-.134-.25-.279h0v-.426h-1.131v.426h-.001c0,.145-.109.263-.25.279h-.88v.565h.574c.308.005.556.256.556.565v.445c-.009.298-.249.537-.547.547h-.584v.565h3.392v-.565h-.567c-.301,0-.546-.235-.564-.531v-.495c.017-.289.251-.519.541-.53"/>
  <path class="cls-2" d="M57.929,34.065h0c-.304,0-.551-.241-.564-.542l.17-3.747v-.607s.001-2.502.001-2.502h.003v-.003h-.003c0-.293-.223-.534-.509-.563h-2.314c-.312,0-.565.253-.565.565h-.003l-.005,2.446.014.663.239,4.289c-.023.245-.203.444-.437.497l-.371.046v1.105l4.519-1.105v-.565l-.174.022ZM55.276,27.233h.002c0-.312.253-.565.565-.565.292,0,.531.221.562.504v1.477h0c0,.306-.244.555-.548.564h-.032c-.304-.009-.548-.258-.548-.564h0v-1.415ZM56.145,34.288l-.127.016s-.004,0-.005,0h0s-.287.036-.287.036c-.287-.013-.518-.239-.538-.524l.072-3.555c.039-.274.274-.486.559-.486h.066c.291,0,.53.22.562.502l.13,3.483c-.01.256-.191.469-.432.526"/>
  <path class="cls-2" d="M60.277,23.365v-1.204h-1.131v1.222c-.013.301-.26.541-.564.541l-.48.002v.564h.478c.312,0,.565.254.565.566h0v2.664c-.338-1.18-1.021-1.632-1.021-1.632v1.305c.702.99.951,2.491,1.021,3.039v3.978c0,.273-.193.5-.45.553l-1.142.187v.564h2.17c.306-.007.552-.257.552-.565v-10.102c0-.28.219-.513.486-.557h.013v-.566c-.271-.042-.499-.276-.499-.559"/>
  <path class="cls-2" d="M66.617,43.998c0-.312.252-.564.564-.565h.813v-.565h-.813c-.312,0-.565-.253-.565-.565v-1.768h-1.131v1.781c-.007.302-.25.545-.551.552h-.827v.565h.818c.31.003.56.255.56.565v.366c-.194.775-.619,2.141-1.328,2.754v1.236s.903-.56,1.328-1.945v7.695h1.131v-7.805c.412,1.463,1.327,2.055,1.327,2.055v-1.236c-.682-.654-1.126-2.046-1.327-2.803v-.317h.001Z"/>
  <path class="cls-2" d="M69.507,43.374h-.579v1.06c0,.312.253.566.566.566h0s.565,0,.565,0v-1.061c0-.308-.246-.557-.552-.565"/>
  <path class="cls-2" d="M73.736,41.103h-1.151c-.312,0-.564-.254-.564-.565v-.005h-1.131v.005c0,.312-.252.565-.564.565h-1.202c-.312,0-.565.253-.565.565v1.19h1.131v-.625c0-.308.246-.557.552-.565h2.348c.309.002.558.25.562.558v.632h1.13v-1.191c0-.306-.243-.554-.546-.564"/>
  <path class="cls-2" d="M73.435,45.71h-1.631c.98-.493,1.896-1.239,2.188-2.351h-1.119s-.107.63-.886,1.249v-1.281c0-.285.254-.517.566-.517h0s.034,0,.034,0v-.517h-2.331v.517h.036c.306,0,.554.222.564.499v1.934c-.426.168-.941.311-1.562.409v.002c-.258.053-.451.281-.451.554v5.582l5.157.003v-5.546c-.015-.299-.261-.538-.564-.538M72.868,50.717c-.024.264-.23.475-.491.508h-1.919c-.274-.039-.486-.274-.486-.559v-.241c0-.312.253-.565.566-.565h1.768v-.565h-1.768c-.304,0-.552-.24-.564-.541.012-.301.26-.542.564-.542h1.768v-.565h-1.768c-.312,0-.566-.253-.566-.566v-.241c0-.312.253-.565.566-.565h1.766c.304,0,.551.24.564.541v3.901Z"/>
  <path class="cls-2" d="M69.965,53.775l.667-1.619h-.988l-1.085,1.944.897.009c.227-.002.422-.139.51-.334"/>
  <path class="cls-2" d="M73.386,54.11l.897-.009-1.085-1.943h-.988l.667,1.618c.087.195.282.332.51.334"/>
  <g>
    <path class="cls-1" d="M69.998,73.745l-.081-.086v1.563h.462v-1.529l-.044.048c-.043.048-.104.075-.168.076-.066,0-.126-.026-.17-.072Z"/>
    <polygon class="cls-1" points="70.38 72.484 70.147 72.306 69.917 72.484 69.917 72.986 70.163 73.182 70.38 73.005 70.38 72.484"/>
    <path class="cls-1" d="M72.187,69.756c-.217-.217-.713-.423-1.02-.423h-2.037c-.307,0-.804.205-1.021.423l-1.44,1.441c-.213.213-.422.718-.422,1.02v2.035c0,.302.21.808.423,1.021l1.44,1.44c.213.213.718.423,1.02.423h2.037c.307,0,.803-.205,1.02-.423l1.44-1.44c.213-.214.423-.719.423-1.021v-2.035c0-.302-.21-.807-.423-1.02l-1.44-1.441ZM68.858,73.42c.039.047.058.11.051.174-.007.064-.037.122-.087.162-.1.08-.257.065-.339-.034l-.186-.29v1.978c0,.133-.108.241-.241.241s-.24-.108-.24-.241v-1.985l-.243.297c-.04.05-.098.081-.162.087-.063.007-.127-.012-.177-.053-.05-.041-.081-.099-.087-.163-.006-.064.013-.127.054-.177l.615-.754v-.592l-.258.313c-.041.05-.099.08-.162.087-.064.007-.127-.013-.177-.054-.103-.085-.117-.237-.033-.339l.671-.815c.035-.043.087-.072.145-.081.017-.005.036-.007.055-.007.101,0,.199.118.217.142l.627.761c.085.102.07.255-.033.339-.099.083-.258.067-.34-.033l-.23-.28v.536l.562.78ZM71.068,75.663h-1.839c-.122,0-.221-.099-.221-.221s.099-.22.221-.22h.231v-2.835c0-.059.023-.115.064-.158l.392-.411v-.49l-.425.472c-.088.096-.245.104-.341.018-.099-.089-.107-.242-.018-.34l.838-.93c.092-.103.266-.1.355-.003l.873.929c.091.097.086.25-.011.341-.097.091-.25.085-.341-.011l-.455-.485v.51l.384.4c.04.042.063.099.063.158v.679c.004.018.004.044,0,.069v2.087h.232c.122,0,.221.099.221.22s-.099.221-.221.221ZM73.071,73.445c.041.05.06.113.054.177-.006.064-.037.121-.087.162-.098.082-.259.067-.34-.033l-.189-.23v1.921c0,.133-.108.241-.241.241s-.241-.108-.241-.241v-3.34l-.258.313c-.041.05-.099.081-.163.087-.063.007-.127-.013-.176-.054-.103-.085-.117-.237-.033-.339l.672-.815c.045-.055.113-.087.185-.087h.014c.096,0,.184.059.222.147l.622.756c.084.103.07.255-.032.339-.103.082-.259.066-.34-.033l-.23-.279v.624l.561.684Z"/>
    <path class="cls-3" d="M74.141,70.682l-1.44-1.44c-.351-.351-1.039-.636-1.534-.636h-2.037c-.495,0-1.184.285-1.535.636l-1.439,1.44c-.351.35-.636,1.039-.636,1.534v2.035c0,.496.285,1.185.636,1.534l1.44,1.44c.35.351,1.039.636,1.534.636h2.037c.495,0,1.184-.285,1.534-.636l1.44-1.44c.35-.35.635-1.038.635-1.534v-2.035c0-.495-.285-1.184-.635-1.534ZM74.05,72.217v2.035c0,.302-.21.807-.423,1.021l-1.44,1.44c-.218.217-.713.423-1.02.423h-2.037c-.302,0-.807-.209-1.02-.423l-1.44-1.44c-.213-.213-.423-.719-.423-1.021v-2.035c0-.302.209-.807.422-1.02l1.44-1.441c.217-.217.713-.423,1.021-.423h2.037c.307,0,.803.205,1.02.423l1.44,1.441c.213.213.423.719.423,1.02Z"/>
    <path class="cls-3" d="M71.068,75.222h-.231v-2.087c.004-.025.004-.051,0-.069v-.679c0-.059-.023-.117-.063-.158l-.384-.4v-.51l.455.485c.091.097.244.102.341.011.097-.091.102-.244.011-.341l-.873-.929c-.088-.097-.263-.1-.355.003l-.838.93c-.089.098-.081.251.018.34.095.086.253.078.341-.018l.425-.472v.49l-.392.411c-.041.043-.064.099-.064.158v2.835h-.231c-.122,0-.221.099-.221.22s.099.221.221.221h1.839c.122,0,.221-.099.221-.221s-.099-.22-.221-.22ZM69.917,72.986v-.502l.23-.178.232.178v.52l-.217.178-.246-.197ZM70.38,73.694v1.529h-.462v-1.563l.081.086c.043.046.104.072.17.072.064,0,.125-.028.168-.076l.044-.048Z"/>
    <path class="cls-3" d="M68.526,72.385c.081.1.241.115.34.033.103-.085.117-.237.033-.339l-.627-.761c-.018-.024-.116-.142-.217-.142-.019,0-.037.002-.055.007-.058.009-.109.038-.145.081l-.671.815c-.084.102-.07.254.033.339.05.041.113.061.177.054.064-.006.122-.037.162-.087l.258-.313v.592l-.615.754c-.041.05-.06.113-.054.177.006.064.037.122.087.163.05.041.114.06.177.053.064-.006.122-.037.162-.087l.243-.297v1.985c0,.133.108.241.24.241s.241-.108.241-.241v-1.978l.186.29c.083.099.239.114.339.034.05-.041.08-.099.087-.162.006-.064-.012-.127-.051-.174l-.562-.78v-.536l.23.28Z"/>
    <path class="cls-3" d="M72.74,72.415c.081.099.237.115.34.033.102-.085.117-.237.032-.339l-.622-.756c-.037-.088-.125-.147-.222-.147h-.014c-.072,0-.14.032-.185.087l-.672.815c-.084.103-.069.255.033.339.049.041.113.061.176.054.064-.006.122-.037.163-.087l.258-.313v3.34c0,.133.108.241.241.241s.241-.108.241-.241v-1.921l.189.23c.081.1.241.115.34.033.049-.041.08-.098.087-.162.006-.064-.013-.127-.054-.177l-.561-.684v-.624l.23.279Z"/>
  </g>
  <path class="cls-2" d="M27.269,61.064c0-.055-.019-.096-.057-.124-.039-.027-.105-.041-.199-.041h-2.187v.93h1.323c.09,0,.16-.01.209-.03.049-.02.074-.065.074-.135h.122v1.08h-.122c0-.115-.025-.189-.074-.221-.05-.033-.119-.049-.209-.049h-1.323v1.455c0,.045.019.078.057.101.038.023.087.034.145.034v.135h-1.147v-.135c.117,0,.176-.045.176-.135v-3.405c0-.09-.058-.135-.176-.135v-.135h3.132c.094,0,.161-.016.199-.049.038-.033.057-.076.057-.131h.121v.99h-.121Z"/>
  <path class="cls-2" d="M30.394,60.389c-.099,0-.148.045-.148.135v2.25c0,.315.091.531.273.649.182.117.449.176.8.176s.618-.059.8-.176c.182-.117.273-.334.273-.649v-2.25c0-.09-.067-.135-.202-.135v-.135h1.08v.135c-.108,0-.162.045-.162.135v2.212c0,.295-.038.539-.115.731-.076.192-.191.346-.344.461-.153.115-.343.192-.57.232-.227.04-.489.06-.786.06s-.559-.02-.786-.06c-.227-.04-.417-.117-.57-.232-.153-.115-.268-.269-.344-.461-.076-.192-.115-.436-.115-.731v-2.212c0-.09-.063-.135-.189-.135v-.135h1.107v.135Z"/>
  <path class="cls-2" d="M35.239,63.103l.108.045c.014.08.048.15.105.21.056.06.125.111.206.154.081.042.169.075.263.097.094.023.184.034.27.034.27,0,.467-.044.591-.131.124-.087.186-.251.186-.491v-2.407c0-.07-.027-.125-.081-.165-.054-.04-.106-.06-.155-.06v-.135h1.283v.135c-.077,0-.142.02-.196.06-.054.04-.081.095-.081.165v2.475c0,.195-.037.365-.111.51-.074.145-.179.265-.314.36-.135.095-.295.162-.479.202-.185.04-.389.06-.614.06-.139,0-.268-.01-.385-.03-.117-.02-.222-.044-.314-.071-.092-.027-.173-.054-.243-.079-.07-.025-.127-.037-.172-.037-.05,0-.09.03-.122.09l-.101-.075.358-.915Z"/>
  <path class="cls-2" d="M40.213,64.063c.117,0,.176-.045.176-.135v-3.405c0-.09-.059-.135-.176-.135v-.135h1.12v.135c-.117,0-.176.045-.176.135v3.405c0,.09.058.135.176.135v.135h-1.12v-.135Z"/>
  <path class="cls-2" d="M43.797,64.063c.085,0,.128-.045.128-.135v-3.405c0-.09-.043-.135-.128-.135v-.135h1.154v.135c-.036,0-.054.025-.054.075,0,.04.045.11.135.21l1.937,2.235v-2.385c0-.09-.058-.135-.176-.135v-.135h1.019v.135c-.086,0-.129.045-.129.135v3.405c0,.09.043.135.129.135v.135h-1.093v-.135c.058,0,.088-.023.088-.068,0-.035-.036-.093-.108-.172l-2.058-2.385v2.49c0,.09.051.135.155.135v.135h-.999v-.135Z"/>
  <path class="cls-2" d="M55.5,63.928c0,.09.049.135.149.135v.135h-1.039v-.135c.031,0,.06-.011.084-.034.025-.022.037-.056.037-.101v-2.985h-1.113c-.041,0-.08.012-.118.037-.038.025-.057.073-.057.143h-.121v-1.05h.121c0,.07.019.117.057.142.038.025.078.038.118.038h2.996c.04,0,.08-.012.118-.038.038-.025.057-.072.057-.142h.121v1.05h-.121c0-.07-.019-.117-.057-.143-.038-.025-.078-.037-.118-.037h-1.114v2.985Z"/>
  <path class="cls-2" d="M61.31,60.254c.216,0,.412.021.587.064.176.042.326.11.452.202.126.093.223.213.29.36.067.147.101.329.101.543,0,.33-.088.583-.263.758-.176.175-.412.292-.709.352l.898,1.425c.031.05.068.08.111.09.043.01.082.015.118.015v.135h-1.262v-.135c.04,0,.075-.008.105-.023.029-.015.044-.035.044-.06,0-.025-.009-.054-.027-.086-.018-.033-.045-.076-.081-.131l-.742-1.17h-.965v1.335c0,.045.015.079.044.101.029.023.082.034.158.034v.135h-1.167v-.135c.13,0,.196-.045.196-.135v-3.405c0-.09-.065-.135-.196-.135v-.135h2.308ZM61.135,62.008c.162,0,.297-.013.405-.041.108-.027.193-.066.257-.116.063-.05.108-.109.135-.176.027-.068.041-.141.041-.222,0-.08-.014-.153-.041-.221-.027-.067-.072-.126-.135-.176-.063-.05-.148-.089-.257-.116-.108-.027-.243-.041-.405-.041h-1.168v1.11h1.168Z"/>
  <path class="cls-2" d="M68.532,61.064c0-.055-.019-.096-.057-.124-.038-.027-.105-.041-.199-.041h-2.187v.93h1.323c.09,0,.16-.014.209-.042.049-.027.074-.099.074-.213h.122v1.17h-.122c0-.115-.025-.189-.074-.221-.05-.033-.119-.049-.209-.049h-1.323v1.035h2.254c.067,0,.123-.018.165-.052.043-.035.064-.083.064-.143h.122v1.027h-.122c0-.075-.021-.117-.064-.127-.043-.01-.098-.015-.165-.015h-3.145v-.135c.032,0,.06-.011.084-.034.025-.023.037-.056.037-.101v-3.405c0-.045-.012-.079-.037-.101-.025-.023-.053-.034-.084-.034v-.135h3.078c.095,0,.161-.016.199-.049.038-.033.057-.076.057-.131h.122v.99h-.122Z"/>
  <path class="cls-2" d="M74.316,61.064c0-.055-.02-.096-.058-.124-.038-.027-.104-.041-.199-.041h-2.187v.93h1.323c.09,0,.16-.014.209-.042.049-.027.074-.099.074-.213h.121v1.17h-.121c0-.115-.025-.189-.074-.221-.05-.033-.119-.049-.209-.049h-1.323v1.035h2.254c.067,0,.122-.018.165-.052.043-.035.064-.083.064-.143h.121v1.027h-.121c0-.075-.021-.117-.064-.127-.043-.01-.098-.015-.165-.015h-3.145v-.135c.031,0,.059-.011.084-.034.025-.023.037-.056.037-.101v-3.405c0-.045-.012-.079-.037-.101-.025-.023-.053-.034-.084-.034v-.135h3.077c.095,0,.161-.016.199-.049.038-.033.058-.076.058-.131h.121v.99h-.121Z"/>
  <path class="cls-2" d="M24.44,70.651c.037-.005.06-.012.069-.021.009-.01.014-.022.014-.038v-1.223h-.506c-.016,0-.027.006-.035.018-.008.012-.014.036-.018.074h-.035v-.582h.035c.004.037.01.062.018.074.008.012.019.018.035.018h1.454c.016,0,.028-.006.036-.018.008-.012.013-.036.017-.074h.035v.582h-.035c-.004-.037-.01-.062-.017-.074-.008-.012-.02-.018-.036-.018h-.506v1.223c0,.015.004.028.013.038.009.01.032.017.069.021v.039h-.606v-.039Z"/>
  <path class="cls-2" d="M27.569,70.651c.006,0,.014-.001.024-.003.01-.002.015-.011.015-.026,0-.009-.003-.022-.01-.041-.007-.018-.015-.039-.023-.061-.009-.021-.018-.043-.028-.065-.01-.022-.018-.04-.024-.056h-.683c-.004.015-.01.034-.019.056-.009.022-.018.044-.028.065-.01.022-.019.042-.027.061-.008.018-.012.032-.012.041,0,.015.005.024.015.026.01.002.018.003.024.003v.039h-.441v-.039c.012,0,.023-.003.035-.009.012-.005.02-.013.024-.024.059-.153.119-.304.18-.453.061-.149.116-.285.163-.405.048-.121.088-.221.119-.301.031-.08.047-.125.047-.136,0-.02-.013-.03-.038-.033v-.039h.615v.039c-.026.002-.038.013-.038.033,0,.007.01.036.031.087.021.051.048.115.081.193.033.077.07.163.11.257.04.094.08.187.121.281.04.094.078.183.113.267.035.084.064.154.085.211.004.011.012.019.024.024.012.006.023.009.035.009v.039h-.489v-.039ZM27.174,69.591l-.241.573h.489l-.247-.573Z"/>
  <path class="cls-2" d="M29.567,69.29c-.029.002-.053.006-.069.013-.017.006-.025.021-.025.045v1.243c0,.024.008.039.025.046.016.006.04.011.069.013v.039h-.583v-.039c.029-.002.052-.007.069-.013.017-.006.025-.022.025-.046v-1.243c0-.024-.008-.039-.025-.045-.017-.007-.04-.011-.069-.013v-.039h.583v.039Z"/>
  <path class="cls-2" d="M30.951,69.29c-.018,0-.035.004-.053.012-.018.007-.027.023-.027.047,0,.009.005.033.015.072.01.039.023.086.038.139.016.053.032.111.05.173.018.062.035.122.051.18.017.058.031.11.044.157.012.047.021.081.025.103h.006c.004-.024.014-.059.028-.105.015-.046.032-.097.052-.153.02-.057.04-.116.062-.178.022-.063.042-.12.06-.172.019-.052.034-.098.046-.138.012-.039.018-.065.018-.078,0-.024-.009-.04-.027-.047-.018-.008-.035-.012-.053-.012v-.039h.598v.039c-.02,0-.038.004-.056.012-.018.007-.027.023-.027.047,0,.006.006.03.019.069.013.039.029.087.047.143.019.055.039.116.06.181.021.066.043.128.063.186.021.059.038.111.053.156.015.045.024.075.028.09h.006c.004-.024.012-.06.025-.107.013-.047.027-.099.044-.155.017-.057.034-.115.051-.175.018-.06.034-.117.05-.171.016-.053.029-.099.038-.139.01-.039.015-.065.015-.078,0-.024-.009-.04-.027-.047-.018-.008-.036-.012-.056-.012v-.039h.489v.039c-.027.004-.045.014-.053.029-.008.015-.016.035-.024.059-.006.022-.019.066-.038.134-.02.068-.043.146-.07.235-.027.09-.055.183-.084.282-.029.098-.056.189-.081.273-.026.084-.046.154-.062.211-.016.057-.024.088-.024.095,0,.022.027.036.082.043v.039h-.621v-.039c.057-.007.085-.021.085-.043,0-.011-.006-.036-.018-.075-.012-.039-.027-.086-.044-.141-.018-.054-.037-.114-.057-.177-.021-.063-.041-.123-.06-.18-.019-.057-.036-.107-.05-.15-.014-.044-.023-.074-.026-.092h-.006c-.004.018-.013.048-.027.092-.014.044-.03.094-.05.15-.019.057-.04.117-.06.18-.021.063-.04.122-.057.177-.018.054-.032.101-.044.141-.012.039-.018.064-.018.075,0,.013.007.023.022.028.015.006.033.011.054.015v.039h-.609v-.039c.053-.007.079-.021.079-.043,0-.008-.009-.045-.026-.108-.018-.063-.04-.14-.066-.231-.027-.09-.055-.188-.087-.294-.032-.106-.061-.204-.088-.296-.028-.092-.051-.17-.069-.234-.018-.064-.029-.102-.031-.113-.004-.018-.01-.029-.019-.034-.009-.006-.018-.008-.028-.008v-.039h.518v.039Z"/>
  <path class="cls-2" d="M34.731,70.651c.006,0,.014-.001.023-.003.01-.002.015-.011.015-.026,0-.009-.003-.022-.01-.041-.007-.018-.015-.039-.024-.061-.009-.021-.018-.043-.028-.065-.01-.022-.018-.04-.023-.056h-.683c-.004.015-.01.034-.019.056-.009.022-.018.044-.028.065-.01.022-.019.042-.027.061-.008.018-.012.032-.012.041,0,.015.005.024.015.026.01.002.018.003.024.003v.039h-.441v-.039c.012,0,.023-.003.035-.009.012-.005.02-.013.024-.024.059-.153.119-.304.18-.453.061-.149.115-.285.164-.405.048-.121.088-.221.119-.301.031-.08.047-.125.047-.136,0-.02-.013-.03-.038-.033v-.039h.615v.039c-.026.002-.038.013-.038.033,0,.007.01.036.031.087.021.051.048.115.081.193.033.077.07.163.11.257.04.094.08.187.121.281.04.094.078.183.113.267.035.084.064.154.085.211.004.011.012.019.024.024.012.006.024.009.035.009v.039h-.489v-.039ZM34.336,69.591l-.242.573h.489l-.247-.573Z"/>
  <path class="cls-2" d="M37.651,70.592c0,.024.008.039.023.046.016.007.035.011.059.013v.039h-.545v-.039c.016,0,.034-.002.054-.006.021-.005.031-.017.031-.036,0-.02-.022-.056-.065-.11-.043-.054-.099-.12-.166-.198-.068-.078-.144-.166-.228-.263-.084-.097-.168-.2-.25-.309l-.006.006v.857c0,.024.007.039.022.046.015.007.033.011.054.013v.039h-.504v-.039c.02-.002.037-.006.051-.013.015-.006.022-.021.022-.046v-1.243c0-.024-.008-.039-.024-.046-.016-.006-.034-.011-.056-.013v-.039h.701v.039c-.014.002-.028.006-.041.013-.014.007-.021.022-.021.046,0,.005.016.027.048.067.033.041.074.091.125.152.051.061.108.129.171.203.063.074.126.148.189.222v-.645c0-.024-.008-.039-.024-.046-.016-.006-.035-.011-.059-.013v-.039h.518v.039c-.024.002-.043.006-.059.013-.015.007-.023.022-.023.046v1.243Z"/>
  <path class="cls-2" d="M39.991,70.402c.039,0,.065-.027.076-.082h.035v.429h-.029c-.01-.031-.02-.048-.031-.052-.011-.005-.028-.007-.051-.007h-1.313v-.039c.022-.002.041-.007.057-.013.017-.006.025-.022.025-.046v-1.242c0-.024-.008-.039-.025-.046-.017-.006-.036-.011-.057-.013v-.039h1.336c.012,0,.024-.004.035-.013.012-.009.018-.028.018-.059h.035v.438h-.035c0-.033-.006-.054-.018-.064-.012-.01-.023-.015-.035-.015h-.86v.265h.553c.012,0,.023-.005.035-.015.012-.01.018-.03.018-.06h.035v.425h-.035c0-.03-.006-.051-.018-.06-.012-.01-.024-.015-.035-.015h-.553v.324h.836Z"/>
  <path class="cls-2" d="M41.157,70.209s0,.009-.001.015c-.001.005-.002.012-.002.021,0,.022.019.043.056.062.037.02.085.038.143.054.058.017.121.03.189.039.068.01.131.015.19.015.018,0,.042,0,.072-.003.03-.002.06-.008.09-.018.029-.01.054-.024.075-.042.021-.019.031-.045.031-.077,0-.044-.024-.075-.071-.093-.047-.018-.107-.033-.178-.042-.072-.01-.149-.021-.233-.031-.083-.011-.161-.03-.232-.057-.072-.027-.131-.066-.178-.117-.047-.051-.07-.123-.07-.214,0-.05.012-.104.035-.162.024-.058.061-.111.112-.159.051-.048.118-.087.202-.119.083-.032.185-.048.304-.048.071,0,.138.005.202.013.064.009.121.018.174.03.052.011.096.021.132.029.036.009.062.013.078.013.016,0,.028-.005.038-.015.01-.01.019-.018.027-.025l.033.013-.177.412-.038-.02s0-.01.001-.016c.001-.007.002-.013.002-.02,0-.009-.012-.02-.035-.033-.024-.013-.054-.026-.093-.039-.038-.013-.081-.024-.13-.034-.048-.01-.097-.015-.149-.015-.018,0-.045,0-.082.002-.037.001-.075.006-.112.016-.037.01-.07.024-.099.042-.029.019-.043.047-.043.084,0,.039.024.067.071.084.047.016.106.03.178.039.071.01.149.021.232.033.084.012.161.032.233.06.072.028.131.069.178.123.047.054.071.128.071.224,0,.063-.013.124-.038.182-.026.057-.065.108-.118.152-.053.044-.12.077-.202.1-.081.023-.178.034-.29.034-.071,0-.142-.005-.215-.015-.073-.01-.139-.022-.2-.036-.061-.014-.111-.027-.152-.039-.04-.012-.063-.018-.069-.018-.014,0-.026.005-.037.015-.011.01-.021.02-.031.031l-.032-.01.121-.438.038.019Z"/>
  <path class="cls-2" d="M44.604,70.402c.039,0,.065-.027.077-.082h.035v.429h-.03c-.01-.031-.02-.048-.031-.052-.011-.005-.028-.007-.052-.007h-1.313v-.039c.021-.002.04-.007.057-.013.016-.006.025-.022.025-.046v-1.242c0-.024-.009-.039-.025-.046-.017-.006-.036-.011-.057-.013v-.039h1.336c.012,0,.023-.004.035-.013.012-.009.018-.028.018-.059h.035v.438h-.035c0-.033-.006-.054-.018-.064-.012-.01-.024-.015-.035-.015h-.86v.265h.553c.012,0,.024-.005.035-.015.012-.01.018-.03.018-.06h.035v.425h-.035c0-.03-.006-.051-.018-.06-.012-.01-.023-.015-.035-.015h-.553v.324h.836Z"/>
  <path class="cls-2" d="M48.634,69.581c.002-.006.003-.014.004-.021,0-.007.002-.017.002-.027,0-.018-.013-.035-.04-.053-.027-.017-.062-.033-.106-.047-.044-.014-.095-.026-.151-.036-.057-.01-.117-.015-.18-.015-.059,0-.121.008-.185.023-.065.015-.124.04-.178.075-.054.035-.098.081-.132.139-.035.058-.052.128-.052.211s.017.153.052.211c.034.058.079.104.132.139.054.035.113.06.178.075.065.015.127.023.185.023.026,0,.066-.005.121-.015.055-.01.11-.023.165-.041.055-.018.104-.037.146-.059.042-.022.063-.045.063-.069,0-.011-.002-.019-.006-.026-.004-.006-.008-.014-.012-.023l.032-.023.303.514-.035.023c-.004-.011-.009-.018-.016-.021-.007-.003-.015-.005-.025-.005-.014,0-.041.009-.082.028-.041.018-.095.038-.161.059-.066.021-.143.039-.231.056-.088.016-.188.024-.297.024-.118,0-.234-.017-.35-.051-.116-.034-.22-.087-.312-.16-.092-.073-.167-.165-.224-.275-.057-.11-.085-.238-.085-.384s.028-.274.085-.384c.057-.11.132-.202.224-.275.092-.073.196-.128.312-.165.116-.037.233-.056.35-.056s.219.007.305.021c.085.014.157.03.216.047.057.018.101.032.133.045.031.012.055.018.071.018.017,0,.032-.009.044-.027l.032.01-.265.54-.029-.023Z"/>
  <path class="cls-2" d="M49.991,69.349c0-.024-.008-.039-.025-.046-.017-.006-.037-.011-.06-.013v-.039h.53v.039c-.01.002-.021.006-.032.013-.012.007-.018.022-.018.046v.795c0,.083.027.142.081.178s.125.054.213.054.159-.018.213-.054c.054-.036.081-.096.081-.178v-.795c0-.024-.006-.039-.018-.046-.012-.006-.023-.011-.032-.013v-.039h.53v.039c-.024.002-.044.006-.06.013-.017.007-.025.022-.025.046v.72c0,.087-.012.17-.035.247-.023.077-.062.145-.115.203-.053.057-.124.102-.212.134-.088.031-.197.047-.327.047s-.239-.016-.327-.047c-.088-.032-.159-.077-.212-.134-.053-.058-.091-.126-.115-.203-.023-.078-.035-.16-.035-.247v-.72Z"/>
  <path class="cls-2" d="M53.035,69.29c-.029.002-.053.006-.069.013-.016.006-.025.021-.025.045v1.243c0,.024.008.039.025.046.017.006.04.011.069.013v.039h-.583v-.039c.029-.002.053-.007.069-.013.017-.006.025-.022.025-.046v-1.243c0-.024-.008-.039-.025-.045-.017-.007-.04-.011-.069-.013v-.039h.583v.039Z"/>
  <path class="cls-2" d="M54.091,70.209s0,.009-.002.015c-.001.005-.001.012-.001.021,0,.022.019.043.056.062.037.02.085.038.143.054.058.017.121.03.189.039.068.01.131.015.19.015.018,0,.042,0,.072-.003.03-.002.06-.008.09-.018.029-.01.054-.024.075-.042.021-.019.031-.045.031-.077,0-.044-.024-.075-.071-.093-.047-.018-.107-.033-.178-.042-.072-.01-.149-.021-.233-.031-.083-.011-.161-.03-.232-.057-.072-.027-.131-.066-.178-.117-.047-.051-.071-.123-.071-.214,0-.05.012-.104.035-.162.024-.058.061-.111.112-.159.051-.048.118-.087.202-.119.083-.032.185-.048.305-.048.071,0,.138.005.202.013.064.009.122.018.174.03.052.011.096.021.132.029.036.009.062.013.078.013.016,0,.029-.005.038-.015.01-.01.019-.018.027-.025l.032.013-.177.412-.038-.02s0-.01.002-.016c.001-.007.001-.013.001-.02,0-.009-.012-.02-.035-.033-.024-.013-.054-.026-.093-.039-.038-.013-.081-.024-.129-.034-.048-.01-.098-.015-.149-.015-.018,0-.045,0-.083.002-.037.001-.075.006-.112.016-.037.01-.07.024-.099.042-.028.019-.043.047-.043.084,0,.039.024.067.071.084.047.016.107.03.178.039.071.01.149.021.232.033.084.012.161.032.232.06.072.028.131.069.178.123s.07.128.07.224c0,.063-.013.124-.038.182-.026.057-.065.108-.118.152-.053.044-.12.077-.202.1-.081.023-.178.034-.29.034-.071,0-.142-.005-.215-.015-.073-.01-.139-.022-.2-.036-.061-.014-.111-.027-.152-.039-.04-.012-.063-.018-.069-.018-.014,0-.026.005-.037.015-.011.01-.021.02-.031.031l-.032-.01.121-.438.038.019Z"/>
  <path class="cls-2" d="M56.829,69.29c-.029.002-.052.006-.069.013-.017.006-.025.021-.025.045v1.243c0,.024.008.039.025.046.017.006.04.011.069.013v.039h-.583v-.039c.029-.002.052-.007.069-.013.017-.006.025-.022.025-.046v-1.243c0-.024-.008-.039-.025-.045-.017-.007-.04-.011-.069-.013v-.039h.583v.039Z"/>
  <path class="cls-2" d="M59.319,70.592c0,.024.008.039.024.046.016.007.035.011.059.013v.039h-.544v-.039c.015,0,.034-.002.054-.006.021-.005.031-.017.031-.036,0-.02-.022-.056-.065-.11-.043-.054-.099-.12-.166-.198-.068-.078-.144-.166-.228-.263-.085-.097-.168-.2-.25-.309l-.006.006v.857c0,.024.007.039.022.046.015.007.033.011.055.013v.039h-.504v-.039c.02-.002.037-.006.052-.013.015-.006.022-.021.022-.046v-1.243c0-.024-.008-.039-.024-.046-.016-.006-.034-.011-.056-.013v-.039h.701v.039c-.014.002-.028.006-.041.013-.014.007-.021.022-.021.046,0,.005.016.027.048.067.033.041.074.091.125.152.051.061.108.129.171.203.063.074.126.148.188.222v-.645c0-.024-.008-.039-.023-.046-.016-.006-.035-.011-.059-.013v-.039h.518v.039c-.024.002-.043.006-.059.013-.016.007-.024.022-.024.046v1.243Z"/>
  <path class="cls-2" d="M61.66,70.402c.039,0,.065-.027.077-.082h.035v.429h-.029c-.01-.031-.02-.048-.031-.052-.011-.005-.028-.007-.052-.007h-1.313v-.039c.022-.002.041-.007.058-.013.017-.006.025-.022.025-.046v-1.242c0-.024-.009-.039-.025-.046-.017-.006-.036-.011-.058-.013v-.039h1.337c.012,0,.023-.004.035-.013.012-.009.018-.028.018-.059h.035v.438h-.035c0-.033-.006-.054-.018-.064-.012-.01-.024-.015-.035-.015h-.86v.265h.553c.012,0,.024-.005.035-.015.012-.01.018-.03.018-.06h.035v.425h-.035c0-.03-.006-.051-.018-.06-.012-.01-.023-.015-.035-.015h-.553v.324h.836Z"/>
  <path class="cls-2" d="M25.773,75.401c-.004-.015-.01-.027-.019-.034-.009-.007-.024-.012-.046-.012-.02,0-.04.01-.062.03-.021.02-.042.043-.062.07-.02.027-.037.055-.051.084-.015.028-.025.052-.031.072.01.011.024.023.041.036.018.013.036.025.056.036.02.011.039.02.059.027.02.008.036.012.05.012.029,0,.047-.015.053-.046h.036v.448c-.047,0-.096-.002-.144-.005-.049-.003-.097-.012-.144-.027-.047-.014-.092-.034-.134-.06-.042-.026-.08-.059-.113-.098-.094.076-.189.127-.284.152-.095.025-.201.038-.317.038-.073,0-.147-.009-.223-.028-.077-.018-.146-.05-.208-.093-.062-.044-.112-.099-.151-.167-.039-.067-.059-.149-.059-.245,0-.063.01-.121.03-.175.019-.054.046-.102.08-.146.033-.044.073-.081.118-.113.045-.032.093-.057.144-.077-.039-.035-.073-.075-.102-.123-.029-.047-.043-.099-.043-.155,0-.087.017-.159.051-.214.034-.056.078-.099.132-.131.054-.031.114-.053.18-.065.066-.012.129-.018.19-.018.063,0,.126.006.189.018.063.012.12.033.172.064.052.03.094.072.127.126.032.053.048.123.048.207,0,.042-.007.08-.022.116-.015.036-.034.069-.058.098-.023.03-.05.056-.079.08-.03.024-.059.046-.089.066.033.03.065.065.094.105.03.039.058.078.086.114.069-.111.146-.213.232-.306.086-.093.186-.167.298-.224v.562h-.024ZM24.731,75.774c.057,0,.117-.016.18-.047.063-.032.112-.072.147-.123-.061-.192-.17-.288-.327-.288-.075,0-.136.02-.185.06-.049.04-.074.096-.074.168s.024.128.074.168c.049.04.111.06.185.06M24.796,74.623c-.045,0-.089.015-.132.046-.043.03-.067.078-.071.144.004.065.028.113.071.144.043.03.087.045.132.045s.089-.015.133-.045c.043-.031.067-.079.07-.144-.004-.066-.027-.114-.07-.144-.043-.03-.087-.046-.133-.046"/>
  <path class="cls-2" d="M29.694,75.006c.002-.007.003-.014.005-.021,0-.007.001-.017.001-.027,0-.018-.013-.035-.04-.053-.027-.017-.062-.033-.106-.047-.044-.015-.095-.026-.152-.036-.057-.01-.117-.015-.18-.015-.059,0-.121.008-.186.023-.065.015-.124.04-.178.075-.054.035-.098.081-.132.139-.034.058-.051.129-.051.211s.017.153.051.211c.034.058.078.104.132.139.054.035.113.06.178.075.065.015.127.023.186.023.026,0,.066-.005.121-.015.055-.01.11-.023.165-.041.055-.018.103-.037.146-.059.042-.022.063-.045.063-.069,0-.011-.002-.02-.006-.026-.004-.006-.008-.014-.012-.023l.032-.023.303.514-.035.023c-.004-.011-.009-.018-.016-.021-.007-.003-.015-.005-.025-.005-.013,0-.041.009-.082.028-.041.018-.095.038-.161.059-.066.021-.143.039-.231.056-.088.016-.187.024-.297.024-.118,0-.235-.017-.351-.051-.116-.034-.22-.087-.312-.16-.092-.073-.167-.165-.224-.275-.057-.11-.085-.238-.085-.384s.029-.274.085-.384c.057-.11.131-.201.224-.275.092-.073.196-.128.312-.165.116-.037.233-.056.351-.056s.219.007.305.021c.085.015.158.03.216.048.057.018.101.032.132.044.032.012.055.018.071.018.018,0,.032-.009.044-.026l.032.01-.265.54-.029-.023Z"/>
  <path class="cls-2" d="M31.416,76.016c0,.024.008.039.024.046.016.006.035.011.059.013v.039h-.559v-.039c.024-.002.043-.006.059-.013.016-.006.024-.022.024-.046v-1.243c0-.024-.008-.039-.024-.046-.016-.006-.035-.011-.059-.013v-.039h.559v.039c-.024.002-.043.006-.059.013-.016.006-.024.022-.024.046v.412h.651v-.412c0-.024-.008-.039-.024-.046-.016-.006-.035-.011-.059-.013v-.039h.559v.039c-.024.002-.043.006-.059.013-.016.006-.023.022-.023.046v1.243c0,.024.008.039.023.046.016.006.035.011.059.013v.039h-.559v-.039c.024-.002.043-.006.059-.013.016-.006.024-.022.024-.046v-.497h-.651v.497Z"/>
  <path class="cls-2" d="M34.648,76.075c.006,0,.014-.001.024-.003.01-.002.015-.011.015-.026,0-.009-.003-.022-.01-.041-.007-.018-.015-.039-.023-.06-.009-.022-.018-.043-.028-.066-.01-.021-.018-.04-.024-.055h-.683c-.004.015-.01.034-.019.055-.009.022-.018.044-.028.066-.01.022-.019.042-.027.06-.008.019-.012.033-.012.041,0,.015.005.024.015.026.01.002.018.003.024.003v.039h-.441v-.039c.012,0,.023-.003.035-.009.012-.005.02-.013.024-.024.059-.153.119-.303.18-.453.061-.149.115-.285.163-.405.048-.121.088-.222.119-.301.031-.079.047-.124.047-.135,0-.02-.013-.03-.038-.033v-.039h.615v.039c-.025.002-.038.013-.038.033,0,.006.01.035.031.087.021.051.047.116.081.193.033.078.07.163.11.257.04.094.08.188.121.282.04.094.078.183.113.267.035.084.064.154.085.211.004.011.012.019.024.024.012.006.023.009.035.009v.039h-.489v-.039ZM34.254,75.016l-.241.573h.489l-.247-.573Z"/>
  <path class="cls-2" d="M36.47,76.016c0,.024.008.039.024.046.016.006.035.011.059.013v.039h-.462v-.039c.016-.002.031-.006.046-.013.015-.006.022-.022.022-.046v-1.243c0-.024-.007-.039-.022-.046-.015-.006-.03-.011-.046-.013v-.039h.639v.039c-.015.002-.029.004-.04.006-.011.002-.016.009-.016.02,0,.009.011.04.034.095.023.054.048.114.078.18.03.065.057.127.083.185.025.058.041.096.047.113.023-.052.05-.109.081-.171.03-.062.059-.121.085-.177.026-.056.048-.105.066-.146.018-.042.026-.068.026-.078,0-.011-.005-.018-.016-.02-.011-.002-.024-.004-.04-.006v-.039h.642v.039c-.014.002-.027.006-.041.013-.014.006-.021.022-.021.046v1.243c0,.024.007.039.021.046.014.006.027.011.041.013v.039h-.492v-.039c.022-.002.04-.006.054-.013.015-.006.022-.022.022-.046v-.929h-.006l-.439.945-.424-.945h-.006v.929Z"/>
  <path class="cls-2" d="M38.825,74.773c0-.024-.006-.039-.019-.046-.013-.006-.022-.011-.028-.013v-.039h.774c.073,0,.143.006.211.02.068.013.127.037.178.072.051.035.092.082.124.142.031.06.047.138.047.234,0,.093-.015.171-.047.232-.032.061-.073.109-.124.144-.051.035-.11.059-.178.072-.068.013-.138.02-.211.02h-.333v.405c0,.024.008.039.022.046.015.006.03.011.046.013v.039h-.509v-.039c.006-.002.015-.007.028-.013.013-.006.019-.022.019-.046v-1.243ZM39.499,75.336c.083,0,.141-.015.177-.044.035-.03.053-.079.053-.149,0-.068-.015-.117-.047-.147-.031-.03-.084-.046-.159-.046h-.303v.386h.28Z"/>
  <path class="cls-2" d="M42.14,76.075c.006,0,.014-.001.024-.003.01-.002.015-.011.015-.026,0-.009-.003-.022-.01-.041-.007-.018-.015-.039-.023-.06-.009-.022-.018-.043-.028-.066-.01-.021-.017-.04-.023-.055h-.683c-.004.015-.01.034-.019.055-.009.022-.018.044-.028.066-.01.022-.019.042-.027.06-.008.019-.012.033-.012.041,0,.015.005.024.015.026.01.002.018.003.024.003v.039h-.441v-.039c.012,0,.023-.003.035-.009.012-.005.019-.013.023-.024.059-.153.119-.303.18-.453.061-.149.115-.285.164-.405.048-.121.088-.222.119-.301.031-.079.047-.124.047-.135,0-.02-.013-.03-.038-.033v-.039h.615v.039c-.026.002-.038.013-.038.033,0,.006.01.035.031.087.021.051.048.116.081.193.033.078.07.163.11.257.04.094.08.188.121.282.04.094.078.183.114.267.035.084.064.154.085.211.004.011.012.019.024.024.012.006.023.009.035.009v.039h-.489v-.039ZM41.745,75.016l-.242.573h.489l-.247-.573Z"/>
  <path class="cls-2" d="M47.417,76.016c0,.024.008.039.024.046.016.006.035.011.059.013v.039h-.544v-.039c.015,0,.034-.002.054-.006.021-.004.031-.016.031-.036s-.022-.056-.065-.11c-.043-.053-.099-.119-.166-.198-.068-.078-.144-.166-.228-.263-.084-.097-.168-.2-.25-.309l-.006.007v.857c0,.024.007.039.022.046s.033.011.054.013v.039h-.504v-.039c.02-.002.037-.006.052-.013.015-.006.022-.022.022-.046v-1.243c0-.024-.008-.039-.023-.046-.016-.006-.034-.011-.056-.013v-.039h.701v.039c-.014.002-.028.006-.041.013-.014.006-.021.022-.021.046,0,.004.016.027.049.067.032.04.074.091.125.152.051.061.108.129.171.203.063.074.126.148.189.222v-.644c0-.024-.008-.039-.024-.046-.016-.006-.035-.011-.059-.013v-.039h.518v.039c-.024.002-.043.006-.059.013-.016.006-.024.022-.024.046v1.243Z"/>
  <path class="cls-2" d="M44.93,75.778c0,.022.005.042.015.059.01.018.023.026.041.026h.027v.039c-.047.026-.101.053-.162.08-.061.027-.126.052-.197.074-.071.021-.143.039-.218.051-.075.012-.149.018-.224.018-.114,0-.219-.013-.315-.039-.096-.026-.178-.069-.246-.129-.068-.06-.121-.136-.159-.229-.038-.093-.057-.204-.057-.332s.021-.239.065-.332c.043-.093.101-.169.174-.229.073-.06.156-.105.249-.134.093-.03.19-.044.29-.044.074,0,.142.005.204.015.062.01.116.021.163.035.047.013.086.024.116.034.03.01.051.015.06.015.016,0,.026-.003.031-.009.005-.007.011-.015.019-.023l.035.006-.153.432-.035-.02v-.023c0-.02-.013-.038-.04-.056-.027-.017-.06-.033-.099-.047-.039-.014-.081-.025-.125-.033-.044-.007-.084-.011-.119-.011-.061,0-.119.008-.174.023-.055.015-.103.041-.143.075-.04.035-.072.079-.096.132-.024.054-.035.118-.035.195,0,.078.012.146.035.201.024.055.056.101.097.137.041.036.089.063.144.08.055.018.115.026.18.026.049,0,.097-.004.144-.012.047-.008.094-.02.141-.037v-.213h-.247c-.024,0-.038.009-.044.029-.006.02-.009.036-.009.049h-.035v-.405h.035c0,.013.003.03.009.049.006.019.021.03.044.03h.612v.448Z"/>
  <path class="cls-2" d="M49.788,75.826c.039,0,.065-.027.077-.081h.035v.428h-.03c-.01-.03-.02-.048-.031-.052-.011-.005-.028-.007-.052-.007h-1.313v-.039c.021-.003.041-.007.057-.013.017-.007.025-.022.025-.046v-1.243c0-.024-.009-.039-.025-.046-.017-.006-.036-.011-.057-.013v-.039h1.336c.012,0,.024-.004.035-.013.012-.009.018-.028.018-.059h.035v.438h-.035c0-.033-.006-.054-.018-.064-.012-.01-.024-.015-.035-.015h-.86v.265h.553c.012,0,.024-.005.035-.015.012-.01.018-.03.018-.06h.035v.425h-.035c0-.03-.006-.051-.018-.06-.012-.01-.023-.015-.035-.015h-.553v.324h.836Z"/>
</svg>