<?xml version="1.0" encoding="UTF-8"?>
<svg xmlns="http://www.w3.org/2000/svg" version="1.1" viewBox="0 0 100 100">
  <defs>
    <style>
      .cls-1 {
        fill: none;
      }

      .cls-2 {
        fill: #221714;
      }

      .cls-3 {
        fill: #d44518;
      }
    </style>
  </defs>
  <!-- Generator: Adobe Illustrator 28.7.1, SVG Export Plug-In . SVG Version: 1.2.0 Build 142)  -->
  <g>
    <g id="_圖層_1">
      <g>
        <path class="cls-2" d="M62.2,32.3h.8v-.7c0,.4-.4.7-.8.7"/>
        <path class="cls-2" d="M64.5,41.2h-4.9c-.4,0-.7-.3-.7-.7v-.8c0-.4.3-.7.7-.7h3.5v-.7h-9.8v.7h3.5c.4,0,.7.3.7.7v.8c0,.4-.3.7-.7.7h-4.9v.7h4.9c.4,0,.7.3.7.7h0v2.1h1.4v-2.1c0-.4.3-.7.7-.7h4.9s0-.7,0-.7Z"/>
        <path class="cls-2" d="M63.8,46.1h0c0-.4-.3-.7-.7-.7h-9.8c-.4,0-.7.3-.7.7v9h11.2s0-9,0-9ZM62.3,53.7c0,.4-.3.7-.7.7h0s-7,0-7,0c-.4,0-.7-.3-.7-.7v-2.5c0-.4.3-.7.7-.7h7c.4,0,.7.3.7.7v2.5h0ZM62.3,49.1c0,.4-.3.7-.7.7h-7c-.4,0-.7-.3-.7-.7v-2.3c0-.4.3-.7.7-.7h7c.4,0,.7.3.7.7v2.3h0Z"/>
        <path class="cls-2" d="M53.7,44.5l1.6-2h-1.4l-2.1,2.2h1.5c.2,0,.3,0,.4-.2"/>
        <path class="cls-2" d="M62.6,44.5l-1.6-2h1.4l2.1,2.2h-1.5c-.2,0-.3,0-.4-.2"/>
        <path class="cls-2" d="M30.1,46c0-.4-.3-.7-.7-.7h-9.8c-.4,0-.7.3-.7.7v9h11.2v-9.1s0,0,0,0ZM28.7,53.7c0,.4-.3.7-.7.7h-7c-.4,0-.7-.3-.7-.7v-6.9c0-.4.3-.7.7-.7h7c.4,0,.7.3.7.7h0v6.9Z"/>
        <path class="cls-2" d="M27.1,40.4l1.6,2.6c0,0,0,.2,0,.3,0,.4-.3.7-.7.7h-7.2c-.4,0-.7-.3-.7-.7s0-.3.1-.4h0l2.8-4.6h-1.4l-3.5,5.7h0v.7h12.6v-.7l-2.2-3.6h-1.4Z"/>
        <rect class="cls-2" x="21" y="17.7" width="7" height=".7"/>
        <path class="cls-2" d="M30.1,16.1h-4.2c-.4,0-.7-.3-.7-.7h-1.4c0,.4-.3.7-.7.7h-4.3c-.3,0-.6.3-.6.7v3h1.4v-2.2c0-.4.3-.7.7-.7h8.4c.4,0,.7.3.7.7v2.2h1.4v-2.9c0-.4-.3-.7-.7-.7"/>
        <path class="cls-2" d="M28,19.1h-7c-.4,0-.7.3-.7.7h0v2.1h1.4s5.6,0,5.6,0h0s1.4,0,1.4,0v-2.2c0-.4-.3-.6-.7-.7M27.3,20.5c0,.4-.3.7-.7.7h-4.2c-.4,0-.7-.3-.7-.7h0c0-.4.3-.7.7-.7h4.2c.4,0,.7.3.7.7h0Z"/>
        <path class="cls-2" d="M29.4,22.6h-9.9c-.4,0-.7.3-.7.7v9h11.2v-9c0-.4-.3-.7-.7-.7M23.8,30.9c0,.4-.3.7-.7.7h-2.1c-.4,0-.7-.3-.7-.7h0v-2.4h0c0-.4.3-.7.7-.7h2.1c.4,0,.7.3.7.7v2.4h0ZM23.8,26.4c0,.4-.3.7-.6.7h-2.2c-.4,0-.6-.3-.6-.7h0v-2.4c0-.4.3-.7.7-.7h2.1c.4,0,.7.3.7.7v2.4h0ZM28.7,30.9c0,.4-.3.7-.7.7h-2.1c-.4,0-.7-.3-.7-.7h0v-2.4h0c0-.4.3-.7.7-.7h2.1c.4,0,.7.3.7.7v2.4ZM28.7,26.4c0,.4-.3.7-.6.7h-2.2c-.4,0-.6-.3-.6-.7h0v-2.4h0c0-.4.3-.7.7-.7h2.1c.4,0,.7.3.7.7v2.4h0Z"/>
        <path class="cls-2" d="M38.2,15.4h0s0,0,0,0h-1.7c-.3,1.1-1.6,1.9-1.6,1.9v1.2c1-.5,1.5-1.2,1.9-1.7h1c.4.5.9,1.1,1.9,1.7v-1.2s-1.2-.8-1.6-1.9"/>
        <path class="cls-2" d="M35,19.7h1c.4,0,.7.3.7.7v1.4c0,.4-.3.7-.7.7h-1v.7h.2c.2,0,.3.1.3.3l.3,6.9h0c0,.2-.1.3-.2.3h-.7v1.4l4.8-1.4v-.7h-.5c-.2,0-.3,0-.3-.3h0l.2-6.3c0-.2.2-.3.3-.3h.2v-.7h-1c-.4,0-.7-.3-.7-.7v-1.4c0-.4.3-.7.7-.7h1v-.7h-4.8s0,.7,0,.7ZM38.1,29.8c0,.3-.2.6-.5.7h0c-.4,0-.7-.3-.7-.7h0v-6.2c.1-.2.3-.3.5-.3h.2c.2,0,.4.2.4.4h0l.2,6.3h0Z"/>
        <path class="cls-2" d="M46.9,22.6h-2.1v-.7h2.4v-5c0-.4-.3-.7-.7-.7h-1c-.4,0-.6-.3-.6-.7h0s-1.4,0-1.4,0h0c0,.4-.3.7-.7.7h-.9c-.4,0-.7.3-.7.7h0v5s2.4,0,2.4,0v.7h-2.2c-.4,0-.7.3-.7.7v8.3h.7c.4,0,.7-.3.7-.7h0v-6.9c0-.4.3-.7.7-.7h0c.4,0,.7.3.7.7v8.3h1.4v-8.3c0-.4.3-.7.7-.7h0c.4,0,.7.3.7.7v7c0,.4.3.7.7.7h.7v-8.4c0-.4-.3-.7-.7-.7M43.1,21.1c-.4,0-.7-.3-.7-.7h0v-.4c0-.4.3-.7.7-.7h1.9v-.7h-1.9c-.4,0-.7-.3-.7-.7v-.4c0-.4.3-.7.7-.7h1.9c.4,0,.7.3.7.7v2.9c0,.4-.3.7-.7.7h-1.9Z"/>
        <path class="cls-2" d="M45.5,41.3c-3.4.7-8.4.5-8.4.5v1.1s5.5-.1,8.4-.9c0,0,0-.7,0-.7Z"/>
        <path class="cls-2" d="M47.6,45.4h-1.4c-.4,0-.7-.3-.7-.7h0v-.8h-1.4v.8c0,.4-.3.7-.7.7h-.7c-.4,0-.7-.3-.7-.7v-.8h-1.4v.8c0,.4-.3.7-.7.7h-.8c-.4,0-.7-.3-.7-.7v-.8h-1.4v.8h0c0,.4-.3.7-.7.7h-1.4v.7h4.9c.4,0,.7.3.7.6v8.4h1.4v-8.3h0c0-.4.3-.7.7-.7h4.9v-.7h0Z"/>
        <path class="cls-2" d="M36.5,54.3l2-7.5h-1.4l-2.1,7.9h.9c.3,0,.5-.2.6-.5"/>
        <path class="cls-2" d="M46.1,54.2c0,.3.3.5.7.5h.9l-2.1-7.9h-1.4l2,7.4h0Z"/>
        <path class="cls-2" d="M46.2,39.1c-.4,0-.7-.3-.7-.7v-.2h-1.4v.2c0,.4-.3.6-.7.7h-4.2c-.4,0-.7-.3-.7-.7v-.2h-1.4v.2c0,.4-.3.6-.6.7h-1.5v.7h1.4c.4,0,.7.3.7.7h0v.2h1.4v-.2c0-.4.3-.7.6-.7h4.3c.4,0,.7.3.7.7v.2h1.4v-.2c0-.4.3-.7.7-.7h1.4v-.7h-1.4Z"/>
        <path class="cls-2" d="M55.1,18.3h.4v-.7h-.5c-.4,0-.7-.3-.7-.7v-1.5h-1.4v1.5c0,.4-.3.7-.7.7h-.5v.7h.4c.4,0,.7.3.7.7v1.4c-.2.9-.5,2.1-1.1,3v1.5s.7-.5,1.1-1.7v9.1h1.4v-9.1c.4,1.2,1.1,1.7,1.1,1.7v-1.5c-.6-.9-.9-2.1-1.1-3v-1.4c0-.4.3-.7.7-.7"/>
        <path class="cls-2" d="M59.7,17h.7v-.7h-1.1c-.2,0-.3-.2-.3-.3h0v-.5h-1.4v.5h0c0,.2-.1.3-.3.3h-1.1v.7h.7c.4,0,.7.3.7.7v.6c0,.4-.3.7-.7.7h-.7v.7h4.2v-.7h-.7c-.4,0-.7-.3-.7-.7v-.6c0-.4.3-.6.7-.7"/>
        <path class="cls-2" d="M60.9,30.2h0c-.4,0-.7-.3-.7-.7l.2-4.6v-3.9h0s0,0,0,0c0-.4-.3-.7-.6-.7h-2.9c-.4,0-.7.3-.7.7h0v3s0,.8,0,.8l.3,5.3c0,.3-.3.6-.5.6h-.5v1.4l5.6-1.4v-.7h-.2s0,0,0,0ZM57.7,21.8h0c0-.4.3-.7.7-.7s.7.3.7.6v1.8h0c0,.4-.3.7-.7.7h0c-.4,0-.7-.3-.7-.7h0v-1.8h0ZM58.7,30.5h-.2s0,0,0,0h-.4c-.4,0-.6-.3-.7-.6v-4.4c.1-.3.4-.6.8-.6h0c.4,0,.7.3.7.6l.2,4.3c0,.3-.2.6-.5.7"/>
        <path class="cls-2" d="M63.9,17v-1.5h-1.4v1.5c0,.4-.3.7-.7.7h-.6v.7h.6c.4,0,.7.3.7.7h0v3.3c-.4-1.5-1.3-2-1.3-2v1.6c.9,1.2,1.2,3.1,1.3,3.8v4.9c0,.3-.2.6-.6.7l-1.4.2v.7h2.7c.4,0,.7-.3.7-.7v-12.5c0-.3.3-.6.6-.7h0v-.7c-.3,0-.6-.3-.6-.7"/>
        <path class="cls-2" d="M71.7,42.6c0-.4.3-.7.7-.7h1v-.7h-1c-.4,0-.7-.3-.7-.7v-2.2h-1.4v2.2c0,.4-.3.7-.7.7h-1v.7h1c.4,0,.7.3.7.7v.5c-.2,1-.8,2.7-1.6,3.4v1.5s1.1-.7,1.6-2.4v9.5h1.4v-9.7c.5,1.8,1.6,2.5,1.6,2.5v-1.5c-.8-.8-1.4-2.5-1.6-3.5v-.4s0,0,0,0Z"/>
        <path class="cls-2" d="M75.3,41.8h-.7v1.3c0,.4.3.7.7.7h.7v-1.3c0-.4-.3-.7-.7-.7"/>
        <path class="cls-2" d="M80.6,39h-1.4c-.4,0-.7-.3-.7-.7h0s-1.4,0-1.4,0h0c0,.4-.3.7-.7.7h-1.5c-.4,0-.7.3-.7.7v1.5h1.4v-.8c0-.4.3-.7.7-.7h2.9c.4,0,.7.3.7.7v.8h1.4v-1.5c0-.4-.3-.7-.7-.7"/>
        <path class="cls-2" d="M80.2,44.7h-2c1.2-.6,2.4-1.5,2.7-2.9h-1.4s-.1.8-1.1,1.5v-1.6c0-.4.3-.6.7-.6h0v-.6h-2.9v.6h0c.4,0,.7.3.7.6v2.4c-.5.2-1.2.4-1.9.5h0c-.3,0-.6.4-.6.7v6.9h6.4s0-6.9,0-6.9c0-.4-.3-.7-.7-.7M79.5,50.9c0,.3-.3.6-.6.6h-2.4c-.3,0-.6-.3-.6-.7v-.3c0-.4.3-.7.7-.7h2.2v-.7h-2.2c-.4,0-.7-.3-.7-.7,0-.4.3-.7.7-.7h2.2v-.7h-2.2c-.4,0-.7-.3-.7-.7v-.3c0-.4.3-.7.7-.7h2.2c.4,0,.7.3.7.7,0,0,0,4.8,0,4.8Z"/>
        <path class="cls-2" d="M75.9,54.7l.8-2h-1.2l-1.3,2.4h1.1c.3,0,.5-.2.6-.4"/>
        <path class="cls-2" d="M80.1,55.1h1.1s-1.3-2.4-1.3-2.4h-1.2l.8,2c.1.2.3.4.6.4"/>
        <g>
          <path class="cls-1" d="M75.9,79.5h-.1c0-.1,0,1.8,0,1.8h.6v-1.9h0c0,.1-.1.2-.2.2,0,0-.2,0-.2,0h0Z"/>
          <polygon class="cls-1" points="76.4 77.9 76.1 77.7 75.8 77.9 75.8 78.5 76.1 78.8 76.4 78.5 76.4 77.9"/>
          <path class="cls-1" d="M78.6,74.5c-.3-.3-.9-.5-1.3-.5h-2.5c-.4,0-1,.3-1.3.5l-1.8,1.8c-.3.3-.5.9-.5,1.3v2.5c0,.4.3,1,.5,1.3l1.8,1.8c.3.3.9.5,1.3.5h2.5c.4,0,1-.3,1.3-.5l1.8-1.8c.3-.3.5-.9.5-1.3v-2.5c0-.4-.3-1-.5-1.3,0,0-1.8-1.8-1.8-1.8ZM74.5,79.1c0,0,0,.1,0,.2,0,0,0,.2-.1.2-.1,0-.3,0-.4,0l-.2-.4v2.5c0,.2-.1.3-.3.3s-.3-.1-.3-.3v-2.5l-.3.4c0,0-.1.1-.2.1,0,0-.2,0-.2,0s-.1-.1-.1-.2,0-.2,0-.2l.8-.9v-.7l-.3.4c0,0-.1,0-.2.1,0,0-.2,0-.2,0-.1-.1-.1-.3,0-.4l.8-1c0,0,.1,0,.2-.1,0,0,0,0,0,0,.1,0,.2.1.3.2l.8.9c.1.1,0,.3,0,.4-.1.1-.3,0-.4,0l-.3-.3v.7l.7,1h0ZM77.3,81.8h-2.3c-.2,0-.3-.1-.3-.3s.1-.3.3-.3h.3v-3.5c0,0,0-.1,0-.2l.5-.5v-.6l-.5.6c-.1.1-.3.1-.4,0-.1-.1-.1-.3,0-.4l1-1.2c.1-.1.3-.1.4,0l1.1,1.2c.1.1.1.3,0,.4s-.3.1-.4,0l-.6-.6v.6l.5.5c0,0,0,.1,0,.2v.8s0,0,0,0v2.6h.3c.2,0,.3.1.3.3s-.1.3-.3.3h0ZM79.7,79.1c0,0,0,.1,0,.2s0,.2-.1.2c-.1.1-.3,0-.4,0l-.2-.3v2.4c0,.2-.1.3-.3.3s-.3-.1-.3-.3v-4.1l-.3.4c0,0-.1.1-.2.1,0,0-.2,0-.2,0-.1-.1-.1-.3,0-.4l.8-1c0,0,.1-.1.2-.1h0c.1,0,.2,0,.3.2l.8.9c.1.1,0,.3,0,.4-.1.1-.3,0-.4,0l-.3-.3v.8s.7.8.7.8Z"/>
          <path class="cls-3" d="M81.1,75.7l-1.8-1.8c-.4-.4-1.3-.8-1.9-.8h-2.5c-.6,0-1.5.4-1.9.8l-1.8,1.8c-.4.4-.8,1.3-.8,1.9v2.5c0,.6.4,1.5.8,1.9l1.8,1.8c.4.4,1.3.8,1.9.8h2.5c.6,0,1.5-.4,1.9-.8l1.8-1.8c.4-.4.8-1.3.8-1.9v-2.5c0-.6-.4-1.5-.8-1.9ZM81,77.6v2.5c0,.4-.3,1-.5,1.3l-1.8,1.8c-.3.3-.9.5-1.3.5h-2.5c-.4,0-1-.3-1.3-.5l-1.8-1.8c-.3-.3-.5-.9-.5-1.3v-2.5c0-.4.3-1,.5-1.3l1.8-1.8c.3-.3.9-.5,1.3-.5h2.5c.4,0,1,.3,1.3.5l1.8,1.8c.3.3.5.9.5,1.3Z"/>
          <path class="cls-3" d="M77.3,81.3h-.3v-2.6s0,0,0,0v-.8c0,0,0-.1,0-.2l-.5-.5v-.6l.6.6c.1.1.3.1.4,0,.1-.1.1-.3,0-.4l-1.1-1.2c-.1-.1-.3-.1-.4,0l-1,1.2c-.1.1-.1.3,0,.4.1.1.3,0,.4,0l.5-.6v.6l-.5.5c0,0,0,.1,0,.2v3.5h-.3c-.2,0-.3.1-.3.3s.1.3.3.3h2.3c.2,0,.3-.1.3-.3s-.1-.3-.3-.3h0ZM75.8,78.5v-.6l.3-.2.3.2v.6l-.3.2-.3-.2h0ZM76.4,79.4v1.9h-.6v-1.9h.1c0,.2.1.2.2.2s.2,0,.2,0h0c0,0,0,0,0,0Z"/>
          <path class="cls-3" d="M74.1,77.8c.1.1.3.1.4,0,.1-.1.1-.3,0-.4l-.8-.9s-.1-.2-.3-.2,0,0,0,0c0,0-.1,0-.2.1l-.8,1c-.1.1,0,.3,0,.4,0,0,.1,0,.2,0,0,0,.2,0,.2-.1l.3-.4v.7l-.8.9c0,0,0,.1,0,.2s0,.2.1.2c0,0,.1,0,.2,0,0,0,.2,0,.2-.1l.3-.4v2.5c0,.2.1.3.3.3s.3-.1.3-.3v-2.5l.2.4c.1.1.3.1.4,0,0,0,0-.1.1-.2,0,0,0-.2,0-.2l-.7-1v-.7l.3.3h0Z"/>
          <path class="cls-3" d="M79.3,77.8c.1.1.3.1.4,0,.1-.1.1-.3,0-.4l-.8-.9c0-.1-.2-.2-.3-.2h0c0,0-.2,0-.2.1l-.8,1c-.1.1,0,.3,0,.4,0,0,.1,0,.2,0,0,0,.2,0,.2-.1l.3-.4v4.1c0,.2.1.3.3.3s.3-.1.3-.3v-2.4l.2.3c.1.1.3.1.4,0,0,0,0-.1.1-.2,0,0,0-.2,0-.2l-.7-.8v-.8s.3.3.3.3Z"/>
        </g>
        <path class="cls-2" d="M22.9,63.7c0,0,0-.1,0-.2,0,0-.1,0-.2,0h-2.7v1.2h1.6c.1,0,.2,0,.3,0s0,0,0-.2h.2v1.3h-.2c0-.1,0-.2,0-.3,0,0-.1,0-.3,0h-1.6v1.8c0,0,0,0,0,.1s.1,0,.2,0v.2h-1.4v-.2c.1,0,.2,0,.2-.2v-4.2c0-.1,0-.2-.2-.2v-.2h3.9c.1,0,.2,0,.2,0s0,0,0-.2h.2v1.2h-.2Z"/>
        <path class="cls-2" d="M26.8,62.9c-.1,0-.2,0-.2.2v2.8c0,.4.1.7.3.8.2.1.6.2,1,.2s.8,0,1-.2c.2-.1.3-.4.3-.8v-2.8c0-.1,0-.2-.3-.2v-.2h1.3v.2c-.1,0-.2,0-.2.2v2.7c0,.4,0,.7-.1.9,0,.2-.2.4-.4.6-.2.1-.4.2-.7.3-.3,0-.6,0-1,0s-.7,0-1,0-.5-.1-.7-.3-.3-.3-.4-.6c0-.2-.1-.5-.1-.9v-2.7c0-.1,0-.2-.2-.2v-.2h1.4v.2h0Z"/>
        <path class="cls-2" d="M32.8,66.3h.1c0,.2,0,.2.1.3,0,0,.2.1.3.2.1,0,.2,0,.3.1.1,0,.2,0,.3,0,.3,0,.6,0,.7-.2s.2-.3.2-.6v-3c0,0,0-.2-.1-.2s-.1,0-.2,0v-.2h1.6v.2c0,0-.2,0-.2,0s-.1.1-.1.2v3.1c0,.2,0,.5-.1.6,0,.2-.2.3-.4.4s-.4.2-.6.3c-.2,0-.5,0-.8,0s-.3,0-.5,0c-.1,0-.3,0-.4,0s-.2,0-.3,0-.2,0-.2,0-.1,0-.2.1h-.1c0,0,.4-1.2.4-1.2h0Z"/>
        <path class="cls-2" d="M39,67.5c.1,0,.2,0,.2-.2v-4.2c0-.1,0-.2-.2-.2v-.2h1.4v.2c-.1,0-.2,0-.2.2v4.2c0,.1,0,.2.2.2v.2h-1.4v-.2Z"/>
        <path class="cls-2" d="M43.4,67.5c.1,0,.2,0,.2-.2v-4.2c0-.1,0-.2-.2-.2v-.2h1.4v.2s0,0,0,0,0,.1.2.3l2.4,2.8v-3c0-.1,0-.2-.2-.2v-.2h1.3v.2c-.1,0-.2,0-.2.2v4.2c0,.1,0,.2.2.2v.2h-1.4v-.2c0,0,.1,0,.1,0s0-.1-.1-.2l-2.6-3v3.1c0,.1,0,.2.2.2v.2h-1.2v-.2Z"/>
        <path class="cls-2" d="M57.9,67.3c0,.1,0,.2.2.2v.2h-1.3v-.2s0,0,.1,0c0,0,0,0,0-.1v-3.7h-1.4c0,0,0,0-.1,0,0,0,0,0,0,.2h-.2v-1.3h.2c0,0,0,.1,0,.2,0,0,0,0,.1,0h3.7s0,0,.1,0c0,0,0,0,0-.2h.2v1.3h-.2c0,0,0-.1,0-.2,0,0,0,0-.1,0h-1.4s0,3.7,0,3.7Z"/>
        <path class="cls-2" d="M65.1,62.7c.3,0,.5,0,.7,0,.2,0,.4.1.6.3.2.1.3.3.4.4s.1.4.1.7c0,.4-.1.7-.3.9-.2.2-.5.4-.9.4l1.1,1.8c0,0,0,0,.1.1,0,0,.1,0,.1,0v.2h-1.6v-.2s0,0,.1,0c0,0,0,0,0,0s0,0,0-.1c0,0,0,0-.1-.2l-.9-1.5h-1.2v1.7c0,0,0,0,0,.1,0,0,.1,0,.2,0v.2h-1.4v-.2c.2,0,.2,0,.2-.2v-4.2c0-.1,0-.2-.2-.2v-.2h2.9ZM64.9,64.9c.2,0,.4,0,.5,0,.1,0,.2,0,.3-.1,0,0,.1-.1.2-.2,0,0,0-.2,0-.3s0-.2,0-.3c0,0,0-.2-.2-.2s-.2-.1-.3-.1c-.1,0-.3,0-.5,0h-1.4v1.4h1.4Z"/>
        <path class="cls-2" d="M74.1,63.7c0,0,0-.1,0-.2,0,0-.1,0-.2,0h-2.7v1.2h1.6c.1,0,.2,0,.3,0,0,0,0-.1,0-.3h.2v1.5h-.2c0-.1,0-.2,0-.3,0,0-.1,0-.3,0h-1.6v1.3h2.8c0,0,.2,0,.2,0,0,0,0-.1,0-.2h.2v1.3h-.2c0,0,0-.1,0-.2s-.1,0-.2,0h-3.9v-.2s0,0,.1,0c0,0,0,0,0-.1v-4.2c0,0,0,0,0-.1,0,0,0,0-.1,0v-.2h3.8c.1,0,.2,0,.2,0,0,0,0,0,0-.2h.2v1.2h-.2Z"/>
        <path class="cls-2" d="M81.3,63.7c0,0,0-.1,0-.2,0,0-.1,0-.2,0h-2.7v1.2h1.6c.1,0,.2,0,.3,0,0,0,0-.1,0-.3h.2v1.5h-.2c0-.1,0-.2,0-.3,0,0-.1,0-.3,0h-1.6v1.3h2.8c0,0,.2,0,.2,0,0,0,0-.1,0-.2h.2v1.3h-.2c0,0,0-.1,0-.2s-.1,0-.2,0h-3.9v-.2s0,0,.1,0c0,0,0,0,0-.1v-4.2c0,0,0,0,0-.1,0,0,0,0-.1,0v-.2h3.8c.1,0,.2,0,.2,0,0,0,0,0,0-.2h.2v1.2h-.2,0Z"/>
        <path class="cls-2" d="M19.4,75.6s0,0,0,0c0,0,0,0,0,0v-1.5h-.6s0,0,0,0,0,0,0,0h0v-.7h0s0,0,0,0,0,0,0,0h1.8s0,0,0,0,0,0,0,0h0v.7h0s0,0,0,0c0,0,0,0,0,0h-.6v1.5s0,0,0,0,0,0,0,0h0s-.8,0-.8,0h0s0,0,0,0Z"/>
        <path class="cls-2" d="M23.3,75.6s0,0,0,0,0,0,0,0,0,0,0,0c0,0,0,0,0,0,0,0,0,0,0,0s0,0,0,0h-.8s0,0,0,0c0,0,0,0,0,0,0,0,0,0,0,0,0,0,0,0,0,0,0,0,0,0,0,0s0,0,0,0h0s-.5,0-.5,0h0s0,0,0,0c0,0,0,0,0,0,0-.2.1-.4.2-.6s.1-.4.2-.5c0-.2.1-.3.1-.4s0-.2,0-.2c0,0,0,0,0,0h0s.8,0,.8,0h0c0,0,0,0,0,0s0,0,0,.1c0,0,0,.1.1.2,0,0,0,.2.1.3s0,.2.2.3c0,.1,0,.2.1.3,0,.1,0,.2.1.3,0,0,0,0,0,0,0,0,0,0,0,0h0s-.6,0-.6,0h0s0,0,0,0ZM22.8,74.3l-.3.7h.6l-.3-.7h0Z"/>
        <path class="cls-2" d="M25.8,73.9s0,0,0,0c0,0,0,0,0,0v1.5s0,0,0,0c0,0,0,0,0,0h0s-.7,0-.7,0h0c0,0,0,0,0,0s0,0,0,0v-1.5s0,0,0,0c0,0,0,0,0,0h0s.7,0,.7,0c0,0,0,0,0,0Z"/>
        <path class="cls-2" d="M27.5,73.9s0,0,0,0c0,0,0,0,0,0s0,0,0,0,0,.1,0,.2c0,0,0,.1,0,.2s0,.2,0,.2c0,0,0,.1,0,.2,0,0,0,.1,0,.1h0s0,0,0-.1c0,0,0-.1,0-.2,0,0,0-.1,0-.2,0,0,0-.1,0-.2,0,0,0-.1,0-.2,0,0,0,0,0,0,0,0,0,0,0,0,0,0,0,0,0,0h0s.7,0,.7,0h0s0,0,0,0c0,0,0,0,0,0s0,0,0,0c0,0,0,.1,0,.2,0,0,0,.1,0,.2,0,0,0,.2,0,.2,0,0,0,.1,0,.2,0,0,0,0,0,.1h0s0,0,0-.1c0,0,0-.1,0-.2,0,0,0-.1,0-.2,0,0,0-.1,0-.2,0,0,0-.1,0-.2,0,0,0,0,0,0,0,0,0,0,0,0,0,0,0,0,0,0h0s.6,0,.6,0h0c0,0,0,0,0,0,0,0,0,0,0,0,0,0,0,0,0,.2,0,0,0,.2,0,.3,0,.1,0,.2-.1.3,0,.1,0,.2-.1.3,0,.1,0,.2,0,.3s0,.1,0,.1c0,0,0,0,.1,0h0s-.8,0-.8,0h0c0,0,.1,0,.1-.1s0,0,0,0c0,0,0-.1,0-.2,0,0,0-.1,0-.2,0,0,0-.2,0-.2s0-.1,0-.2c0,0,0,0,0-.1h0s0,0,0,.1c0,0,0,.1,0,.2,0,0,0,.1,0,.2,0,0,0,.2,0,.2,0,0,0,.1,0,.2,0,0,0,0,0,0s0,0,0,0c0,0,0,0,0,0h0s-.8,0-.8,0h0c0,0,0,0,0-.1s0,0,0-.1c0,0,0-.2,0-.3,0-.1,0-.2-.1-.4,0-.1,0-.3-.1-.4,0-.1,0-.2,0-.3s0-.1,0-.1c0,0,0,0,0,0,0,0,0,0,0,0h0s.6,0,.6,0h0s0,0,0,0Z"/>
        <path class="cls-2" d="M32.2,75.6s0,0,0,0c0,0,0,0,0,0s0,0,0,0c0,0,0,0,0,0,0,0,0,0,0,0s0,0,0,0h-.8s0,0,0,0c0,0,0,0,0,0,0,0,0,0,0,0,0,0,0,0,0,0,0,0,0,0,0,0s0,0,0,0h0s-.5,0-.5,0h0s0,0,0,0c0,0,0,0,0,0,0-.2.1-.4.2-.6s.1-.4.2-.5c0-.2.1-.3.1-.4s0-.2,0-.2c0,0,0,0,0,0h0s.8,0,.8,0h0c0,0,0,0,0,0s0,0,0,.1c0,0,0,.1.1.2,0,0,0,.2.1.3s0,.2.2.3c0,.1,0,.2.1.3s0,.2.1.3c0,0,0,0,0,0,0,0,0,0,0,0h0s-.6,0-.6,0h0s0,0,0,0ZM31.7,74.3l-.3.7h.6s-.3-.7-.3-.7Z"/>
        <path class="cls-2" d="M35.8,75.6s0,0,0,0c0,0,0,0,0,0h0s-.7,0-.7,0h0s0,0,0,0c0,0,0,0,0,0s0,0,0-.1-.1-.1-.2-.2c0,0-.2-.2-.3-.3s-.2-.2-.3-.4h0v1.1s0,0,0,0c0,0,0,0,0,0h0s-.6,0-.6,0h0c0,0,0,0,0,0,0,0,0,0,0,0v-1.5s0,0,0,0c0,0,0,0,0,0h0s.9,0,.9,0h0c0,0,0,0,0,0,0,0,0,0,0,0s0,0,0,0c0,0,0,.1.2.2s.1.2.2.3c0,0,.2.2.2.3v-.8s0,0,0,0c0,0,0,0,0,0h0s.6,0,.6,0h0c0,0,0,0,0,0,0,0,0,0,0,0v1.5h0Z"/>
        <path class="cls-2" d="M38.7,75.3s0,0,0-.1h0v.5h0s0,0,0,0c0,0,0,0,0,0h-1.6c0,0,0,0,0,0,0,0,0,0,0,0v-1.5s0,0,0,0c0,0,0,0,0,0h0s1.7,0,1.7,0c0,0,0,0,0,0,0,0,0,0,0,0h0v.5h0s0,0,0,0,0,0,0,0h-1.1v.3h.7s0,0,0,0,0,0,0,0h0v.5h0s0,0,0,0c0,0,0,0,0,0h-.7v.4h1Z"/>
        <path class="cls-2" d="M40.1,75.1s0,0,0,0c0,0,0,0,0,0,0,0,0,0,0,0,0,0,.1,0,.2,0,0,0,.2,0,.2,0,0,0,.2,0,.2,0s0,0,0,0c0,0,0,0,.1,0,0,0,0,0,0,0,0,0,0,0,0,0s0,0,0-.1c0,0-.1,0-.2,0,0,0-.2,0-.3,0-.1,0-.2,0-.3,0,0,0-.2,0-.2-.1,0,0,0-.2,0-.3s0-.1,0-.2c0,0,0-.1.1-.2s.1-.1.3-.1c.1,0,.2,0,.4,0s.2,0,.3,0c0,0,.2,0,.2,0,0,0,.1,0,.2,0,0,0,0,0,0,0s0,0,0,0,0,0,0,0h0s-.2.5-.2.5h0s0,0,0,0c0,0,0,0,0,0s0,0,0,0c0,0,0,0-.1,0,0,0-.1,0-.2,0,0,0-.1,0-.2,0s0,0-.1,0c0,0,0,0-.1,0s0,0-.1,0c0,0,0,0,0,.1s0,0,0,.1c0,0,.1,0,.2,0,0,0,.2,0,.3,0,.1,0,.2,0,.3,0,0,0,.2,0,.2.2s0,.2,0,.3,0,.2,0,.2c0,0,0,.1-.1.2s-.1,0-.3.1c-.1,0-.2,0-.4,0s-.2,0-.3,0-.2,0-.2,0-.1,0-.2,0c0,0,0,0,0,0,0,0,0,0,0,0,0,0,0,0,0,0h0s.2-.6.2-.6h0s0,0,0,0Z"/>
        <path class="cls-2" d="M44.4,75.3s0,0,0-.1h0v.5h0s0,0,0,0c0,0,0,0,0,0h-1.6c0,0,0,0,0,0,0,0,0,0,0,0v-1.5s0,0,0,0c0,0,0,0,0,0h0s1.7,0,1.7,0c0,0,0,0,0,0s0,0,0,0h0v.5h0s0,0,0,0,0,0,0,0h-1.1v.3h.7s0,0,0,0c0,0,0,0,0,0h0v.5h0s0,0,0,0c0,0,0,0,0,0h-.7v.4h1Z"/>
        <path class="cls-2" d="M49.4,74.3s0,0,0,0c0,0,0,0,0,0,0,0,0,0,0,0,0,0,0,0-.1,0s-.1,0-.2,0c0,0-.1,0-.2,0s-.2,0-.2,0c0,0-.2,0-.2,0,0,0-.1.1-.2.2,0,0,0,.2,0,.3s0,.2,0,.3c0,0,0,.1.2.2,0,0,.1,0,.2,0,0,0,.2,0,.2,0s0,0,.2,0c0,0,.1,0,.2,0s.1,0,.2,0c0,0,0,0,0,0s0,0,0,0c0,0,0,0,0,0h0s.4.6.4.6h0s0,0,0,0c0,0,0,0,0,0s0,0-.1,0c0,0-.1,0-.2,0,0,0-.2,0-.3,0-.1,0-.2,0-.4,0s-.3,0-.4,0c-.1,0-.3-.1-.4-.2-.1,0-.2-.2-.3-.3s-.1-.3-.1-.5,0-.3.1-.5.2-.3.3-.3.2-.2.4-.2.3,0,.4,0,.3,0,.4,0c.1,0,.2,0,.3,0,0,0,.1,0,.2,0,0,0,0,0,0,0s0,0,0,0h0s-.3.7-.3.7h0s0,0,0,0Z"/>
        <path class="cls-2" d="M51.1,74s0,0,0,0c0,0,0,0,0,0h0s.7,0,.7,0h0c0,0,0,0,0,0,0,0,0,0,0,0v1c0,.1,0,.2.1.2s.2,0,.3,0,.2,0,.3,0,.1-.1.1-.2v-1s0,0,0,0c0,0,0,0,0,0h0s.7,0,.7,0h0c0,0,0,0,0,0,0,0,0,0,0,0v.9c0,.1,0,.2,0,.3s0,.2-.1.3c0,0-.2.1-.3.2-.1,0-.2,0-.4,0s-.3,0-.4,0c-.1,0-.2,0-.3-.2,0,0-.1-.2-.1-.3,0,0,0-.2,0-.3v-.9h0Z"/>
        <path class="cls-2" d="M54.9,73.9s0,0,0,0c0,0,0,0,0,0v1.5s0,0,0,0c0,0,0,0,0,0h0s-.7,0-.7,0h0c0,0,0,0,0,0,0,0,0,0,0,0v-1.5s0,0,0,0c0,0,0,0,0,0h0s.7,0,.7,0c0,0,0,0,0,0Z"/>
        <path class="cls-2" d="M56.2,75.1s0,0,0,0c0,0,0,0,0,0,0,0,0,0,0,0,0,0,.1,0,.2,0,0,0,.2,0,.2,0,0,0,.2,0,.2,0s0,0,0,0c0,0,0,0,.1,0,0,0,0,0,0,0,0,0,0,0,0,0s0,0,0-.1c0,0-.1,0-.2,0,0,0-.2,0-.3,0-.1,0-.2,0-.3,0,0,0-.2,0-.2-.1,0,0,0-.2,0-.3s0-.1,0-.2c0,0,0-.1.1-.2s.1-.1.3-.1c.1,0,.2,0,.4,0s.2,0,.3,0c0,0,.2,0,.2,0,0,0,.1,0,.2,0,0,0,0,0,0,0s0,0,0,0c0,0,0,0,0,0h0s-.2.5-.2.5h0s0,0,0,0c0,0,0,0,0,0s0,0,0,0c0,0,0,0-.1,0,0,0-.1,0-.2,0,0,0-.1,0-.2,0s0,0-.1,0c0,0,0,0-.1,0s0,0-.1,0c0,0,0,0,0,.1s0,0,0,.1c0,0,.1,0,.2,0,0,0,.2,0,.3,0,.1,0,.2,0,.3,0,0,0,.2,0,.2.2s0,.2,0,.3,0,.2,0,.2c0,0,0,.1-.1.2s-.1,0-.3.1c-.1,0-.2,0-.4,0s-.2,0-.3,0-.2,0-.2,0-.1,0-.2,0c0,0,0,0,0,0,0,0,0,0,0,0,0,0,0,0,0,0h0s.2-.6.2-.6h0s0,0,0,0Z"/>
        <path class="cls-2" d="M59.6,73.9s0,0,0,0c0,0,0,0,0,0v1.5s0,0,0,0c0,0,0,0,0,0h0s-.7,0-.7,0h0c0,0,0,0,0,0,0,0,0,0,0,0v-1.5s0,0,0,0c0,0,0,0,0,0h0s.7,0,.7,0c0,0,0,0,0,0Z"/>
        <path class="cls-2" d="M62.7,75.6s0,0,0,0c0,0,0,0,0,0h0s-.7,0-.7,0h0s0,0,0,0c0,0,0,0,0,0s0,0,0-.1-.1-.1-.2-.2c0,0-.2-.2-.3-.3-.1-.1-.2-.2-.3-.4h0v1.1s0,0,0,0c0,0,0,0,0,0h0s-.6,0-.6,0h0c0,0,0,0,0,0,0,0,0,0,0,0v-1.5s0,0,0,0c0,0,0,0,0,0h0s.9,0,.9,0h0c0,0,0,0,0,0,0,0,0,0,0,0s0,0,0,0c0,0,0,.1.2.2s.1.2.2.3c0,0,.2.2.2.3v-.8s0,0,0,0c0,0,0,0,0,0h0s.6,0,.6,0h0c0,0,0,0,0,0s0,0,0,0v1.5h0Z"/>
        <path class="cls-2" d="M65.6,75.3s0,0,0-.1h0v.5h0s0,0,0,0c0,0,0,0,0,0h-1.6c0,0,0,0,0,0s0,0,0,0v-1.5s0,0,0,0c0,0,0,0,0,0h0s1.7,0,1.7,0c0,0,0,0,0,0s0,0,0,0h0v.5h0s0,0,0,0,0,0,0,0h-1.1v.3h.7s0,0,0,0c0,0,0,0,0,0h0v.5h0s0,0,0,0c0,0,0,0,0,0h-.7v.4h1,0Z"/>
        <path class="cls-2" d="M21,81.5s0,0,0,0c0,0,0,0,0,0s0,0,0,0c0,0,0,0,0,0s0,0,0,.1c0,0,0,0,0,0,0,0,0,0,0,0,0,0,0,0,0,0s0,0,0,0c0,0,0,0,0,0,0,0,0,0,0,0h0v.6c0,0-.1,0-.2,0,0,0-.1,0-.2,0,0,0-.1,0-.2,0,0,0,0,0-.1-.1-.1,0-.2.2-.4.2-.1,0-.2,0-.4,0s-.2,0-.3,0c0,0-.2,0-.3-.1,0,0-.1-.1-.2-.2,0,0,0-.2,0-.3s0-.2,0-.2c0,0,0-.1,0-.2,0,0,0-.1.1-.1s.1,0,.2,0c0,0,0,0-.1-.2,0,0,0-.1,0-.2,0-.1,0-.2,0-.3,0,0,0-.1.2-.2,0,0,.1,0,.2,0s.2,0,.2,0,.2,0,.2,0,.1,0,.2,0c0,0,.1,0,.2.2,0,0,0,.2,0,.3s0,0,0,.1c0,0,0,0,0,.1,0,0,0,0,0,0,0,0,0,0-.1,0,0,0,0,0,.1.1,0,0,0,0,.1.1,0-.1.2-.3.3-.4s.2-.2.4-.3v.7h0ZM19.8,82c0,0,.1,0,.2,0,0,0,.1,0,.2-.2,0-.2-.2-.4-.4-.4s-.2,0-.2,0,0,.1,0,.2,0,.2,0,.2c0,0,.1,0,.2,0M19.8,80.6c0,0-.1,0-.2,0,0,0,0,0,0,.2,0,0,0,.1,0,.2,0,0,.1,0,.2,0s.1,0,.2,0c0,0,0,0,0-.2,0,0,0-.1,0-.2s-.1,0-.2,0"/>
        <path class="cls-2" d="M25.9,81s0,0,0,0c0,0,0,0,0,0,0,0,0,0,0,0,0,0,0,0-.1,0,0,0-.1,0-.2,0,0,0-.1,0-.2,0s-.2,0-.2,0-.2,0-.2,0c0,0-.1.1-.2.2s0,.2,0,.3,0,.2,0,.3,0,.1.2.2.1,0,.2,0c0,0,.2,0,.2,0s0,0,.2,0,.1,0,.2,0,.1,0,.2,0c0,0,0,0,0,0s0,0,0,0c0,0,0,0,0,0h0s.4.6.4.6h0s0,0,0,0c0,0,0,0,0,0s0,0-.1,0c0,0-.1,0-.2,0,0,0-.2,0-.3,0-.1,0-.2,0-.4,0s-.3,0-.4,0c-.1,0-.3-.1-.4-.2-.1,0-.2-.2-.3-.3,0-.1-.1-.3-.1-.5s0-.3.1-.5c0-.1.2-.2.3-.3.1,0,.2-.2.4-.2.1,0,.3,0,.4,0s.3,0,.4,0c.1,0,.2,0,.3,0,0,0,.1,0,.2,0,0,0,0,0,0,0s0,0,0,0h0s-.3.7-.3.7h0s0,0,0,0Z"/>
        <path class="cls-2" d="M28,82.3s0,0,0,0c0,0,0,0,0,0h0s-.7,0-.7,0h0c0,0,0,0,0,0,0,0,0,0,0,0v-1.5s0,0,0,0c0,0,0,0,0,0h0s.7,0,.7,0h0c0,0,0,0,0,0,0,0,0,0,0,0v.5h.8v-.5s0,0,0,0c0,0,0,0,0,0h0s.7,0,.7,0h0c0,0,0,0,0,0,0,0,0,0,0,0v1.5s0,0,0,0c0,0,0,0,0,0h0s-.7,0-.7,0h0c0,0,0,0,0,0,0,0,0,0,0,0v-.6h-.8v.6Z"/>
        <path class="cls-2" d="M32.1,82.4s0,0,0,0,0,0,0,0,0,0,0,0c0,0,0,0,0,0,0,0,0,0,0,0,0,0,0,0,0,0h-.8s0,0,0,0c0,0,0,0,0,0s0,0,0,0c0,0,0,0,0,0,0,0,0,0,0,0s0,0,0,0h0s-.5,0-.5,0h0s0,0,0,0c0,0,0,0,0,0,0-.2.1-.4.2-.6,0-.2.1-.4.2-.5,0-.2.1-.3.1-.4s0-.2,0-.2c0,0,0,0,0,0h0s.8,0,.8,0h0c0,0,0,0,0,0s0,0,0,.1c0,0,0,.1.1.2,0,0,0,.2.1.3s0,.2.2.3c0,.1,0,.2.1.3s0,.2.1.3c0,0,0,0,0,0,0,0,0,0,0,0h0s-.6,0-.6,0h0s0,0,0,0ZM31.6,81l-.3.7h.6l-.3-.7h0Z"/>
        <path class="cls-2" d="M34.3,82.3s0,0,0,0c0,0,0,0,0,0h0s-.6,0-.6,0h0c0,0,0,0,0,0,0,0,0,0,0,0v-1.5s0,0,0,0c0,0,0,0,0,0h0s.8,0,.8,0h0c0,0,0,0,0,0s0,0,0,0,0,0,0,.1c0,0,0,.1,0,.2,0,0,0,.2.1.2,0,0,0,.1,0,.1,0,0,0-.1.1-.2,0,0,0-.2.1-.2s0-.1,0-.2c0,0,0,0,0,0s0,0,0,0c0,0,0,0,0,0h0s.8,0,.8,0h0c0,0,0,0,0,0,0,0,0,0,0,0v1.5s0,0,0,0c0,0,0,0,0,0h0s-.6,0-.6,0h0c0,0,0,0,0,0,0,0,0,0,0,0v-1.2h0l-.5,1.2-.5-1.2h0v1.2h0Z"/>
        <path class="cls-2" d="M37.2,80.7s0,0,0,0c0,0,0,0,0,0h0s1,0,1,0c0,0,.2,0,.3,0,0,0,.2,0,.2,0,0,0,.1.1.2.2,0,0,0,.2,0,.3s0,.2,0,.3c0,0,0,.1-.2.2,0,0-.1,0-.2,0s-.2,0-.3,0h-.4v.5s0,0,0,0c0,0,0,0,0,0h0s-.6,0-.6,0h0c0,0,0,0,0,0s0,0,0,0c0,0,0-1.5,0-1.5ZM38.1,81.4c.1,0,.2,0,.2,0,0,0,0,0,0-.2s0-.1,0-.2c0,0-.1,0-.2,0h-.4v.5h.3,0Z"/>
        <path class="cls-2" d="M41.4,82.4s0,0,0,0,0,0,0,0,0,0,0,0c0,0,0,0,0,0,0,0,0,0,0,0,0,0,0,0,0,0h-.8s0,0,0,0c0,0,0,0,0,0s0,0,0,0c0,0,0,0,0,0,0,0,0,0,0,0s0,0,0,0h0s-.5,0-.5,0h0s0,0,0,0c0,0,0,0,0,0,0-.2.1-.4.2-.6,0-.2.1-.4.2-.5,0-.2.1-.3.1-.4s0-.2,0-.2c0,0,0,0,0,0h0s.8,0,.8,0h0c0,0,0,0,0,0s0,0,0,.1c0,0,0,.1.1.2,0,0,0,.2.1.3s0,.2.2.3c0,.1,0,.2.1.3,0,.1,0,.2.1.3,0,0,0,0,0,0,0,0,0,0,0,0h0s-.6,0-.6,0h0s0,0,0,0ZM40.9,81l-.3.7h.6s-.3-.7-.3-.7Z"/>
        <path class="cls-2" d="M47.9,82.3s0,0,0,0c0,0,0,0,0,0h0s-.7,0-.7,0h0s0,0,0,0c0,0,0,0,0,0s0,0,0-.1c0,0-.1-.1-.2-.2,0,0-.2-.2-.3-.3s-.2-.2-.3-.4h0v1.1s0,0,0,0,0,0,0,0h0s-.6,0-.6,0h0c0,0,0,0,0,0,0,0,0,0,0,0v-1.5s0,0,0,0c0,0,0,0,0,0h0s.9,0,.9,0h0c0,0,0,0,0,0,0,0,0,0,0,0s0,0,0,0c0,0,0,.1.2.2s.1.2.2.3c0,0,.2.2.2.3v-.8s0,0,0,0c0,0,0,0,0,0h0s.6,0,.6,0h0c0,0,0,0,0,0,0,0,0,0,0,0v1.5h0Z"/>
        <path class="cls-2" d="M44.8,82s0,0,0,0c0,0,0,0,0,0h0c0,0-.1.1-.2.1,0,0-.2,0-.2,0,0,0-.2,0-.3,0,0,0-.2,0-.3,0-.1,0-.3,0-.4,0-.1,0-.2,0-.3-.2,0,0-.2-.2-.2-.3,0-.1,0-.3,0-.4s0-.3,0-.4c0-.1.1-.2.2-.3,0,0,.2-.1.3-.2.1,0,.2,0,.4,0s.2,0,.3,0,.1,0,.2,0c0,0,.1,0,.1,0,0,0,0,0,0,0,0,0,0,0,0,0,0,0,0,0,0,0h0s-.2.5-.2.5h0c0,0,0-.1,0-.1,0,0,0,0-.1,0,0,0-.1,0-.2,0,0,0-.1,0-.1,0,0,0-.1,0-.2,0s-.1,0-.2,0c0,0,0,0-.1.2,0,0,0,.1,0,.2s0,.2,0,.2c0,0,0,.1.1.2s.1,0,.2,0c0,0,.1,0,.2,0s.1,0,.2,0,.1,0,.2,0v-.3h-.3s0,0,0,0,0,0,0,0h0v-.5h0s0,0,0,0c0,0,0,0,0,0h.8v.6h0Z"/>
        <path class="cls-2" d="M50.8,82s0,0,0-.1h0v.5h0s0,0,0,0c0,0,0,0,0,0h-1.6c0,0,0,0,0,0,0,0,0,0,0,0v-1.5s0,0,0,0c0,0,0,0,0,0h0s1.7,0,1.7,0c0,0,0,0,0,0,0,0,0,0,0,0h0v.5h0s0,0,0,0,0,0,0,0h-1.1v.3h.7s0,0,0,0c0,0,0,0,0,0h0v.5h0s0,0,0,0c0,0,0,0,0,0h-.7v.4h1Z"/>
      </g>
    </g>
  </g>
</svg>